<svg
  width="24"
  height="24"
  viewBox="0 0 24 24"
  fill="none"
  xmlns="http://www.w3.org/2000/svg"
>
  <g>
    <path
      d="M8.875 5H15.125C15.2908 5 15.4497 5.06705 15.5669 5.18639C15.6841 5.30573 15.75 5.46759 15.75 5.63636C15.75 5.80514 15.6841 5.967 15.5669 6.08634C15.4497 6.20568 15.2908 6.27273 15.125 6.27273L14.615 6.44582C14.4905 6.48804 14.3822 6.56909 14.3055 6.67749C14.2287 6.78588 14.1875 6.91611 14.1875 7.04973V8.64764C14.1875 8.85276 14.2362 9.05485 14.3295 9.23667C14.4228 9.4185 14.5578 9.57468 14.7231 9.69191C15.2769 10.0849 15.6725 10.4326 15.91 10.7355C16.6173 11.6363 17.0018 12.7558 17 13.9091C17 16.7209 14.7616 19 12 19C9.23844 19 7 16.7209 7 13.9091C7 12.7089 7.40781 11.6058 8.09 10.7355C8.3275 10.4326 8.72312 10.0849 9.27687 9.69191C9.4422 9.57468 9.57724 9.4185 9.6705 9.23667C9.76376 9.05485 9.81248 8.85276 9.8125 8.64764V7.04973C9.81253 6.91611 9.77125 6.78588 9.69452 6.67749C9.61779 6.56909 9.5095 6.48804 9.385 6.44582L8.875 6.27273C8.70924 6.27273 8.55027 6.20568 8.43306 6.08634C8.31585 5.967 8.25 5.80514 8.25 5.63636C8.25 5.46759 8.31585 5.30573 8.43306 5.18639C8.55027 5.06705 8.70924 5 8.875 5ZM12.06 13.9091C13.5994 13.2645 14.8294 13.2645 15.75 13.9091C15.75 13.0309 15.4594 12.2011 14.9328 11.5294C14.7834 11.3391 14.4719 11.0649 14.0084 10.7362C13.6778 10.5017 13.4078 10.1893 13.2214 9.82566C13.0349 9.46201 12.9375 9.05786 12.9375 8.64764V6.90909C12.9375 6.74032 12.8716 6.57846 12.7544 6.45911C12.6372 6.33977 12.4783 6.27273 12.3125 6.27273H11.6875C11.5217 6.27273 11.3628 6.33977 11.2456 6.45911C11.1283 6.57846 11.0625 6.74032 11.0625 6.90909V8.64764C11.0625 9.05786 10.9651 9.46201 10.7786 9.82566C10.5922 10.1893 10.3221 10.5017 9.99156 10.7362C9.52812 11.0652 9.21656 11.3391 9.06719 11.5294C8.53649 12.2047 8.24819 13.0442 8.25 13.9091C9.25062 14.5537 10.5209 14.5537 12.06 13.9091Z"
      fill="currentColor"
    />
  </g>
</svg>
