<svg
  width="24"
  height="24"
  viewBox="0 0 24 24"
  fill="none"
  xmlns="http://www.w3.org/2000/svg"
>
  <g>
    <path
      d="M21.0728 7.79941C20.5611 6.91491 19.8349 6.12505 18.9118 5.45105C17.0559 4.09534 14.6013 3.34796 12 3.34796C9.39865 3.34796 6.94408 4.09534 5.09011 5.45105C4.16699 6.12505 3.44086 6.91685 2.92909 7.79941C2.38642 8.73605 2.11218 9.73256 2.11218 10.7638C2.11218 11.7951 2.38642 12.7916 2.92716 13.7282C3.43893 14.6127 4.16506 15.4026 5.08818 16.0766C6.17159 16.8684 7.45971 17.4536 8.86371 17.8012L11.5095 20.4469C11.6447 20.5821 11.8223 20.6497 12.0019 20.6497C12.1796 20.6497 12.3573 20.5821 12.4944 20.4469L15.1421 17.7992C16.5422 17.4497 17.8284 16.8665 18.9118 16.0766C19.8349 15.4026 20.5611 14.6108 21.0728 13.7282C21.6136 12.7916 21.8878 11.7951 21.8878 10.7638C21.8878 9.73256 21.6136 8.73605 21.0728 7.79941ZM12.1371 15.6595C11.7528 15.6595 11.4419 15.3485 11.4419 14.9642C11.4419 14.5799 11.7528 14.269 12.1371 14.269C12.5214 14.269 12.8324 14.5799 12.8324 14.9642C12.8324 15.3485 12.5214 15.6595 12.1371 15.6595ZM14.1147 11.4204C13.7613 11.8009 13.3209 12.0751 12.8343 12.2258V12.8785C12.8343 13.2628 12.5234 13.5737 12.139 13.5737C11.7547 13.5737 11.4438 13.2628 11.4438 12.8785V11.011L12.085 10.9608C12.8845 10.899 13.5102 10.2231 13.5102 9.4197C13.5102 8.56803 12.8169 7.87473 11.9652 7.87473C11.2603 7.87473 10.6462 8.34981 10.4705 9.02959C10.3739 9.40039 9.9954 9.62441 9.62267 9.52785C9.25188 9.43129 9.02786 9.05277 9.12442 8.68004C9.46045 7.38613 10.6288 6.48425 11.9652 6.48425C13.5836 6.48425 14.9007 7.80134 14.9007 9.4197C14.8988 10.1651 14.6207 10.8758 14.1147 11.4204Z"
      fill="currentColor"
    />
  </g>
</svg>
