<svg
  width="24"
  height="24"
  viewBox="0 0 24 24"
  fill="none"
  xmlns="http://www.w3.org/2000/svg"
>
  <g>
    <path
      d="M20.2609 15.5219V12.2173C20.2605 11.9291 20.1459 11.6528 19.9422 11.4491C19.7384 11.2453 19.4621 11.1307 19.1739 11.1304H12.4348V8.4779C13.4258 8.276 14.1739 7.39761 14.1739 6.34774C14.1739 5.1491 13.1986 4.17383 12 4.17383C10.8014 4.17383 9.82609 5.1491 9.82609 6.34774C9.82609 7.39761 10.5742 8.276 11.5652 8.4779V11.1304H4.82609C4.53791 11.1307 4.26162 11.2453 4.05785 11.4491C3.85408 11.6528 3.73945 11.9291 3.73913 12.2173V15.5219C2.7481 15.7238 2 16.6022 2 17.6521C2 18.8507 2.97527 19.826 4.17391 19.826C5.37255 19.826 6.34783 18.8507 6.34783 17.6521C6.34783 16.6022 5.59973 15.7238 4.6087 15.5219V12.2173C4.6087 12.1597 4.6316 12.1044 4.67237 12.0636C4.71314 12.0228 4.76843 11.9999 4.82609 11.9999H11.5652V15.5219C10.5742 15.7238 9.82609 16.6022 9.82609 17.6521C9.82609 18.8507 10.8014 19.826 12 19.826C13.1986 19.826 14.1739 18.8507 14.1739 17.6521C14.1739 16.6022 13.4258 15.7238 12.4348 15.5219V11.9999H19.1739C19.2316 11.9999 19.2869 12.0228 19.3276 12.0636C19.3684 12.1044 19.3913 12.1597 19.3913 12.2173V15.5219C18.4003 15.7238 17.6522 16.6022 17.6522 17.6521C17.6522 18.8507 18.6274 19.826 19.8261 19.826C21.0247 19.826 22 18.8507 22 17.6521C22 16.6022 21.2519 15.7238 20.2609 15.5219Z"
      fill="currentColor"
    />
  </g>
</svg>
