<svg
  width="24"
  height="24"
  viewBox="0 0 24 24"
  fill="none"
  xmlns="http://www.w3.org/2000/svg"
>
  <g>
    <path
      d="M19.3878 8.95117C20.2627 8.9512 20.7003 9.38875 20.7003 10.2637V18.1377C20.7003 19.0126 20.2627 19.4502 19.3878 19.4502H3.63879C2.76385 19.4502 2.32629 19.0126 2.32629 18.1377V10.2637C2.32629 9.38872 2.76385 8.95117 3.63879 8.95117H19.3878ZM10.8566 6.32617H19.3878C19.7357 6.32619 20.0695 6.46406 20.3156 6.70996C20.5617 6.95609 20.7003 7.2906 20.7003 7.63867H2.32629V5.01367C2.32629 4.6656 2.46493 4.33206 2.71106 4.08594C2.95718 3.83982 3.29073 3.70117 3.63879 3.70117H8.23254L10.8566 6.32617Z"
      fill="currentColor"
    />
  </g>
</svg>
