<svg
  width="24"
  height="24"
  viewBox="0 0 24 24"
  fill="none"
  xmlns="http://www.w3.org/2000/svg"
>
  <g>
    <path
      d="M10.0531 3.98546C9.76373 3.98546 9.48625 4.10039 9.28167 4.30498C9.07708 4.50956 8.96215 4.78704 8.96215 5.07637V14.6458C8.96214 14.8059 8.90931 14.9615 8.81185 15.0885C8.71439 15.2155 8.57775 15.3068 8.42311 15.3483C8.26847 15.3897 8.10449 15.379 7.95658 15.3177C7.80867 15.2565 7.68511 15.1481 7.60506 15.0095L5.61233 11.5571C5.50439 11.37 5.34346 11.219 5.14983 11.1232C4.95621 11.0275 4.73856 10.9912 4.52433 11.0189C4.34618 11.0422 4.17654 11.1091 4.03048 11.2138C3.88442 11.3184 3.76646 11.4575 3.68709 11.6187C3.60772 11.7799 3.56939 11.9582 3.57551 12.1377C3.58162 12.3173 3.63199 12.4926 3.72215 12.648C3.73208 12.6651 3.7413 12.6825 3.74979 12.7004C5.23197 15.8284 6.37742 17.8276 7.60069 19.0546C8.76942 20.2269 10.0305 20.7127 11.8712 20.7127C12.7308 20.7127 13.5819 20.5434 14.3761 20.2145C15.1702 19.8855 15.8918 19.4034 16.4996 18.7956C17.1074 18.1878 17.5895 17.4662 17.9185 16.6721C18.2474 15.878 18.4167 15.0268 18.4167 14.1673V6.53091C18.4167 6.24162 18.3017 5.96418 18.0971 5.75963C17.8925 5.55508 17.6151 5.44017 17.3258 5.44017C17.0365 5.44017 16.759 5.55508 16.5545 5.75963C16.3499 5.96418 16.2349 6.24162 16.2349 6.53091V11.2582C16.2349 11.4511 16.1583 11.6361 16.0219 11.7724C15.8855 11.9088 15.7005 11.9855 15.5076 11.9855C15.3147 11.9855 15.1297 11.9088 14.9933 11.7724C14.857 11.6361 14.7803 11.4511 14.7803 11.2582V6.53091C14.7803 5.85582 15.0485 5.20837 15.5259 4.73101C16.0032 4.25364 16.6507 3.98546 17.3258 3.98546C18.0009 3.98546 18.6483 4.25364 19.1257 4.73101C19.6031 5.20837 19.8712 5.85582 19.8712 6.53091V14.1673C19.8712 15.2179 19.6643 16.2581 19.2623 17.2287C18.8602 18.1993 18.271 19.0813 17.5281 19.8241C16.7852 20.567 15.9033 21.1563 14.9327 21.5583C13.9621 21.9604 12.9218 22.1673 11.8712 22.1673C9.69524 22.1673 8.04724 21.5622 6.57088 20.0815C5.15269 18.6604 3.91997 16.4524 2.44724 13.3476C2.28192 13.0571 2.17544 12.7369 2.13388 12.4052C2.09233 12.0735 2.11651 11.7369 2.20504 11.4145C2.38385 10.7635 2.81394 10.2103 3.40069 9.87637C3.98745 9.54249 4.68281 9.45536 5.3338 9.63417C5.98479 9.81298 6.53808 10.2431 6.87197 10.8298L7.5076 11.9316V5.07637C7.50757 4.74207 7.57339 4.41105 7.70129 4.10219C7.8292 3.79333 8.01669 3.5127 8.25306 3.2763C8.48943 3.03991 8.77005 2.85239 9.0789 2.72445C9.38774 2.59652 9.71876 2.53067 10.0531 2.53067C10.3874 2.53067 10.7184 2.59652 11.0272 2.72445C11.3361 2.85239 11.6167 3.03991 11.8531 3.2763C12.0894 3.5127 12.2769 3.79333 12.4048 4.10219C12.5327 4.41105 12.5985 4.74207 12.5985 5.07637V11.2582C12.5985 11.4511 12.5219 11.6361 12.3855 11.7724C12.2491 11.9088 12.0641 11.9855 11.8712 11.9855C11.6784 11.9855 11.4934 11.9088 11.357 11.7724C11.2206 11.6361 11.144 11.4511 11.144 11.2582V5.07637C11.144 4.78704 11.029 4.50956 10.8244 4.30498C10.6199 4.10039 10.3424 3.98546 10.0531 3.98546Z"
      fill="currentColor"
    />
    <path
      d="M11.8895 1.82181C12.2455 1.46579 12.6991 1.22333 13.1929 1.12509C13.6866 1.02686 14.1985 1.07727 14.6636 1.26994C15.1288 1.46262 15.5263 1.7889 15.806 2.20754C16.0857 2.62617 16.235 3.11834 16.235 3.62181V11.2582C16.235 11.4511 16.1583 11.636 16.0219 11.7724C15.8855 11.9088 15.7006 11.9854 15.5077 11.9854C15.3148 11.9854 15.1298 11.9088 14.9934 11.7724C14.857 11.636 14.7804 11.4511 14.7804 11.2582V3.62181C14.7804 3.47854 14.7522 3.33666 14.6974 3.20429C14.6426 3.07192 14.5622 2.95164 14.4609 2.85032C14.3596 2.749 14.2394 2.66863 14.107 2.6138C13.9746 2.55896 13.8328 2.53074 13.6895 2.53074C13.5462 2.53074 13.4044 2.55896 13.272 2.6138C13.1396 2.66863 13.0194 2.749 12.9181 2.85032C12.8168 2.95164 12.7364 3.07192 12.6816 3.20429C12.6268 3.33666 12.5986 3.47854 12.5986 3.62181V11.2582C12.5986 11.4511 12.522 11.636 12.3856 11.7724C12.2492 11.9088 12.0642 11.9854 11.8713 11.9854C11.6784 11.9854 11.4934 11.9088 11.3571 11.7724C11.2207 11.636 11.144 11.4511 11.144 11.2582V3.62181C11.144 3.28753 11.2098 2.95651 11.3377 2.64767C11.4656 2.33882 11.6531 2.0582 11.8895 1.82181Z"
      fill="currentColor"
    />
  </g>
</svg>
