<svg
  width="24"
  height="24"
  viewBox="0 0 24 24"
  fill="none"
  xmlns="http://www.w3.org/2000/svg"
>
  <g>
    <path
      d="M3 7C2.99998 7.13134 3.02583 7.26139 3.07608 7.38273C3.12632 7.50407 3.19998 7.61433 3.29284 7.70721C3.3857 7.80008 3.49595 7.87375 3.61728 7.92402C3.73862 7.97428 3.86867 8.00015 4 8.00015C4.13133 8.00015 4.26138 7.97428 4.38272 7.92402C4.50405 7.87375 4.6143 7.80008 4.70716 7.70721C4.80002 7.61433 4.87368 7.50407 4.92392 7.38273C4.97417 7.26139 5.00002 7.13134 5 7C5.00002 6.86867 4.97417 6.73861 4.92392 6.61727C4.87368 6.49593 4.80002 6.38567 4.70716 6.29279C4.6143 6.19992 4.50405 6.12625 4.38272 6.07598C4.26138 6.02572 4.13133 5.99985 4 5.99985C3.86867 5.99985 3.73862 6.02572 3.61728 6.07598C3.49595 6.12625 3.3857 6.19992 3.29284 6.29279C3.19998 6.38567 3.12632 6.49593 3.07608 6.61727C3.02583 6.73861 2.99998 6.86867 3 7Z"
      fill="currentColor"
    />
    <path
      d="M3 12C2.99998 12.1313 3.02583 12.2614 3.07608 12.3827C3.12632 12.5041 3.19998 12.6143 3.29284 12.7072C3.3857 12.8001 3.49595 12.8738 3.61728 12.924C3.73862 12.9743 3.86867 13.0002 4 13.0002C4.13133 13.0002 4.26138 12.9743 4.38272 12.924C4.50405 12.8738 4.6143 12.8001 4.70716 12.7072C4.80002 12.6143 4.87368 12.5041 4.92392 12.3827C4.97417 12.2614 5.00002 12.1313 5 12C5.00002 11.8687 4.97417 11.7386 4.92392 11.6173C4.87368 11.4959 4.80002 11.3857 4.70716 11.2928C4.6143 11.1999 4.50405 11.1262 4.38272 11.076C4.26138 11.0257 4.13133 10.9998 4 10.9998C3.86867 10.9998 3.73862 11.0257 3.61728 11.076C3.49595 11.1262 3.3857 11.1999 3.29284 11.2928C3.19998 11.3857 3.12632 11.4959 3.07608 11.6173C3.02583 11.7386 2.99998 11.8687 3 12Z"
      fill="currentColor"
    />
    <path
      d="M3 17C2.99998 17.1313 3.02583 17.2614 3.07608 17.3827C3.12632 17.5041 3.19998 17.6143 3.29284 17.7072C3.3857 17.8001 3.49595 17.8738 3.61728 17.924C3.73862 17.9743 3.86867 18.0002 4 18.0002C4.13133 18.0002 4.26138 17.9743 4.38272 17.924C4.50405 17.8738 4.6143 17.8001 4.70716 17.7072C4.80002 17.6143 4.87368 17.5041 4.92392 17.3827C4.97417 17.2614 5.00002 17.1313 5 17C5.00002 16.8687 4.97417 16.7386 4.92392 16.6173C4.87368 16.4959 4.80002 16.3857 4.70716 16.2928C4.6143 16.1999 4.50405 16.1262 4.38272 16.076C4.26138 16.0257 4.13133 15.9998 4 15.9998C3.86867 15.9998 3.73862 16.0257 3.61728 16.076C3.49595 16.1262 3.3857 16.1999 3.29284 16.2928C3.19998 16.3857 3.12632 16.4959 3.07608 16.6173C3.02583 16.7386 2.99998 16.8687 3 17Z"
      fill="currentColor"
    />
    <path
      d="M7.94 11H20.06C20.6867 11 21 11.3133 21 11.94V12.06C21 12.6867 20.6867 13 20.06 13H7.94C7.31333 13 7 12.6867 7 12.06V11.94C7 11.3133 7.31333 11 7.94 11Z"
      fill="currentColor"
    />
    <path
      d="M7.94 16H20.06C20.6867 16 21 16.3133 21 16.94V17.06C21 17.6867 20.6867 18 20.06 18H7.94C7.31333 18 7 17.6867 7 17.06V16.94C7 16.3133 7.31333 16 7.94 16Z"
      fill="currentColor"
    />
    <path
      d="M7.94 6H20.06C20.6867 6 21 6.31333 21 6.94V7.06C21 7.68667 20.6867 8 20.06 8H7.94C7.31333 8 7 7.68667 7 7.06V6.94C7 6.31333 7.31333 6 7.94 6Z"
      fill="currentColor"
    />
  </g>
</svg>
