<svg
  width="24"
  height="24"
  viewBox="0 0 24 24"
  fill="none"
  xmlns="http://www.w3.org/2000/svg"
>
  <g>
    <path
      d="M13 4.1V5C13 5.26522 12.8946 5.51957 12.7071 5.70711C12.5196 5.89464 12.2652 6 12 6C11.7348 6 11.4804 5.89464 11.2929 5.70711C11.1054 5.51957 11 5.26522 11 5V3C11 2.73478 11.1054 2.48043 11.2929 2.29289C11.4804 2.10536 11.7348 2 12 2C13.8565 2 15.637 2.7375 16.9497 4.05025C18.2625 5.36301 19 7.14348 19 9V15C19 16.8565 18.2625 18.637 16.9497 19.9497C15.637 21.2625 13.8565 22 12 22C10.1435 22 8.36301 21.2625 7.05025 19.9497C5.7375 18.637 5 16.8565 5 15V9C4.99918 7.90468 5.25577 6.8245 5.74908 5.84656C6.24239 4.86862 6.95862 4.0203 7.84 3.37C8.05342 3.21817 8.31789 3.15613 8.57657 3.19722C8.83524 3.2383 9.06747 3.37924 9.22334 3.58973C9.37921 3.80022 9.44628 4.06346 9.41012 4.32287C9.37397 4.58228 9.23748 4.81715 9.03 4.977C8.3998 5.44134 7.88768 6.04744 7.53503 6.74631C7.18238 7.44517 6.9991 8.2172 7 9V15C7 16.3261 7.52679 17.5979 8.46447 18.5355C9.40215 19.4732 10.6739 20 12 20C13.3261 20 14.5979 19.4732 15.5355 18.5355C16.4732 17.5979 17 16.3261 17 15V9C16.9999 7.84745 16.6017 6.7303 15.8729 5.83746C15.144 4.94463 14.1292 4.33088 13 4.1ZM11 8C11 7.73478 11.1054 7.48043 11.2929 7.29289C11.4804 7.10536 11.7348 7 12 7C12.2652 7 12.5196 7.10536 12.7071 7.29289C12.8946 7.48043 13 7.73478 13 8V10C13 10.2652 12.8946 10.5196 12.7071 10.7071C12.5196 10.8946 12.2652 11 12 11C11.7348 11 11.4804 10.8946 11.2929 10.7071C11.1054 10.5196 11 10.2652 11 10V8Z"
      fill="currentColor"
    />
  </g>
</svg>
