<svg
  width="24"
  height="24"
  viewBox="0 0 24 24"
  fill="none"
  xmlns="http://www.w3.org/2000/svg"
>
  <g>
    <path
      d="M10.07 22C9.87259 21.999 9.67987 21.9396 9.51615 21.8293C9.35243 21.7189 9.22504 21.5626 9.15002 21.38L2.08002 4.37999C2.00344 4.19788 1.98252 3.99716 2.01989 3.80317C2.05726 3.60918 2.15126 3.43061 2.29002 3.28999C2.43064 3.15123 2.60921 3.05723 2.8032 3.01986C2.99719 2.98248 3.19791 3.00341 3.38002 3.07999L20.38 10.15C20.5602 10.2338 20.7114 10.3695 20.8141 10.5396C20.9169 10.7098 20.9666 10.9067 20.957 11.1052C20.9473 11.3038 20.8787 11.4949 20.7599 11.6543C20.6411 11.8137 20.4775 11.934 20.29 12L13.37 14.35L11 21.29C10.9346 21.4838 10.8114 21.6529 10.6469 21.7745C10.4824 21.8961 10.2845 21.9644 10.08 21.97L10.07 22ZM4.86002 5.85999L10 18.14L11.66 13.26C11.7092 13.1134 11.7917 12.9803 11.901 12.8709C12.0103 12.7616 12.1435 12.6792 12.29 12.63L17.14 11L4.86002 5.85999Z"
      fill="currentColor"
    />
    <path
      d="M19 21C18.8684 21.0008 18.7379 20.9755 18.6161 20.9258C18.4943 20.876 18.3834 20.8027 18.29 20.71L12.29 14.71C12.1017 14.5217 11.9959 14.2663 11.9959 14C11.9959 13.7337 12.1017 13.4783 12.29 13.29C12.4783 13.1017 12.7337 12.9959 13 12.9959C13.2663 12.9959 13.5217 13.1017 13.71 13.29L19.71 19.29C19.8037 19.383 19.8781 19.4936 19.9289 19.6154C19.9797 19.7373 20.0058 19.868 20.0058 20C20.0058 20.132 19.9797 20.2627 19.9289 20.3846C19.8781 20.5064 19.8037 20.617 19.71 20.71C19.6166 20.8027 19.5057 20.876 19.3839 20.9258C19.2621 20.9755 19.1316 21.0008 19 21Z"
      fill="currentColor"
    />
  </g>
</svg>
