<svg
  width="24"
  height="24"
  viewBox="0 0 24 24"
  fill="none"
  xmlns="http://www.w3.org/2000/svg"
>
  <g>
    <path
      d="M16.293 4.293C16.4806 4.10553 16.7349 4.00021 17 4.00021C17.2652 4.00021 17.5195 4.10553 17.707 4.293L21.707 8.293C21.8945 8.48053 21.9998 8.73484 21.9998 9C21.9998 9.26516 21.8945 9.51947 21.707 9.707L17.707 13.707C17.5184 13.8892 17.2658 13.99 17.0036 13.9877C16.7414 13.9854 16.4906 13.8802 16.3052 13.6948C16.1198 13.5094 16.0146 13.2586 16.0124 12.9964C16.0101 12.7342 16.1109 12.4816 16.293 12.293L19.586 9L16.293 5.707C16.1056 5.51947 16.0002 5.26516 16.0002 5C16.0002 4.73484 16.1056 4.48053 16.293 4.293Z"
      fill="currentColor"
    />
    <path
      d="M8 10C6.93919 10.0001 5.92185 10.4215 5.17177 11.1717C4.42169 11.9218 4.00031 12.9392 4.00031 14C4.00031 15.0608 4.42169 16.0782 5.17177 16.8283C5.92185 17.5785 6.93919 17.9999 8 18H13C13.1313 18 13.2614 18.0258 13.3827 18.0761C13.5041 18.1263 13.6143 18.2 13.7072 18.2928C13.8001 18.3857 13.8738 18.4959 13.924 18.6173C13.9743 18.7386 14.0002 18.8687 14.0002 19C14.0002 19.1313 13.9743 19.2614 13.924 19.3827C13.8738 19.5041 13.8001 19.6143 13.7072 19.7072C13.6143 19.8 13.5041 19.8737 13.3827 19.9239C13.2614 19.9742 13.1313 20 13 20H8C6.4087 20 4.88258 19.3679 3.75736 18.2426C2.63214 17.1174 2 15.5913 2 14C2 12.4087 2.63214 10.8826 3.75736 9.75736C4.88258 8.63214 6.4087 8 8 8H21C21.2652 8 21.5196 8.10536 21.7071 8.29289C21.8946 8.48043 22 8.73478 22 9C22 9.26522 21.8946 9.51957 21.7071 9.70711C21.5196 9.89464 21.2652 10 21 10H8Z"
      fill="currentColor"
    />
  </g>
</svg>
