<svg
  width="24"
  height="24"
  viewBox="0 0 24 24"
  fill="none"
  xmlns="http://www.w3.org/2000/svg"
>
  <g>
    <path
      d="M12.6386 1.77358C13.2314 1.77358 13.712 2.25458 13.712 2.84795V7.63399C13.712 8.07901 14.0725 8.43978 14.5171 8.43978H19.6201C20.2129 8.43978 20.6935 8.92079 20.6935 9.51415V19.3396C20.6935 20.9714 19.3719 22.2941 17.7415 22.2941H6.20204C4.57169 22.2941 3.25006 20.9714 3.25006 19.3396V4.7281C3.25006 3.09636 4.57169 1.77358 6.20204 1.77358H12.6386ZM14.8432 1.7059C14.9539 1.7059 15.0602 1.74867 15.1401 1.82529L20.6176 7.07713C20.7889 7.24137 20.7948 7.51355 20.6308 7.6851C20.5908 7.72703 20.5426 7.76039 20.4893 7.78318C20.436 7.80597 20.3787 7.81772 20.3207 7.81772H15.1652C14.7503 7.81772 14.4139 7.48083 14.4139 7.06524V2.13589C14.4139 1.89842 14.6061 1.7059 14.8432 1.7059Z"
      fill="currentColor"
    />
  </g>
</svg>
