<svg
  width="24"
  height="24"
  viewBox="0 0 24 24"
  fill="none"
  xmlns="http://www.w3.org/2000/svg"
>
  <g>
    <path
      d="M12 5C7.455 5 3.546 7.687 2 11.5C3.546 15.313 7.455 18 12 18C16.545 18 20.455 15.313 22 11.5C20.455 7.687 16.545 5 12 5ZM12 15.833C9.455 15.833 7.455 13.927 7.455 11.5C7.455 9.073 9.455 7.167 12 7.167C14.546 7.167 16.545 9.073 16.545 11.5C16.545 13.927 14.546 15.833 12 15.833ZM12 8.9C10.455 8.9 9.273 10.027 9.273 11.5C9.273 12.973 10.455 14.1 12 14.1C13.546 14.1 14.727 12.973 14.727 11.5C14.727 10.027 13.547 8.9 12 8.9Z"
      fill="currentColor"
    />
  </g>
</svg>
