<svg
  width="24"
  height="24"
  viewBox="0 0 24 24"
  fill="none"
  xmlns="http://www.w3.org/2000/svg"
>
  <g>
    <path
      d="M8.32244 15.7269H12.6246C12.8094 15.3269 13.1053 14.988 13.4775 14.7501C13.8497 14.5123 14.2825 14.3855 14.7248 14.3848C15.6561 14.3848 16.4515 14.9352 16.8201 15.7269H18.0909C18.6244 15.7269 19.061 16.1614 19.061 16.6924C19.061 17.2234 18.6244 17.6579 18.0909 17.6579H16.8201C16.4515 18.4448 15.6512 19 14.7248 19C13.7936 19 12.9933 18.4497 12.6295 17.6579H8.3273C6.43083 17.6579 5 16.2338 5 14.3462C5 12.4586 6.42113 11.0345 8.32244 11.0345H15.7337C16.5631 11.0345 17.1209 10.4793 17.1209 9.65379C17.1209 8.82827 16.5631 8.2731 15.7337 8.2731H11.4315C11.0629 9.06483 10.2626 9.61517 9.33615 9.61517C8.40975 9.61517 7.60945 9.06483 7.24083 8.2731H5.97006C5.43653 8.2731 5 7.83862 5 7.30759C5 6.77655 5.43653 6.34207 5.97006 6.34207H7.24083C7.60945 5.55517 8.40975 5 9.33615 5C10.2626 5 11.0629 5.55034 11.4315 6.34207H15.7337C17.6301 6.34207 19.061 7.76621 19.061 9.65379C19.061 11.5414 17.6253 12.9655 15.7288 12.9655H8.32244C7.49305 12.9655 6.93526 13.5207 6.93526 14.3462C6.93526 15.1717 7.4882 15.7269 8.32244 15.7269Z"
      fill="currentColor"
    />
  </g>
</svg>
