<svg
  width="24"
  height="24"
  viewBox="0 0 24 24"
  fill="none"
  xmlns="http://www.w3.org/2000/svg"
>
  <g>
    <path
      fill-rule="evenodd"
      clip-rule="evenodd"
      d="M19.6385 6.4052L16.0659 2.84936C15.8358 2.62077 15.5239 2.49243 15.1988 2.49255H7.56655C6.84959 2.49255 6.2705 3.06893 6.2705 3.78254V18.2834C6.2705 18.994 6.84959 19.5734 7.56655 19.5734H18.704C19.4179 19.5734 20 18.997 20 18.2834V7.26824C19.9976 6.94455 19.8678 6.63471 19.6385 6.4052ZM5.65156 4.499V18.9577C5.65156 19.6702 6.22954 20.2513 6.94514 20.2513H17.7036V20.3338C17.7036 21.0494 17.1225 21.6274 16.41 21.6274H5.29382C4.57822 21.6274 4.00024 21.0464 4.00024 20.3338V5.79258C4.00024 5.07698 4.57822 4.499 5.29382 4.499H5.65156ZM17.3286 7.99998H9.67143C9.22381 7.99998 9 8.22379 9 8.67141V8.75713C9 9.20475 9.22381 9.42856 9.67143 9.42856H17.3286C17.7762 9.42856 18 9.20475 18 8.75713V8.67141C18 8.22379 17.7762 7.99998 17.3286 7.99998ZM17.3286 10.7286H9.67143C9.22381 10.7286 9 10.9524 9 11.4V11.4857C9 11.9333 9.22381 12.1571 9.67143 12.1571H17.3286C17.7762 12.1571 18 11.9333 18 11.4857V11.4C18 10.9524 17.7762 10.7286 17.3286 10.7286ZM9.67143 13.4571H14.3286C14.7762 13.4571 15 13.6809 15 14.1286V14.2143C15 14.6619 14.7762 14.8857 14.3286 14.8857H9.67143C9.22381 14.8857 9 14.6619 9 14.2143V14.1286C9 13.6809 9.22381 13.4571 9.67143 13.4571Z"
      fill="currentColor"
    />
  </g>
</svg>
