<svg
  width="24"
  height="24"
  viewBox="0 0 24 24"
  fill="none"
  xmlns="http://www.w3.org/2000/svg"
>
  <g>
    <path
      fill-rule="evenodd"
      clip-rule="evenodd"
      d="M16.0659 2.84936L19.6385 6.4052C19.8678 6.63471 19.9976 6.94455 20 7.26824V18.2834C20 18.997 19.4179 19.5734 18.704 19.5734H7.56655C6.84959 19.5734 6.2705 18.994 6.2705 18.2834V3.78254C6.2705 3.06893 6.84959 2.49255 7.56655 2.49255H15.1988C15.524 2.49243 15.8358 2.62076 16.0659 2.84936ZM13.5106 13.6907H10.7929C10.2659 13.6907 9.91659 13.34 9.91659 12.8185C9.91659 12.297 10.2689 11.9463 10.7929 11.9463H15.4715C16.6695 11.9463 17.5765 11.0467 17.5765 9.8543C17.5765 8.66191 16.6726 7.76227 15.4746 7.76227H12.7569C12.524 7.26214 12.0185 6.91448 11.4332 6.91448C10.848 6.91448 10.3425 7.26519 10.1096 7.76227H9.30687C8.96984 7.76227 8.69408 8.03674 8.69408 8.37219C8.69408 8.70765 8.96984 8.98211 9.30687 8.98211H10.1096C10.3425 9.48225 10.848 9.8299 11.4332 9.8299C12.0185 9.8299 12.524 9.48225 12.7569 8.98211H15.4746C15.9985 8.98211 16.3509 9.33282 16.3509 9.8543C16.3509 10.3758 15.9985 10.7265 15.4746 10.7265H10.7929C9.59182 10.7265 8.69408 11.6261 8.69408 12.8185C8.69408 14.0109 9.59794 14.9105 10.7959 14.9105H13.5137C13.7435 15.4107 14.249 15.7583 14.8373 15.7583C15.4225 15.7583 15.9281 15.4076 16.1609 14.9105H16.9637C17.3007 14.9105 17.5765 14.6361 17.5765 14.3006C17.5765 13.9652 17.3007 13.6907 16.9637 13.6907H16.1609C15.9281 13.1906 15.4256 12.8429 14.8373 12.8429C14.5579 12.8434 14.2845 12.9234 14.0494 13.0737C13.8143 13.2239 13.6273 13.438 13.5106 13.6907ZM5.65156 18.9577V4.499H5.29382C4.57822 4.499 4.00024 5.07698 4.00024 5.79258V20.3338C4.00024 21.0464 4.57822 21.6274 5.29382 21.6274H16.41C17.1225 21.6274 17.7036 21.0494 17.7036 20.3338V20.2513H6.94514C6.22954 20.2513 5.65156 19.6702 5.65156 18.9577Z"
      fill="currentColor"
    />
  </g>
</svg>
