<svg
  width="24"
  height="24"
  viewBox="0 0 24 24"
  fill="none"
  xmlns="http://www.w3.org/2000/svg"
>
  <g>
    <path
      d="M12.0141 2.48203C6.76174 2.48203 2.50549 6.73828 2.50549 11.9906C2.50549 17.243 6.76174 21.4992 12.0141 21.4992C17.2664 21.4992 21.5227 17.243 21.5227 11.9906C21.5227 6.73828 17.2641 2.48203 12.0141 2.48203ZM11.3293 6.95269C11.3293 6.75347 11.3996 6.58238 11.5403 6.43707C11.6809 6.29175 11.852 6.2191 12.0489 6.2191C12.2551 6.2191 12.4285 6.29175 12.5692 6.43707C12.7098 6.58238 12.7801 6.75347 12.7801 6.95269V11.3027C12.7801 11.5019 12.7098 11.6707 12.5692 11.8113C12.4285 11.9519 12.2551 12.0222 12.0489 12.0222C11.8496 12.0222 11.6809 11.9519 11.5403 11.8113C11.3996 11.6707 11.3293 11.4996 11.3293 11.3027V6.95269ZM16.7739 13.9886C16.502 14.6097 16.1364 15.1535 15.6746 15.6152C15.2129 16.0769 14.6715 16.4425 14.0481 16.7144C13.427 16.9863 12.759 17.1199 12.0512 17.1199C11.3481 17.1199 10.6871 16.9839 10.0637 16.7144C9.44261 16.4425 8.89886 16.0769 8.43245 15.6152C7.96605 15.1535 7.60042 14.6121 7.33323 13.9886C7.06605 13.3675 6.93245 12.6996 6.93245 11.9918C6.93245 11.5863 6.97933 11.1902 7.07542 10.8011C7.17151 10.4121 7.30511 10.0418 7.48089 9.69019C7.65667 9.33863 7.87464 9.0105 8.13245 8.70582C8.73714 7.998 9.3512 7.71441 9.54573 7.74488C9.74026 7.77535 9.89964 7.87144 10.0215 8.03082C10.1434 8.19019 10.1903 8.37066 10.1598 8.56988C10.1293 8.7691 10.0332 8.92847 9.87386 9.05035C9.39339 9.40191 9.02542 9.83316 8.76995 10.3441C8.51448 10.855 8.38558 11.4058 8.38558 11.9918C8.38558 12.4957 8.48167 12.9714 8.67151 13.4168C8.86136 13.8621 9.12386 14.2535 9.45667 14.5839C9.78948 14.9168 10.1785 15.1793 10.6239 15.3738C11.0715 15.5683 11.545 15.6668 12.0489 15.6668C12.5528 15.6668 13.0285 15.5707 13.4739 15.3738C13.9215 15.1793 14.3106 14.9168 14.641 14.5839C14.9739 14.2511 15.2364 13.8621 15.4309 13.4168C15.6254 12.9714 15.7239 12.4957 15.7239 11.9918C15.7239 11.3964 15.5856 10.8339 15.3114 10.3019C15.0371 9.77222 14.6504 9.33394 14.1559 8.99175C13.9871 8.87691 13.8864 8.71988 13.8512 8.523C13.816 8.32379 13.8559 8.14097 13.9707 7.97222C14.0856 7.81285 14.2426 7.71441 14.4395 7.67925C14.6387 7.6441 14.8215 7.68394 14.9903 7.79879C15.3325 8.04254 15.6395 8.3191 15.9067 8.62847C16.1739 8.93785 16.4035 9.27066 16.5934 9.62925C16.7832 9.98785 16.9285 10.3675 17.0293 10.7683C17.1231 11.1339 17.1793 11.5535 17.1793 11.9847V11.9871C17.1793 12.7019 17.0434 13.3675 16.7739 13.9886Z"
      fill="currentColor"
    />
  </g>
</svg>
