<svg
  width="24"
  height="24"
  viewBox="0 0 24 24"
  fill="none"
  xmlns="http://www.w3.org/2000/svg"
>
  <g>
    <path
      d="M7.70703 4.293C7.8945 4.48053 7.99982 4.73484 7.99982 5C7.99982 5.26516 7.8945 5.51947 7.70703 5.707L4.41403 9L7.70703 12.293C7.80254 12.3852 7.87872 12.4956 7.93113 12.6176C7.98354 12.7396 8.01113 12.8708 8.01228 13.0036C8.01343 13.1364 7.98813 13.2681 7.93785 13.391C7.88757 13.5139 7.81332 13.6255 7.71943 13.7194C7.62553 13.8133 7.51388 13.8875 7.39099 13.9378C7.26809 13.9881 7.13641 14.0134 7.00363 14.0123C6.87085 14.0111 6.73963 13.9835 6.61763 13.9311C6.49562 13.8787 6.38528 13.8025 6.29303 13.707L2.29303 9.707C2.10556 9.51947 2.00024 9.26516 2.00024 9C2.00024 8.73484 2.10556 8.48053 2.29303 8.293L6.29303 4.293C6.48056 4.10553 6.73487 4.00021 7.00003 4.00021C7.26519 4.00021 7.5195 4.10553 7.70703 4.293Z"
      fill="currentColor"
    />
    <path
      d="M2 9C2 8.73478 2.10536 8.48043 2.29289 8.29289C2.48043 8.10536 2.73478 8 3 8H16C17.5913 8 19.1174 8.63214 20.2426 9.75736C21.3679 10.8826 22 12.4087 22 14C22 15.5913 21.3679 17.1174 20.2426 18.2426C19.1174 19.3679 17.5913 20 16 20H11C10.8687 20 10.7386 19.9742 10.6173 19.9239C10.4959 19.8737 10.3857 19.8 10.2928 19.7072C10.1999 19.6143 10.1262 19.5041 10.076 19.3827C10.0257 19.2614 9.99985 19.1313 9.99985 19C9.99985 18.8687 10.0257 18.7386 10.076 18.6173C10.1262 18.4959 10.1999 18.3857 10.2928 18.2928C10.3857 18.2 10.4959 18.1263 10.6173 18.0761C10.7386 18.0258 10.8687 18 11 18H16C17.0608 17.9999 18.0782 17.5785 18.8282 16.8283C19.5783 16.0782 19.9997 15.0608 19.9997 14C19.9997 12.9392 19.5783 11.9218 18.8282 11.1717C18.0782 10.4215 17.0608 10.0001 16 10H3C2.73478 10 2.48043 9.89464 2.29289 9.70711C2.10536 9.51957 2 9.26522 2 9Z"
      fill="currentColor"
    />
  </g>
</svg>
