<svg
  width="24"
  height="24"
  viewBox="0 0 24 24"
  fill="none"
  xmlns="http://www.w3.org/2000/svg"
>
  <g>
    <path
      d="M20.0319 11.6582C20.0058 12.2897 19.9114 12.918 19.7487 13.543C19.5859 14.168 19.3385 14.7376 19.0065 15.252C18.681 15.7663 18.261 16.1764 17.7467 16.4824C17.2324 16.7884 16.6139 16.9414 15.8913 16.9414C15.4551 16.9414 15.0677 16.8665 14.7291 16.7168C14.3906 16.5605 14.1074 16.3392 13.8795 16.0527C13.6582 15.7663 13.4987 15.4212 13.401 15.0176C13.3034 14.6074 13.2773 14.1517 13.3229 13.6504L13.8209 8.11328H15.5299L15.0416 13.6504C15.0026 14.0475 15.0091 14.373 15.0612 14.627C15.1198 14.8809 15.2077 15.0762 15.3248 15.2129C15.442 15.3496 15.5755 15.444 15.7252 15.4961C15.875 15.5482 16.0247 15.5742 16.1745 15.5742C16.526 15.5742 16.8418 15.4766 17.1217 15.2812C17.4017 15.0794 17.6393 14.8027 17.8346 14.4512C18.0364 14.0931 18.1927 13.6797 18.3034 13.2109C18.4206 12.7422 18.4889 12.2344 18.5084 11.6875C18.554 10.776 18.5117 9.9362 18.3815 9.16797C18.2513 8.39323 18.0299 7.70312 17.7174 7.09766C17.4114 6.49219 17.011 5.98112 16.5163 5.56445C16.028 5.14128 15.442 4.81901 14.7584 4.59766C14.0748 4.3763 13.2936 4.26562 12.4147 4.26562C11.6074 4.26562 10.862 4.38932 10.1784 4.63672C9.49477 4.88411 8.88279 5.24219 8.34243 5.71094C7.80206 6.17318 7.33657 6.72982 6.94594 7.38086C6.56183 8.02539 6.25909 8.7513 6.03774 9.55859C5.8229 10.3594 5.69594 11.2188 5.65688 12.1367C5.61131 13.1003 5.66013 13.9792 5.80336 14.7734C5.9531 15.5677 6.19399 16.2708 6.52602 16.8828C6.85805 17.4948 7.27472 18.0091 7.77602 18.4258C8.28383 18.849 8.86977 19.168 9.53383 19.3828C10.2044 19.5977 10.9466 19.7051 11.7604 19.7051C12.3333 19.7051 12.9127 19.64 13.4987 19.5098C14.0911 19.3796 14.5892 19.207 14.9928 18.9922L15.3639 20.291C14.9082 20.584 14.3385 20.8021 13.6549 20.9453C12.9713 21.0885 12.3268 21.1602 11.7213 21.1602C10.7122 21.1602 9.78774 21.0299 8.9479 20.7695C8.11456 20.5091 7.37563 20.125 6.7311 19.6172C6.09308 19.1159 5.56248 18.5007 5.1393 17.7715C4.71612 17.0423 4.40362 16.2057 4.2018 15.2617C3.99998 14.3177 3.92185 13.276 3.96743 12.1367C4.013 11.069 4.17576 10.0664 4.45571 9.12891C4.73566 8.1849 5.11977 7.32878 5.60805 6.56055C6.10284 5.79232 6.68878 5.13151 7.36586 4.57812C8.04946 4.01823 8.81769 3.58854 9.67055 3.28906C10.5234 2.98958 11.4512 2.83984 12.4538 2.83984C13.4694 2.83984 14.3873 2.97331 15.2077 3.24023C16.028 3.50716 16.7474 3.89453 17.3659 4.40234C17.9909 4.91016 18.5084 5.52539 18.9186 6.24805C19.3288 6.9707 19.6282 7.78776 19.817 8.69922C20.0058 9.60417 20.0775 10.5905 20.0319 11.6582ZM10.1002 12.5859C10.0547 13.0286 10.0514 13.4225 10.0905 13.7676C10.136 14.1126 10.2174 14.4023 10.3346 14.6367C10.4583 14.8711 10.6178 15.0501 10.8131 15.1738C11.0084 15.2975 11.2363 15.3594 11.4967 15.3594C11.6595 15.3594 11.832 15.3203 12.0143 15.2422C12.2031 15.1576 12.3886 15.0241 12.5709 14.8418C12.7532 14.6595 12.9258 14.4186 13.0885 14.1191C13.2513 13.8132 13.388 13.4355 13.4987 12.9863L14.2409 13.8359C14.0911 14.3438 13.9023 14.793 13.6745 15.1836C13.4466 15.5677 13.1894 15.89 12.903 16.1504C12.6165 16.4043 12.3073 16.5996 11.9752 16.7363C11.6432 16.8665 11.2982 16.9316 10.9401 16.9316C10.4648 16.9316 10.0416 16.8275 9.67055 16.6191C9.30597 16.4108 9.00649 16.1178 8.77211 15.7402C8.53774 15.3561 8.37172 14.9004 8.27407 14.373C8.17641 13.8392 8.15688 13.2435 8.21547 12.5859C8.28058 11.9154 8.40428 11.2936 8.58657 10.7207C8.77537 10.1478 9.00649 9.63672 9.27993 9.1875C9.55987 8.73828 9.87563 8.35742 10.2272 8.04492C10.5788 7.72591 10.9564 7.48503 11.36 7.32227C11.7702 7.15299 12.1901 7.06836 12.6198 7.06836C13.3554 7.06836 13.9316 7.17253 14.3483 7.38086C14.765 7.58919 15.1588 7.83333 15.5299 8.11328L14.612 9.28516C14.4232 9.10938 14.1758 8.94336 13.8698 8.78711C13.5703 8.63086 13.2122 8.55273 12.7956 8.55273C12.4245 8.55273 12.0859 8.63737 11.7799 8.80664C11.4804 8.97591 11.2168 9.23307 10.9889 9.57812C10.761 9.91667 10.569 10.3366 10.4127 10.8379C10.263 11.3392 10.1588 11.9219 10.1002 12.5859Z"
      fill="currentColor"
    />
  </g>
</svg>
