<svg
  xmlns="http://www.w3.org/2000/svg"
  viewBox="0 0 256 256"
  role="img"
  aria-label="YCloud"
>
  <circle
    cx="128"
    cy="128"
    r="104"
    fill="#1a1e22"
  />
  <circle
    cx="24"
    cy="128"
    r="28"
    fill="#1a1e22"
  />
  <circle
    cx="232"
    cy="128"
    r="28"
    fill="#1a1e22"
  />
  <path
    fill="#fff"
    d="M74 91c10-12 28-17 43-8l11 7 11-7c15-9 33-4 43 8 11 13 9 32-4 43l-26 22v38c0 13-11 24-24 24s-24-11-24-24v-38l-26-22c-13-11-15-30-4-43Z"
  />
  <circle
    cx="88"
    cy="116"
    r="16"
    fill="#1a1e22"
  />
  <circle
    cx="168"
    cy="116"
    r="16"
    fill="#1a1e22"
  />
  <circle
    cx="128"
    cy="148"
    r="11"
    fill="#1a1e22"
  />
</svg>
