<svg
  width="24"
  height="24"
  viewBox="0 0 24 24"
  fill="none"
  xmlns="http://www.w3.org/2000/svg"
>
  <g>
    <path
      d="M15.4687 8.8031V18.5883H13.8187V3.6117C13.8187 3.36326 13.5844 3.18279 13.3453 3.24607L4.03124 5.66482C3.86484 5.70701 3.74765 5.85935 3.74765 6.03045V19.8609C3.74765 20.0695 3.9164 20.2383 4.12499 20.2383H19.9101C20.1187 20.2383 20.2875 20.0695 20.2875 19.8609V9.67029C20.2875 9.49217 20.1633 9.33748 19.9875 9.29998L15.9258 8.43279C15.6914 8.38357 15.4687 8.5617 15.4687 8.8031ZM11.8594 14.2453C11.8594 14.4515 11.693 14.6179 11.4867 14.6179H6.51328C6.30703 14.6179 6.14062 14.4515 6.14062 14.2453V13.3406C6.14062 13.1344 6.30703 12.9679 6.51328 12.9679H11.4867C11.693 12.9679 11.8594 13.1344 11.8594 13.3406V14.2453ZM11.8594 9.67264C11.8594 9.87889 11.693 10.0453 11.4867 10.0453H6.51328C6.30703 10.0453 6.14062 9.87889 6.14062 9.67264V8.76795C6.14062 8.5617 6.30703 8.39529 6.51328 8.39529H11.4867C11.693 8.39529 11.8594 8.5617 11.8594 8.76795V9.67264Z"
      fill="currentColor"
    />
  </g>
</svg>
