<svg
  width="24"
  height="24"
  viewBox="0 0 24 24"
  fill="none"
  xmlns="http://www.w3.org/2000/svg"
>
  <g>
    <path
      d="M15.6329 9.30618C15.3338 8.9644 14.7784 8.92168 14.4367 9.22074C12.7705 10.6306 11.2324 10.6306 9.56622 9.22074C9.22444 8.92168 8.66904 8.9644 8.36998 9.30618C8.07092 9.64797 8.11364 10.2034 8.45542 10.5024C10.7625 12.4677 13.1977 12.4677 15.5047 10.5024C15.8892 10.2034 15.932 9.64797 15.6329 9.30618ZM17.3845 3.45312C17.9827 3.45312 18.4953 3.75219 18.8371 4.22214L18.8799 4.30759L21.6141 9.17801C21.9559 9.77614 21.8705 10.5452 21.4432 11.1006L21.4005 11.186L13.2831 19.9869C13.2404 20.0297 13.2404 20.0724 13.1977 20.0724C12.5141 20.6705 11.4888 20.6705 10.8479 20.0297L10.7625 19.9442L2.64509 11.1433C2.17513 10.6306 2.04696 9.86158 2.38875 9.22074L2.43147 9.13529L5.12303 4.30759C5.42209 3.79491 5.93476 3.45312 6.49016 3.45312H17.3845Z"
      fill="currentColor"
    />
  </g>
</svg>
