<svg
  width="24"
  height="24"
  viewBox="0 0 24 24"
  fill="none"
  xmlns="http://www.w3.org/2000/svg"
>
  <g>
    <path
      d="M9.92416 6.33013C9.71563 6.16038 9.41027 6.18469 9.24052 6.39301C9.1678 6.4802 9.1242 6.59652 9.12902 6.70821V8.90939C8.04782 8.98694 2.58837 10.9555 3.02471 17.8694C4.30479 15.4985 6.06461 12.9626 9.1242 12.7251V15.3094C9.1242 15.5762 9.33755 15.7992 9.60413 15.7992C9.72527 15.7992 9.84661 15.7556 9.9338 15.673L14.7968 11.2172C15.0005 11.0427 15.0294 10.7373 14.8551 10.5336C14.8356 10.5141 14.8163 10.49 14.7968 10.4753L9.92416 6.33013ZM19.4806 17.5012C19.4031 17.6273 19.2769 17.7145 19.1363 17.7436H19.02C18.9133 17.7436 18.8066 17.7145 18.7144 17.6565L18.4768 17.4963C18.2391 17.3314 18.1712 17.0116 18.3265 16.7691C20.0381 13.7824 20.0381 10.1121 18.3265 7.12547C18.1762 6.87335 18.2441 6.5485 18.4864 6.37875L18.724 6.22366C18.9762 6.05391 19.3205 6.12181 19.4852 6.37393C19.4852 6.37875 19.4901 6.37875 19.4901 6.38357C21.5072 9.82104 21.5024 14.0731 19.4806 17.5012ZM16.8963 15.5423C16.8091 15.6634 16.683 15.7409 16.5375 15.7652H16.4503C16.3292 15.7652 16.2127 15.7265 16.1159 15.6538L15.8929 15.484C15.6602 15.3046 15.6068 14.9798 15.7766 14.7373C16.916 13.0403 16.916 10.8245 15.7766 9.12756C15.6116 8.88991 15.6602 8.56024 15.8929 8.38084L16.1159 8.21109C16.3485 8.02205 16.688 8.06082 16.877 8.29346C16.8867 8.3031 16.8965 8.31776 16.9014 8.32741C18.3751 10.5095 18.3751 13.3654 16.8963 15.5423Z"
      fill="currentColor"
    />
  </g>
</svg>
