<svg width="24" height="24" viewBox="0 0 24 24" fill="none" xmlns="http://www.w3.org/2000/svg">
  <g>
  <path d="M13.5732 6.30176C15.2345 6.2498 16.8539 6.83342 18.1006 7.93262C19.3473 9.03226 20.1281 10.5668 20.2842 12.2217C20.4345 13.8178 19.9908 15.4099 19.0449 16.6992L22.4502 20.1025C22.6363 20.2889 22.7402 20.542 22.7402 20.8047L22.7354 20.9023C22.713 21.1294 22.6134 21.3436 22.4502 21.5068C22.2871 21.6699 22.0723 21.7705 21.8447 21.793L21.7471 21.7979C21.4841 21.7976 21.231 21.6929 21.0449 21.5068L17.6426 18.1016C16.3532 19.0475 14.7603 19.4922 13.1641 19.3418C11.5092 19.1856 9.97545 18.4037 8.87598 17.1572C7.77678 15.9105 7.19316 14.2912 7.24512 12.6299C7.29732 10.9684 7.98079 9.38836 9.15625 8.21289C10.3317 7.03745 11.9117 6.35391 13.5732 6.30176ZM13.7773 8.28223C12.5702 8.28228 11.4121 8.76175 10.5586 9.61523C9.70508 10.4688 9.22566 11.6269 9.22559 12.834C9.22559 14.0411 9.70512 15.1991 10.5586 16.0527C11.4121 16.9063 12.5702 17.3857 13.7773 17.3857C14.375 17.3857 14.9674 17.2687 15.5195 17.04C16.0717 16.8113 16.5735 16.4753 16.9961 16.0527C17.4185 15.6303 17.7536 15.1285 17.9824 14.5762C18.2112 14.0238 18.3291 13.4316 18.3291 12.834C18.3291 12.2365 18.2112 11.6441 17.9824 11.0918C17.7536 10.5396 17.4185 10.0376 16.9961 9.61523C16.5737 9.19288 16.0717 8.85768 15.5195 8.62891C15.0362 8.42875 14.5222 8.31288 14.001 8.28711L13.7773 8.28223ZM7.45801 8.125C7.10995 8.56245 6.80502 9.05145 6.55371 9.58496L6.5 9.7002H3.11133C2.88159 9.7002 2.671 9.58735 2.52344 9.40625C2.37709 9.22638 2.2998 8.98986 2.2998 8.75C2.2998 8.51014 2.37709 8.27362 2.52344 8.09375C2.671 7.91265 2.88159 7.7998 3.11133 7.7998H7.7168L7.45801 8.125ZM12.8887 3.2998C13.1184 3.2998 13.329 3.41265 13.4766 3.59375C13.6229 3.77362 13.7002 4.01014 13.7002 4.25C13.7002 4.48986 13.6229 4.72638 13.4766 4.90625C13.329 5.08735 13.1184 5.2002 12.8887 5.2002H3.11133C2.88159 5.2002 2.671 5.08735 2.52344 4.90625C2.37709 4.72638 2.2998 4.48986 2.2998 4.25C2.2998 4.01014 2.37709 3.77362 2.52344 3.59375C2.671 3.41265 2.88159 3.2998 3.11133 3.2998H12.8887Z" fill="currentColor" />
  </g>
  </svg>
