<svg
  width="24"
  height="24"
  viewBox="0 0 24 24"
  fill="none"
  xmlns="http://www.w3.org/2000/svg"
>
  <g>
    <g>
      <path
        fill-rule="evenodd"
        clip-rule="evenodd"
        d="M12.9277 4.87155C12.9277 5.28914 12.6766 5.64808 12.3171 5.80559V6.61832V6.61885H13.0781C13.4636 6.61885 13.7762 6.93138 13.7762 7.31691L13.7761 7.32521H15.0987C17.6417 7.32521 19.7032 9.38671 19.7032 11.9297V16.4642C19.7032 18.4986 18.054 20.1478 16.0196 20.1478H7.88346C5.84907 20.1478 4.19986 18.4986 4.19986 16.4642V11.9297C4.19986 9.38671 6.26137 7.32521 8.80436 7.32521H10.0399L10.0399 7.31691C10.0399 6.93138 10.3524 6.61885 10.7379 6.61885H11.4999V6.61832V5.80566C11.1403 5.64819 10.8891 5.28921 10.8891 4.87155C10.8891 4.30861 11.3455 3.85226 11.9084 3.85226C12.4713 3.85226 12.9277 4.30861 12.9277 4.87155ZM3.10224 11.0202C3.43491 11.0202 3.70458 11.2899 3.70458 11.6225V14.3252C3.70458 14.6578 3.43491 14.9275 3.10224 14.9275C2.76958 14.9275 2.49991 14.6578 2.49991 14.3252V11.6225C2.49991 11.2899 2.76958 11.0202 3.10224 11.0202ZM21.4999 11.6225C21.4999 11.2899 21.2302 11.0202 20.8976 11.0202C20.5649 11.0202 20.2952 11.2899 20.2952 11.6225V14.3252C20.2952 14.6578 20.5649 14.9275 20.8976 14.9275C21.2302 14.9275 21.4999 14.6578 21.4999 14.3252V11.6225Z"
        fill="currentColor"
      />
      <path
        fill-rule="evenodd"
        clip-rule="evenodd"
        d="M15.561 15.2522C16.675 15.2522 17.534 14.271 17.3866 13.1668L17.15 11.3944C17.0279 10.4794 16.2474 9.7962 15.3244 9.7962H8.68901C7.77097 9.7962 6.99311 10.4723 6.86518 11.3813L6.61575 13.1538C6.45978 14.2621 7.3203 15.2522 8.43958 15.2522L15.561 15.2522Z"
        fill="currentColor"
      />
      <circle cx="9.19623" cy="12.3744" r="0.9209" fill="currentColor" />
      <circle cx="14.5488" cy="12.3744" r="0.9209" fill="currentColor" />
    </g>
  </g>
</svg>
