<svg
  width="24"
  height="24"
  viewBox="0 0 24 24"
  fill="none"
  xmlns="http://www.w3.org/2000/svg"
>
  <g>
    <path
      d="M17.6256 15C17.975 14.9925 18.3225 15.0549 18.6475 15.1835C18.9725 15.312 19.2686 15.5042 19.5184 15.7487C19.7681 15.9932 19.9666 16.2851 20.1021 16.6073C20.2375 16.9295 20.3073 17.2755 20.3073 17.625C20.3073 17.9745 20.2375 18.3205 20.1021 18.6427C19.9666 18.9649 19.7681 19.2568 19.5184 19.5013C19.2686 19.7458 18.9725 19.938 18.6475 20.0665C18.3225 20.1951 17.975 20.2575 17.6256 20.25C16.9391 20.2353 16.2857 19.9523 15.8054 19.4616C15.3251 18.9709 15.0561 18.3116 15.0561 17.625C15.0561 16.9384 15.3251 16.279 15.8054 15.7884C16.2857 15.2977 16.9391 15.0147 17.6256 15ZM6.37559 15C6.72504 14.9925 7.07245 15.0549 7.39747 15.1835C7.72249 15.312 8.01857 15.5042 8.26835 15.7487C8.51813 15.9932 8.71658 16.2851 8.85206 16.6073C8.98754 16.9295 9.05732 17.2755 9.05732 17.625C9.05732 17.9745 8.98754 18.3205 8.85206 18.6427C8.71658 18.9649 8.51813 19.2568 8.26835 19.5013C8.01857 19.7458 7.72249 19.938 7.39747 20.0665C7.07245 20.1951 6.72504 20.2575 6.37559 20.25C5.68912 20.2353 5.03571 19.9523 4.5554 19.4616C4.0751 18.9709 3.80612 18.3116 3.80612 17.625C3.80612 16.9384 4.0751 16.279 4.5554 15.7884C5.03571 15.2977 5.68912 15.0147 6.37559 15Z"
      fill="currentColor"
    />
    <path
      d="M6.3756 19.65C5.83854 19.65 5.32347 19.4367 4.94371 19.0569C4.56395 18.6771 4.3506 18.1621 4.3506 17.625C4.3506 17.0879 4.56395 16.5729 4.94371 16.1931C5.32347 15.8134 5.83854 15.6 6.3756 15.6C6.91266 15.6 7.42773 15.8134 7.80749 16.1931C8.18725 16.5729 8.4006 17.0879 8.4006 17.625C8.4006 18.1621 8.18725 18.6771 7.80749 19.0569C7.42773 19.4367 6.91266 19.65 6.3756 19.65ZM6.9756 14.4552C7.7649 14.6046 8.47004 15.0432 8.95304 15.6851C9.43604 16.327 9.66214 17.126 9.5871 17.9258C9.51205 18.7256 9.14127 19.4687 8.5473 20.0095C7.95333 20.5504 7.17892 20.8501 6.3756 20.8501C5.57228 20.8501 4.79787 20.5504 4.2039 20.0095C3.60993 19.4687 3.23915 18.7256 3.16411 17.9258C3.08906 17.126 3.31516 16.327 3.79816 15.6851C4.28116 15.0432 4.9863 14.6046 5.7756 14.4552V14.25C5.7756 13.4941 6.07587 12.7692 6.61035 12.2348C7.14483 11.7003 7.86973 11.4 8.6256 11.4H11.4V9.54481C10.6107 9.39538 9.90556 8.95681 9.42256 8.31491C8.93956 7.67302 8.71346 6.87399 8.78851 6.07418C8.86355 5.27438 9.23433 4.53136 9.8283 3.9905C10.4223 3.44965 11.1967 3.1499 12 3.1499C12.8033 3.1499 13.5777 3.44965 14.1717 3.9905C14.7657 4.53136 15.1365 5.27438 15.2115 6.07418C15.2865 6.87399 15.0604 7.67302 14.5774 8.31491C14.0944 8.95681 13.3893 9.39538 12.6 9.54481V11.4H15.3756C16.1313 11.4003 16.8559 11.7007 17.3901 12.2352C17.9243 12.7696 18.2244 13.4943 18.2244 14.25V14.4552C19.0137 14.6046 19.7188 15.0432 20.2018 15.6851C20.6848 16.327 20.9109 17.126 20.8359 17.9258C20.7609 18.7256 20.3901 19.4687 19.7961 20.0095C19.2021 20.5504 18.4277 20.8501 17.6244 20.8501C16.8211 20.8501 16.0467 20.5504 15.4527 20.0095C14.8587 19.4687 14.4879 18.7256 14.4129 17.9258C14.3379 17.126 14.564 16.327 15.047 15.6851C15.53 15.0432 16.2351 14.6046 17.0244 14.4552V14.2512C17.0246 14.0345 16.982 13.8199 16.8993 13.6197C16.8165 13.4194 16.6951 13.2375 16.542 13.0841C16.3889 12.9308 16.2071 12.8091 16.0069 12.7261C15.8068 12.643 15.5923 12.6002 15.3756 12.6H8.6256C8.18799 12.6 7.76831 12.7738 7.45887 13.0833C7.14944 13.3927 6.9756 13.8124 6.9756 14.25V14.4552ZM17.6256 15.6C18.1627 15.6 18.6777 15.8134 19.0575 16.1931C19.4373 16.5729 19.6506 17.0879 19.6506 17.625C19.6506 18.1621 19.4373 18.6771 19.0575 19.0569C18.6777 19.4367 18.1627 19.65 17.6256 19.65C17.0885 19.65 16.5735 19.4367 16.1937 19.0569C15.8139 18.6771 15.6006 18.1621 15.6006 17.625C15.6006 17.0879 15.8139 16.5729 16.1937 16.1931C16.5735 15.8134 17.0885 15.6 17.6256 15.6ZM9.9732 6.37441C9.9732 6.91163 10.1866 7.42685 10.5665 7.80672C10.9464 8.1866 11.4616 8.40001 11.9988 8.40001C12.536 8.40001 13.0512 8.1866 13.4311 7.80672C13.811 7.42685 14.0244 6.91163 14.0244 6.37441C14.0244 5.83718 13.811 5.32197 13.4311 4.94209C13.0512 4.56222 12.536 4.34881 11.9988 4.34881C11.4616 4.34881 10.9464 4.56222 10.5665 4.94209C10.1866 5.32197 9.9732 5.83718 9.9732 6.37441Z"
      fill="currentColor"
    />
  </g>
</svg>
