<svg
  width="20"
  height="20"
  viewBox="0 0 20 20"
  fill="none"
  xmlns="http://www.w3.org/2000/svg"
>
  <g>
    <path
      d="M12.5205 2.07861H4.59907C3.80693 2.07861 3.15881 2.72673 3.15881 3.51887V12.8805C3.15881 13.2766 3.48287 13.6006 3.87894 13.6006C4.27501 13.6006 4.59907 13.2766 4.59907 12.8805V4.23899C4.59907 3.84292 4.92312 3.51887 5.31919 3.51887H12.5205C12.9165 3.51887 13.2406 3.19481 13.2406 2.79874C13.2406 2.40267 12.9165 2.07861 12.5205 2.07861ZM15.401 4.95912H7.47957C6.68743 4.95912 6.03932 5.60723 6.03932 6.39937V16.4811C6.03932 17.2733 6.68743 17.9214 7.47957 17.9214H15.401C16.1931 17.9214 16.8412 17.2733 16.8412 16.4811V6.39937C16.8412 5.60723 16.1931 4.95912 15.401 4.95912ZM14.6808 16.4811H8.1997C7.80363 16.4811 7.47957 16.1571 7.47957 15.761V7.1195C7.47957 6.72343 7.80363 6.39937 8.1997 6.39937H14.6808C15.0769 6.39937 15.401 6.72343 15.401 7.1195V15.761C15.401 16.1571 15.0769 16.4811 14.6808 16.4811Z"
      fill="currentColor"
    />
  </g>
</svg>
