<svg
  width="24"
  height="24"
  viewBox="0 0 24 24"
  fill="none"
  xmlns="http://www.w3.org/2000/svg"
>
  <g>
    <path
      d="M16.5477 3.25629C17.8378 3.25637 18.8834 4.30214 18.8836 5.59222V12.062C18.5984 12.004 18.3048 11.9713 18.0057 11.9721C16.3711 11.9727 14.8742 12.8906 14.1307 14.3481C13.5307 15.5244 13.5033 16.8924 14.0184 18.0737H8.04179L5.62871 20.142C5.34857 20.3819 4.91399 20.2236 4.85332 19.8598L4.55547 18.0737C3.32279 18.0735 2.32309 17.0739 2.32304 15.8412V5.59222C2.32324 4.30229 3.36907 3.2566 4.65898 3.25629H16.5477ZM18.0066 12.6987C19.5613 12.6944 20.9461 13.6827 21.449 15.1557C21.9519 16.6286 21.4612 18.2589 20.2293 19.2084C18.9974 20.1579 17.2982 20.2155 16.0047 19.352L14.9705 19.686C14.905 19.7057 14.8341 19.6878 14.7859 19.6391C14.7369 19.591 14.7195 19.5185 14.742 19.4536L15.0691 18.4584C14.2708 17.3531 14.1575 15.8929 14.7771 14.6782C15.3968 13.4635 16.6444 12.6991 18.0066 12.6987ZM16.6033 14.3618C16.4705 14.3592 16.3408 14.4059 16.24 14.4926C15.998 14.7223 15.8663 15.0456 15.8777 15.3793C15.9136 15.7764 16.0636 16.1545 16.3094 16.4682C16.7575 17.1561 17.3844 17.7093 18.1228 18.0668C18.9533 18.4118 19.2038 18.3792 19.3924 18.3393C19.6996 18.2885 19.967 18.0993 20.118 17.8266C20.1725 17.6665 20.1813 17.4943 20.1434 17.3295C20.118 17.286 20.049 17.2563 19.9402 17.2055C19.8315 17.1547 19.3131 16.8977 19.2146 16.8647C19.1209 16.8194 19.0076 16.8522 18.9529 16.9409C18.8665 17.0676 18.7725 17.1893 18.6707 17.3041C18.6029 17.3692 18.5013 17.3851 18.4168 17.3442C18.102 17.2242 17.8126 17.0448 17.5643 16.8168C17.3345 16.6045 17.1362 16.3603 16.9764 16.0912C16.9286 16.0154 16.948 15.9147 17.0203 15.8618C17.0709 15.7966 17.125 15.7494 17.1756 15.6879C17.2237 15.6388 17.2646 15.5823 17.2957 15.5209C17.3231 15.4567 17.3159 15.3828 17.2771 15.3246C17.2517 15.2664 17.0276 14.7188 16.9549 14.5405C16.8823 14.3625 16.8276 14.3618 16.7225 14.3618H16.6033ZM6.46367 11.9721C6.10274 11.9722 5.80937 12.2654 5.80937 12.6264C5.80955 12.9872 6.10285 13.2796 6.46367 13.2797H10.3855C10.7464 13.2797 11.0387 12.9873 11.0389 12.6264C11.0389 12.2654 10.7466 11.9721 10.3855 11.9721H6.46367ZM6.46367 9.35785C6.10279 9.35797 5.80946 9.65029 5.80937 10.0112C5.80941 10.3721 6.10276 10.6653 6.46367 10.6655H14.7439C15.1048 10.6653 15.3972 10.372 15.3973 10.0112C15.3972 9.65033 15.1048 9.35805 14.7439 9.35785H6.46367ZM6.46367 6.74261C6.10274 6.74274 5.80937 7.03595 5.80937 7.39691C5.80966 7.75762 6.10292 8.05011 6.46367 8.05023H14.7439C15.1046 8.05003 15.397 7.75758 15.3973 7.39691C15.3973 7.036 15.1048 6.74281 14.7439 6.74261H6.46367Z"
      fill="currentColor"
    />
  </g>
</svg>
