<svg
  width="24"
  height="24"
  viewBox="0 0 24 24"
  fill="none"
  xmlns="http://www.w3.org/2000/svg"
>
  <g>
    <path
      fill-rule="evenodd"
      clip-rule="evenodd"
      d="M7.27543 17.1504C7.40189 17.2585 7.56324 17.3172 7.72963 17.3155H7.81221C7.90679 17.304 7.99812 17.2737 8.08084 17.2265C8.16356 17.1792 8.23601 17.1159 8.29394 17.0402L15.396 7.84616C15.4531 7.77122 15.4948 7.68574 15.5188 7.59463C15.5428 7.50351 15.5486 7.40856 15.5358 7.31521C15.523 7.22186 15.4919 7.13195 15.4443 7.05065C15.3967 6.96934 15.3335 6.89824 15.2583 6.84142C15.185 6.78177 15.1003 6.73756 15.0095 6.71142C14.9186 6.68529 14.8234 6.67779 14.7296 6.68936C14.6357 6.70093 14.5452 6.73133 14.4634 6.77875C14.3816 6.82616 14.3102 6.88961 14.2536 6.96529L7.61952 15.5951L4.16486 12.746C4.0941 12.683 4.01109 12.6352 3.92102 12.6058C3.83096 12.5764 3.73578 12.5658 3.64146 12.5749C3.54713 12.5839 3.45569 12.6123 3.37287 12.6584C3.29004 12.7044 3.21761 12.767 3.16012 12.8424C3.1015 12.9125 3.05744 12.9936 3.03052 13.081C3.0036 13.1683 2.99435 13.2602 3.00332 13.3512C3.01229 13.4421 3.03929 13.5304 3.08276 13.6108C3.12622 13.6913 3.18527 13.7622 3.25646 13.8196L7.27543 17.1504ZM12.7279 17.0412C12.8488 17.1495 13.006 17.2085 13.1684 17.2063L13.251 17.2476C13.3469 17.2413 13.4401 17.2133 13.5236 17.1656C13.607 17.1179 13.6786 17.0518 13.7327 16.9723L20.8485 7.84708C20.9063 7.77297 20.949 7.6882 20.9741 7.5976C20.9991 7.507 21.0061 7.41235 20.9946 7.31905C20.9831 7.22575 20.9534 7.13563 20.907 7.05384C20.8607 6.97204 20.7987 6.90017 20.7246 6.84233C20.6505 6.7845 20.5657 6.74182 20.4751 6.71674C20.3845 6.69167 20.2899 6.68468 20.1966 6.69618C20.1033 6.70768 20.0132 6.73745 19.9314 6.78378C19.8496 6.83011 19.7777 6.8921 19.7199 6.96621L13.0996 15.4721L12.2462 14.7977C12.0983 14.6793 11.9094 14.6244 11.7211 14.6451C11.5327 14.6657 11.3603 14.7602 11.2415 14.9078C11.1223 15.058 11.0671 15.249 11.0877 15.4396C11.1083 15.6302 11.2031 15.8051 11.3516 15.9263L12.7279 17.0412Z"
      fill="currentColor"
    />
  </g>
</svg>
