<svg
  width="24"
  height="24"
  viewBox="0 0 24 24"
  fill="none"
  xmlns="http://www.w3.org/2000/svg"
>
  <g>
    <path
      d="M11.9863 3.01099C10.3305 3.01151 8.70697 3.46938 7.29486 4.33411C5.88275 5.19883 4.73692 6.4368 3.98379 7.91146C3.23066 9.38611 2.89948 11.0401 3.0268 12.6911C3.15411 14.342 3.73497 15.9257 4.70529 17.2675L3.89629 19.7304C3.86904 19.8092 3.86471 19.8941 3.8838 19.9753C3.9029 20.0564 3.94463 20.1305 4.00415 20.1889C4.06272 20.2482 4.13636 20.2904 4.21713 20.311C4.29791 20.3316 4.38277 20.3298 4.46259 20.3057L7.02444 19.4787C8.19284 20.2578 9.52753 20.7523 10.9215 20.9226C12.3155 21.0928 13.7299 20.9341 15.0515 20.4591C16.373 19.9841 17.5649 19.2061 18.5316 18.1875C19.4983 17.1688 20.2128 15.9378 20.618 14.5932C21.0231 13.2486 21.1076 11.8278 20.8646 10.4446C20.6216 9.06147 20.058 7.75449 19.2188 6.62847C18.3796 5.50245 17.2883 4.58871 16.0323 3.9605C14.7764 3.33229 13.3907 3.0071 11.9863 3.01099ZM17.2179 15.7034C17.0332 16.0365 16.7755 16.3236 16.4642 16.5431C16.1529 16.7626 15.796 16.9088 15.4201 16.9708C14.9527 17.0697 14.3325 17.1506 12.274 16.2967C10.4439 15.4117 8.88999 14.0442 7.77951 12.3415C7.17015 11.5647 6.79864 10.6281 6.70983 9.64483C6.69581 9.23644 6.76869 8.82973 6.92366 8.45162C7.07862 8.07351 7.31213 7.73262 7.60872 7.45153C7.85839 7.23683 8.17839 7.12163 8.50762 7.12793H8.80425C9.06493 7.12793 9.19976 7.12793 9.37954 7.56839C9.55932 8.00884 10.1166 9.36618 10.1796 9.51C10.2268 9.58081 10.2556 9.66227 10.2635 9.74701C10.2713 9.83176 10.2579 9.91713 10.2245 9.9954C10.1474 10.1476 10.0474 10.2871 9.92787 10.4089C9.80202 10.5617 9.66719 10.6786 9.54134 10.8404C9.45499 10.9036 9.39584 10.9971 9.37581 11.1023C9.35579 11.2074 9.3764 11.3162 9.43348 11.4067C9.82962 12.073 10.3201 12.6786 10.8897 13.2045C11.505 13.7687 12.2218 14.2109 13.0021 14.5079C13.1045 14.5576 13.2197 14.5748 13.3322 14.5572C13.4447 14.5395 13.5491 14.4878 13.6313 14.409C13.8838 14.1245 14.118 13.8242 14.3325 13.5101C14.3979 13.4041 14.5003 13.3262 14.6198 13.2913C14.7393 13.2565 14.8675 13.2672 14.9797 13.3213C15.2224 13.4022 16.5078 14.0404 16.7774 14.1663C17.0471 14.2921 17.2179 14.364 17.2808 14.4719C17.3751 14.8802 17.3533 15.3068 17.2179 15.7034Z"
      fill="currentColor"
    />
  </g>
</svg>
