<svg
  width="24"
  height="24"
  viewBox="0 0 24 24"
  fill="none"
  xmlns="http://www.w3.org/2000/svg"
>
  <g>
    <path
      fill-rule="evenodd"
      clip-rule="evenodd"
      d="M17.1433 6.3002H19.6C20.6479 6.3002 21.5 7.15235 21.5 8.2002V18.6502C21.5 19.698 20.6479 20.5502 19.6 20.5502H4.4C3.35215 20.5502 2.5 19.698 2.5 18.6502V8.2002C2.5 7.15235 3.35215 6.3002 4.4 6.3002H6.8567L9.42835 3.72855C9.51642 3.64016 9.6211 3.57006 9.73637 3.52229C9.85164 3.47452 9.97522 3.45002 10.1 3.4502H13.9C14.0248 3.45002 14.1484 3.47452 14.2636 3.52229C14.3789 3.57006 14.4836 3.64016 14.5716 3.72855L17.1433 6.3002ZM7.25 12.9502C7.25 15.5247 9.4255 17.7002 12 17.7002C14.5745 17.7002 16.75 15.5247 16.75 12.9502C16.75 10.3757 14.5745 8.2002 12 8.2002C9.4255 8.2002 7.25 10.3757 7.25 12.9502ZM9.14979 12.95C9.14979 11.4053 10.4551 10.1 11.9998 10.1C13.5445 10.1 14.8498 11.4053 14.8498 12.95C14.8498 14.4947 13.5445 15.8 11.9998 15.8C10.4551 15.8 9.14979 14.4947 9.14979 12.95Z"
      fill="currentColor"
    />
  </g>
</svg>
