<svg width="24" height="24" viewBox="0 0 24 24" fill="none" xmlns="http://www.w3.org/2000/svg">
  <g>
  <path d="M20.3555 9.79921H19.4672C19.1133 5.95546 15.8766 2.93671 11.9414 2.93671C8.00859 2.93671 4.76953 5.9578 4.41797 9.79921H3.68906C3.48281 9.79921 3.31641 9.96796 3.31641 10.1719V16.5539C3.31641 16.7601 3.48516 16.9266 3.68906 16.9266H6.72656C6.93281 16.9266 7.09922 16.7578 7.09922 16.5539V10.1719C7.09922 9.96561 6.93047 9.79921 6.72656 9.79921H6.07734C6.42187 6.86718 8.91797 4.58436 11.9414 4.58436C14.9648 4.58436 17.4609 6.86718 17.8078 9.79921H17.318C17.1117 9.79921 16.9453 9.96796 16.9453 10.1719V16.5539C16.9453 16.7601 17.1141 16.9266 17.318 16.9266H18.1922C17.9367 18.0117 16.3406 18.9375 14.2125 19.3336V19.2305C14.2125 19.0242 14.0437 18.8578 13.8398 18.8578H10.0453C9.83906 18.8578 9.67266 19.0266 9.67266 19.2305V20.7539C9.67266 20.9601 9.84141 21.1266 10.0453 21.1266H13.8375C14.0438 21.1266 14.2102 20.9578 14.2102 20.7539V20.25C16.9219 19.7859 18.8742 18.5039 19.0969 16.9266H20.3531C20.5594 16.9266 20.7258 16.7578 20.7258 16.5539V10.1719C20.7281 9.96796 20.5594 9.79921 20.3555 9.79921Z" fill="currentColor" />
  <path d="M15.7594 13.3851C15.7828 13.1672 15.5953 12.982 15.3773 12.982H8.66718C8.44687 12.982 8.26171 13.1672 8.28515 13.3851C8.48671 15.2719 10.0828 16.7391 12.0211 16.7391C13.9617 16.7414 15.5578 15.2719 15.7594 13.3851Z" fill="currentColor" />
  </g>
  </svg>
