<svg width="24" height="24" viewBox="0 0 24 24" fill="none" xmlns="http://www.w3.org/2000/svg">
  <g>
  <path d="M3 6.5998C3 5.6098 3.81 4.7998 4.8 4.7998H19.2C19.6774 4.7998 20.1352 4.98945 20.4728 5.32701C20.8104 5.66458 21 6.12242 21 6.5998V17.3998C21 17.8772 20.8104 18.335 20.4728 18.6726C20.1352 19.0102 19.6774 19.1998 19.2 19.1998H4.8C4.32261 19.1998 3.86477 19.0102 3.52721 18.6726C3.18964 18.335 3 17.8772 3 17.3998V6.5998ZM12.9 14.6998L10.2 11.9998L4.8 17.3998H19.2L14.7 12.8998L12.9 14.6998ZM16.5 11.0998C16.9774 11.0998 17.4352 10.9102 17.7728 10.5726C18.1104 10.235 18.3 9.77719 18.3 9.2998C18.3 8.82242 18.1104 8.36458 17.7728 8.02701C17.4352 7.68945 16.9774 7.4998 16.5 7.4998C16.0226 7.4998 15.5648 7.68945 15.2272 8.02701C14.8896 8.36458 14.7 8.82242 14.7 9.2998C14.7 9.77719 14.8896 10.235 15.2272 10.5726C15.5648 10.9102 16.0226 11.0998 16.5 11.0998Z" fill="currentColor" />
  </g>
  </svg>
