<svg width="24" height="24" viewBox="0 0 24 24" fill="none" xmlns="http://www.w3.org/2000/svg">
  <g>
  <g>
  <path d="M5.58414 19.9774C5.47161 19.9762 5.36044 19.9527 5.25706 19.9083C5.15368 19.8639 5.06015 19.7993 4.98189 19.7185L3.25874 17.9962C3.17699 17.9185 3.11189 17.8249 3.06742 17.7212C3.02294 17.6176 3 17.5059 3 17.3931C3 17.2803 3.02294 17.1686 3.06742 17.0649C3.11189 16.9613 3.17699 16.8677 3.25874 16.7899C3.60301 16.4457 4.16301 16.4457 4.46413 16.7899L5.58414 17.9099L8.42638 15.0677C8.50413 14.9859 8.59769 14.9209 8.70138 14.8764C8.80506 14.8319 8.91671 14.809 9.02953 14.809C9.14235 14.809 9.254 14.8319 9.35768 14.8764C9.46136 14.9209 9.55492 14.9859 9.63267 15.0677C9.71429 15.1454 9.77926 15.2389 9.82366 15.3425C9.86805 15.4461 9.89094 15.5577 9.89094 15.6704C9.89094 15.7831 9.86805 15.8946 9.82366 15.9982C9.77926 16.1019 9.71429 16.1954 9.63267 16.2731L6.18728 19.7185C6.10891 19.7994 6.01523 19.864 5.91169 19.9085C5.80815 19.9529 5.69681 19.9763 5.58414 19.9774Z" fill="currentColor" />
  <path d="M3 11.991V6.71909C3 6.0039 3.28411 5.318 3.78982 4.81229C4.29554 4.30657 4.98144 4.02246 5.69663 4.02246H18.2809C18.9961 4.02246 19.682 4.30657 20.1877 4.81229C20.6934 5.318 20.9775 6.0039 20.9775 6.71909V14.818L21 14.809V18.9312C21 19.109 20.9472 19.2827 20.8484 19.4305C20.7497 19.5783 20.6093 19.6935 20.4451 19.7615C20.2809 19.8295 20.1002 19.8473 19.9258 19.8126C19.7515 19.778 19.5913 19.6924 19.4656 19.5667L17.4045 17.5056H12.8733C12.7986 16.3843 12.4449 15.2995 11.8443 14.3497C11.2436 13.4 10.4151 12.6155 9.43397 12.0675C8.45288 11.5195 7.35037 11.2255 6.2267 11.2121C5.10303 11.1988 3.99384 11.4665 3 11.991ZM6.59551 7.61797C6.47745 7.61795 6.36055 7.64119 6.25148 7.68635C6.14241 7.73151 6.0433 7.79772 5.95981 7.88119C5.87633 7.96466 5.81011 8.06376 5.76493 8.17283C5.71975 8.28189 5.69649 8.39879 5.69649 8.51684C5.69649 8.6349 5.71975 8.75179 5.76493 8.86086C5.81011 8.96992 5.87633 9.06902 5.95981 9.15249C6.0433 9.23596 6.14241 9.30217 6.25148 9.34734C6.36055 9.3925 6.47745 9.41574 6.59551 9.41572H14.6854C14.9238 9.41568 15.1524 9.32096 15.3209 9.1524C15.4894 8.98383 15.5841 8.75522 15.5841 8.51684C15.5841 8.27847 15.4894 8.04986 15.3209 7.88129C15.1524 7.71272 14.9238 7.618 14.6854 7.61797H6.59551Z" fill="currentColor" />
  </g>
  </g>
  </svg>
