<svg
  width="24"
  height="24"
  viewBox="0 0 24 24"
  fill="none"
  xmlns="http://www.w3.org/2000/svg"
>
  <g>
    <g>
      <path
        d="M4.91667 20.5C4.91667 20.5 3.5 20.5 3.5 19.0833C3.5 17.6667 4.91667 13.4167 12 13.4167C19.0833 13.4167 20.5 17.6667 20.5 19.0833C20.5 20.5 19.0833 20.5 19.0833 20.5H4.91667ZM12 12C13.1272 12 14.2082 11.5522 15.0052 10.7552C15.8022 9.95817 16.25 8.87717 16.25 7.75C16.25 6.62283 15.8022 5.54183 15.0052 4.7448C14.2082 3.94777 13.1272 3.5 12 3.5C10.8728 3.5 9.79183 3.94777 8.9948 4.7448C8.19777 5.54183 7.75 6.62283 7.75 7.75C7.75 8.87717 8.19777 9.95817 8.9948 10.7552C9.79183 11.5522 10.8728 12 12 12Z"
        fill="currentColor"
      />
    </g>
  </g>
</svg>
