<svg width="24" height="24" viewBox="0 0 24 24" fill="none" xmlns="http://www.w3.org/2000/svg">
  <g>
  <path d="M20.491 10.8164L20.5 3.8923C20.5 3.67648 20.3246 3.50113 20.1088 3.50113L13.1847 3.51012C13.0813 3.51012 12.9824 3.55059 12.9082 3.62477L3.61465 12.9161C3.46178 13.069 3.46178 13.3163 3.61465 13.4691L10.5298 20.3842C10.6826 20.5371 10.9299 20.5371 11.0828 20.3842L20.3764 11.0907C20.4483 11.0187 20.491 10.9198 20.491 10.8164ZM15.6756 8.25358C15.1136 7.69156 15.1136 6.77883 15.6756 6.21681C16.2376 5.65479 17.1504 5.65479 17.7124 6.21681C18.2744 6.77883 18.2744 7.69156 17.7124 8.25358C17.1481 8.8156 16.2376 8.8156 15.6756 8.25358Z" fill="currentColor" />
  </g>
  </svg>
