<svg
  width="24"
  height="24"
  viewBox="0 0 24 24"
  fill="none"
  xmlns="http://www.w3.org/2000/svg"
>
  <g>
    <path
      d="M19.9227 14.0227C19.0652 13.5729 18.0736 13.4494 17.132 13.6751C16.1903 13.9009 15.3626 14.4606 14.8022 15.2503C14.2419 16.04 13.9871 17.0062 14.0851 17.9696C14.183 18.9329 14.6271 19.828 15.3349 20.4888H6.06667C5.78377 20.4888 5.51246 20.3764 5.31242 20.1764C5.11238 19.9763 5 19.705 5 19.4221V5.56667C5 5.28377 5.11238 5.01246 5.31242 4.81242C5.51246 4.61238 5.78377 4.5 6.06667 4.5H18.856C19.1389 4.5 19.4102 4.61238 19.6102 4.81242C19.8103 5.01246 19.9227 5.28377 19.9227 5.56667V14.0227ZM8.19787 8.23067C8.12644 8.22841 8.0553 8.24052 7.98865 8.2663C7.922 8.29207 7.86121 8.33097 7.80989 8.38069C7.75857 8.43042 7.71776 8.48995 7.6899 8.55575C7.66203 8.62155 7.64767 8.69228 7.64767 8.76373C7.64767 8.83519 7.66203 8.90592 7.6899 8.97172C7.71776 9.03752 7.75857 9.09705 7.80989 9.14677C7.86121 9.1965 7.922 9.2354 7.98865 9.26117C8.0553 9.28694 8.12644 9.29906 8.19787 9.2968H14.5936C14.665 9.29906 14.7362 9.28694 14.8028 9.26117C14.8695 9.2354 14.9303 9.1965 14.9816 9.14677C15.0329 9.09705 15.0737 9.03752 15.1016 8.97172C15.1294 8.90592 15.1438 8.83519 15.1438 8.76373C15.1438 8.69228 15.1294 8.62155 15.1016 8.55575C15.0737 8.48995 15.0329 8.43042 14.9816 8.38069C14.9303 8.33097 14.8695 8.29207 14.8028 8.2663C14.7362 8.24052 14.665 8.22841 14.5936 8.23067H8.19787ZM8.19787 11.4285C8.12644 11.4263 8.0553 11.4384 7.98865 11.4642C7.922 11.4899 7.86121 11.5288 7.80989 11.5786C7.75857 11.6283 7.71776 11.6878 7.6899 11.7536C7.66203 11.8194 7.64767 11.8901 7.64767 11.9616C7.64767 12.0331 7.66203 12.1038 7.6899 12.1696C7.71776 12.2354 7.75857 12.2949 7.80989 12.3446C7.86121 12.3944 7.922 12.4333 7.98865 12.459C8.0553 12.4848 8.12644 12.4969 8.19787 12.4947H12.4613C12.5328 12.4969 12.6039 12.4848 12.6706 12.459C12.7372 12.4333 12.798 12.3944 12.8493 12.3446C12.9006 12.2949 12.9414 12.2354 12.9693 12.1696C12.9972 12.1038 13.0115 12.0331 13.0115 11.9616C13.0115 11.8901 12.9972 11.8194 12.9693 11.7536C12.9414 11.6878 12.9006 11.6283 12.8493 11.5786C12.798 11.5288 12.7372 11.4899 12.6706 11.4642C12.6039 11.4384 12.5328 11.4263 12.4613 11.4285H8.19787ZM18.3333 17.3V15.9667C18.3333 15.8959 18.3052 15.8281 18.2552 15.7781C18.2052 15.7281 18.1374 15.7 18.0667 15.7C17.9959 15.7 17.9281 15.7281 17.8781 15.7781C17.8281 15.8281 17.8 15.8959 17.8 15.9667V17.5667C17.7999 17.6017 17.8067 17.6365 17.82 17.6689C17.8334 17.7013 17.853 17.7308 17.8778 17.7555C17.9026 17.7803 17.932 17.8 17.9645 17.8133C17.9969 17.8267 18.0316 17.8335 18.0667 17.8333H19.6667C19.7017 17.8333 19.7364 17.8265 19.7687 17.8131C19.8011 17.7997 19.8305 17.78 19.8553 17.7553C19.8801 17.7305 19.8997 17.7011 19.9131 17.6687C19.9265 17.6364 19.9334 17.6017 19.9334 17.5667C19.9334 17.5316 19.9265 17.497 19.9131 17.4646C19.8997 17.4322 19.8801 17.4028 19.8553 17.3781C19.8305 17.3533 19.8011 17.3337 19.7687 17.3203C19.7364 17.3069 19.7017 17.3 19.6667 17.3H18.3333ZM18.0667 20.5C17.2887 20.5 16.5426 20.191 15.9925 19.6408C15.4424 19.0907 15.1333 18.3446 15.1333 17.5667C15.1333 16.7887 15.4424 16.0426 15.9925 15.4925C16.5426 14.9424 17.2887 14.6333 18.0667 14.6333C18.8446 14.6333 19.5907 14.9424 20.1408 15.4925C20.691 16.0426 21 16.7887 21 17.5667C21 18.3446 20.691 19.0907 20.1408 19.6408C19.5907 20.191 18.8446 20.5 18.0667 20.5Z"
      fill="currentColor"
    />
  </g>
</svg>
