<svg
  width="24"
  height="24"
  viewBox="0 0 24 24"
  fill="none"
  xmlns="http://www.w3.org/2000/svg"
>
  <g>
    <path
      fill-rule="evenodd"
      clip-rule="evenodd"
      d="M12 5.61283L13.7044 9.06646C13.7047 9.067 13.705 9.06755 13.7052 9.06809C13.8868 9.43735 14.2377 9.68573 14.6357 9.74362L18.4509 10.2986L15.6907 12.9892C15.6906 12.9893 15.6907 12.9892 15.6907 12.9892C15.3979 13.2746 15.2691 13.6845 15.3348 14.0785L15.9876 17.8806L12.5772 16.0882C12.5765 16.0878 12.5759 16.0875 12.5752 16.0871C12.2184 15.8986 11.7867 15.8938 11.4223 16.0884L8.01449 17.8803L8.66646 14.0828L8.66719 14.0785C8.73395 13.6779 8.59927 13.2771 8.31962 12.9974L5.54952 10.2985L9.36429 9.74362L9.36663 9.74328C9.76636 9.68406 10.1082 9.43394 10.289 9.07961L12 5.61283ZM7.81983 19.0141L7.82055 19.0099C7.82031 19.0113 7.82007 19.0127 7.81983 19.0141ZM12.5074 4.58473L12.5079 4.5837L12.5074 4.58473ZM13.1067 3.78813C12.6544 2.87063 11.3456 2.87063 10.8933 3.78813C10.8932 3.78819 10.8933 3.78806 10.8933 3.78813C10.8931 3.78841 10.8929 3.78887 10.8927 3.78915L8.81215 8.00499L4.15798 8.682C3.14833 8.82939 2.73965 10.07 3.47124 10.7868L3.47306 10.7886L6.84216 14.0709L6.04722 18.7012C6.04706 18.7021 6.04691 18.703 6.04675 18.7039C5.86939 19.7208 6.93608 20.4761 7.83404 20.0088L7.83748 20.007L12.0001 17.8183L16.1647 20.0071C17.0715 20.4828 18.1256 19.7112 17.9559 18.7076L17.9555 18.7054L17.1598 14.0708L20.5271 10.7884L20.5288 10.7868C21.2603 10.07 20.8521 8.82946 19.8425 8.68206L15.1878 8.00499L13.1072 3.78915C13.1071 3.78891 13.1074 3.7894 13.1072 3.78915C13.1072 3.78905 13.1068 3.78823 13.1067 3.78813ZM11.7335 17.6782L11.7366 17.6798C11.7356 17.6793 11.7345 17.6787 11.7335 17.6782Z"
      fill="currentColor"
    />
  </g>
</svg>
