<svg
  width="24"
  height="24"
  viewBox="0 0 24 24"
  fill="none"
  xmlns="http://www.w3.org/2000/svg"
>
  <g>
    <g>
      <path
        fill-rule="evenodd"
        clip-rule="evenodd"
        d="M3 7.05322C3 5.39637 4.34315 4.05322 6 4.05322H18C19.6569 4.05322 21 5.39637 21 7.05322V13.9224C21 15.5793 19.6569 16.9224 18 16.9224H6C4.34315 16.9224 3 15.5793 3 13.9224V7.05322ZM12.3604 13.4064V11.5735H8.67274C8.40742 11.5735 8.1898 11.3711 8.1898 11.1181V10.0442C8.1898 9.79405 8.40444 9.58883 8.67274 9.58883L12.3604 9.58883V7.75593C12.3604 7.35112 12.8791 7.14872 13.1832 7.43546L16.1792 10.2607C16.367 10.4378 16.367 10.7274 16.1792 10.9045L13.1862 13.7269C12.8821 14.0137 12.3604 13.8112 12.3604 13.4064ZM6.07307 17.8293C5.4883 17.8293 5.01425 18.3034 5.01425 18.8881C5.01425 19.4729 5.4883 19.9469 6.07307 19.9469H17.9272C18.512 19.9469 18.986 19.4729 18.986 18.8881C18.986 18.3034 18.512 17.8293 17.9272 17.8293H6.07307Z"
        fill="currentColor"
      />
    </g>
  </g>
</svg>
