<svg width="24" height="24" viewBox="0 0 24 24" fill="none" xmlns="http://www.w3.org/2000/svg">
  <g>
  <path fill-rule="evenodd" clip-rule="evenodd" d="M19.4134 5.84211H17.4997V3.92842C17.4997 3.41684 17.0828 3 16.5713 3H16.5428C16.0218 3 15.605 3.41684 15.605 3.92842V5.84211H13.7007C13.1892 5.84211 12.7723 6.25895 12.7628 6.77053V6.79895C12.7628 7.32 13.1797 7.73684 13.7007 7.73684H15.605V9.64105C15.605 10.1526 16.0218 10.5789 16.5428 10.5695H16.5713C17.0828 10.5695 17.4997 10.1526 17.4997 9.64105V7.73684H19.4134C19.925 7.73684 20.3418 7.32 20.3418 6.80842V6.77053C20.3418 6.25895 19.925 5.84211 19.4134 5.84211ZM14.6576 9.64105V8.68421H13.7007C13.1986 8.68421 12.725 8.48526 12.365 8.13474C12.0144 7.77474 11.8155 7.30105 11.8155 6.77053C11.8155 6.42947 11.9102 6.11684 12.0713 5.84211H4.23653C3.19443 5.84211 2.3418 6.69474 2.3418 7.73684V19.1053C2.3418 20.1474 3.19443 21 4.23653 21H15.605C16.6471 21 17.4997 20.1474 17.4997 19.1053V11.2611C17.2155 11.4221 16.8934 11.5263 16.5334 11.5263C15.5007 11.5168 14.6576 10.6737 14.6576 9.64105ZM5.1839 19.1053H14.6197C15.0176 19.1053 15.2355 18.6505 14.9892 18.3379L12.1944 14.8516C12.005 14.6053 11.6355 14.6147 11.446 14.8611L8.97338 18.1579L7.45759 15.8747C7.26811 15.6095 6.87969 15.5905 6.68074 15.8558L4.80495 18.3474C4.56811 18.66 4.79548 19.1053 5.1839 19.1053Z" fill="currentColor" />
  </g>
  </svg>
