<svg
  width="24"
  height="24"
  viewBox="0 0 24 24"
  fill="none"
  xmlns="http://www.w3.org/2000/svg"
>
  <g>
    <path
      d="M11.5091 20.5896C8.73534 20.6569 6.43014 18.467 6.35519 15.6934V6.95745C6.40676 4.95253 8.06951 3.36658 10.0746 3.40981C12.0831 3.36177 13.7511 4.9491 13.8026 6.95745V15.702C13.7285 16.9119 12.7256 17.8552 11.5134 17.8552C10.3012 17.8552 9.29837 16.9119 9.22422 15.702V7.63605C9.22422 7.16164 9.60881 6.77706 10.0832 6.77706C10.5576 6.77706 10.9422 7.16164 10.9422 7.63605V15.702C10.9777 15.9905 11.2227 16.2073 11.5134 16.2073C11.8041 16.2073 12.0492 15.9905 12.0847 15.702V6.95745C12.0291 5.89987 11.1328 5.08398 10.0746 5.1278C9.01978 5.0888 8.12875 5.90334 8.07318 6.95745V15.6934C8.14763 17.5183 9.68393 18.9394 11.5091 18.8717C13.3344 18.9394 14.8707 17.5183 14.9451 15.6934V6.95745C14.9451 6.48304 15.3297 6.09846 15.8041 6.09846C16.2785 6.09846 16.6631 6.48304 16.6631 6.95745V15.6934C16.5881 18.467 14.2829 20.6569 11.5091 20.5896Z"
      fill="currentColor"
    />
  </g>
</svg>
