<svg width="24" height="24" viewBox="0 0 24 24" fill="none" xmlns="http://www.w3.org/2000/svg">
  <g>
  <g>
  <path d="M3 12.0647V6.79282C3 6.07763 3.28411 5.39173 3.78982 4.88602C4.29554 4.3803 4.98144 4.09619 5.69663 4.09619H18.2809C18.9961 4.09619 19.682 4.3803 20.1877 4.88602C20.6934 5.39173 20.9775 6.07763 20.9775 6.79282V14.8917L21 14.8827V19.005C21 19.1827 20.9472 19.3565 20.8484 19.5042C20.7497 19.652 20.6093 19.7672 20.4451 19.8352C20.2809 19.9032 20.1002 19.921 19.9258 19.8864C19.7515 19.8517 19.5913 19.7661 19.4656 19.6405L17.4045 17.5793H12.8733C12.7986 16.4581 12.4449 15.3732 11.8443 14.4235C11.2436 13.4737 10.4151 12.6892 9.43397 12.1412C8.45288 11.5932 7.35037 11.2992 6.2267 11.2858C5.10303 11.2725 3.99384 11.5402 3 12.0647ZM6.59551 7.6917C6.47745 7.69168 6.36055 7.71492 6.25148 7.76008C6.14241 7.80525 6.0433 7.87145 5.95981 7.95492C5.87633 8.03839 5.81011 8.13749 5.76493 8.24656C5.71975 8.35562 5.69649 8.47252 5.69649 8.59057C5.69649 8.70863 5.71975 8.82552 5.76493 8.93459C5.81011 9.04366 5.87633 9.14275 5.95981 9.22622C6.0433 9.30969 6.14241 9.3759 6.25148 9.42107C6.36055 9.46623 6.47745 9.48947 6.59551 9.48945H14.6854C14.9238 9.48941 15.1524 9.39469 15.3209 9.22613C15.4894 9.05756 15.5841 8.82895 15.5841 8.59057C15.5841 8.3522 15.4894 8.12359 15.3209 7.95502C15.1524 7.78645 14.9238 7.69173 14.6854 7.6917H6.59551Z" fill="currentColor" />
  <path d="M3.83917 17.1426L9.3167 17.1257" stroke="currentColor" stroke-width="1.7" stroke-linecap="round" />
  </g>
  </g>
  </svg>
