<svg
  width="24"
  height="24"
  viewBox="0 0 24 24"
  fill="none"
  xmlns="http://www.w3.org/2000/svg"
>
  <g>
    <path
      fill-rule="evenodd"
      clip-rule="evenodd"
      d="M8.88405 5.9358C8.9564 5.84591 9.03094 5.75821 9.10986 5.67271C9.11303 5.66955 9.11606 5.66626 9.11921 5.66284C9.12918 5.65205 9.1403 5.63999 9.16029 5.62667C9.25456 5.52801 9.35103 5.43593 9.45407 5.34823C10.1469 4.75628 11.0458 4.39673 12.0301 4.39673C13.0123 4.39673 13.9112 4.75628 14.6062 5.34823C14.7093 5.43593 14.8057 5.52801 14.9 5.62667C14.9066 5.63324 14.9126 5.64037 14.9186 5.6475C14.9247 5.65462 14.9307 5.66175 14.9373 5.66832C15.0162 5.75383 15.0907 5.84152 15.1631 5.9336C15.1806 5.95553 15.1982 5.97964 15.2157 6.00376C15.2771 6.08707 15.3363 6.17258 15.3933 6.26246C15.4073 6.28424 15.4202 6.30601 15.4335 6.32857L15.4336 6.32862L15.4336 6.32867L15.4503 6.35674C15.4985 6.44005 15.5446 6.52555 15.5884 6.61325L15.6033 6.6427L15.6033 6.64271L15.6033 6.64272C15.6179 6.67163 15.6323 6.69992 15.6454 6.72945C15.6827 6.81495 15.7178 6.90045 15.7507 6.98815C15.7583 7.01007 15.7665 7.03198 15.7748 7.0539L15.7748 7.05391L15.7748 7.05392C15.783 7.07585 15.7912 7.09777 15.7989 7.11969C15.8296 7.20739 15.8537 7.29509 15.8756 7.38498C15.8811 7.40906 15.8871 7.43206 15.8931 7.45505L15.8932 7.45513C15.8992 7.47815 15.9052 7.50117 15.9107 7.52529C15.9304 7.61956 15.9458 7.71822 15.9589 7.81469C15.9612 7.83002 15.9638 7.84509 15.9664 7.86007L15.9664 7.86015L15.9664 7.86017L15.9664 7.86019C15.9711 7.88802 15.9758 7.91557 15.9787 7.94404C15.994 8.08435 16.0028 8.22905 16.0028 8.37375C16.0028 8.55791 15.9852 8.73988 15.9611 8.91747L15.9513 8.98214L15.9414 9.04682C15.9107 9.22221 15.8734 9.39541 15.8208 9.56203C15.8197 9.56422 15.8192 9.56587 15.8186 9.56751C15.8184 9.56806 15.8183 9.56861 15.818 9.56918C15.8176 9.57032 15.8172 9.57153 15.8164 9.57299C15.7638 9.73962 15.698 9.89747 15.6257 10.0531C15.6169 10.0707 15.6087 10.0882 15.6005 10.1057C15.5923 10.1233 15.584 10.1408 15.5753 10.1584C15.4963 10.3162 15.4108 10.4675 15.3122 10.6122L15.31 10.6144C15.2113 10.7591 15.1017 10.895 14.9855 11.0244C14.9722 11.0406 14.9579 11.0559 14.9433 11.0715L14.9433 11.0715C14.9362 11.079 14.9291 11.0867 14.9219 11.0945C14.6786 11.3532 14.4023 11.579 14.0976 11.7654C14.0855 11.772 14.074 11.7791 14.0625 11.7862L14.0625 11.7862L14.0625 11.7862C14.051 11.7934 14.0395 11.8005 14.0274 11.8071C13.8696 11.8991 13.7073 11.9824 13.5385 12.0526C13.0715 12.2455 12.5607 12.353 12.0236 12.353C11.4864 12.353 10.9734 12.2455 10.5064 12.0526C10.3376 11.9846 10.1754 11.9013 10.0197 11.8092C9.9956 11.7961 9.97148 11.7807 9.94736 11.7654C9.64262 11.579 9.36637 11.3554 9.12521 11.0967L9.05944 11.0244C8.94324 10.895 8.83362 10.7613 8.73496 10.6166L8.73277 10.6144C8.63411 10.4719 8.54861 10.3184 8.46968 10.1628C8.46091 10.1452 8.45269 10.1277 8.44447 10.1101C8.43625 10.0926 8.42803 10.0751 8.41926 10.0575C8.34691 9.90185 8.28114 9.744 8.22852 9.57738C8.22852 9.57628 8.22797 9.57464 8.22742 9.573L8.22742 9.57299C8.22687 9.57135 8.22633 9.56971 8.22633 9.56861C8.17371 9.40199 8.13644 9.22879 8.10574 9.05339L8.09588 8.98872L8.08601 8.92404C8.06189 8.74646 8.04436 8.56449 8.04436 8.38033C8.04436 8.23563 8.05313 8.09093 8.06847 7.95062C8.07124 7.92435 8.07574 7.89809 8.08035 7.87128L8.08035 7.87127C8.08305 7.85555 8.08577 7.83966 8.0882 7.82346C8.10136 7.7248 8.1167 7.62833 8.13644 7.53187C8.1417 7.50424 8.14933 7.47662 8.15696 7.44899L8.15696 7.44899L8.15696 7.44898C8.16205 7.43057 8.16713 7.41216 8.17151 7.39374L8.17152 7.39374L8.17152 7.39374L8.17152 7.39373C8.19563 7.30385 8.21975 7.21396 8.24825 7.12627C8.25592 7.10435 8.26414 7.08243 8.27236 7.06051L8.27238 7.06045C8.2806 7.03854 8.28881 7.01663 8.29648 6.99473C8.32937 6.90703 8.36225 6.82153 8.40172 6.73602C8.41926 6.69656 8.4368 6.65929 8.45653 6.61983C8.50038 6.53213 8.54642 6.44443 8.59684 6.36112C8.61438 6.33043 8.63411 6.29754 8.65384 6.26685C8.70865 6.17915 8.76785 6.09146 8.83143 6.00815L8.88405 5.9358ZM14.8138 12.3125C14.8083 12.3119 14.8028 12.3114 14.7973 12.3114C16.0316 11.4366 16.8385 10.0028 16.8385 8.38042C16.8385 7.30833 16.4833 6.31956 15.8891 5.51933C17.2945 5.96877 18.3183 7.27106 18.3183 8.82548C18.3183 10.7526 16.7573 12.3136 14.8302 12.3136C14.8247 12.3136 14.8192 12.313 14.8138 12.3125ZM9.22204 12.3125C9.21547 12.313 9.20889 12.3136 9.20231 12.3136C7.27738 12.3136 5.7142 10.7526 5.71639 8.82548C5.71639 7.26887 6.74243 5.96439 8.15215 5.51714C7.55801 6.31956 7.20065 7.30833 7.20065 8.38042C7.20065 10.0028 8.00964 11.4366 9.24177 12.3114C9.2352 12.3114 9.22862 12.3119 9.22204 12.3125ZM3 17.6411C3 15.3391 4.74296 13.4471 6.97921 13.2059C5.26695 14.1596 4.10278 15.9881 4.10497 18.084V18.6672H3.32886C3.14689 18.6672 3 18.5203 3 18.3383V17.6411ZM14.3126 13.344H9.68665C7.06892 13.344 4.94667 15.4663 4.94667 18.084V19.2547C4.94667 19.4477 5.10233 19.6033 5.29526 19.6033H18.704C18.8969 19.6033 19.0526 19.4477 19.0526 19.2547V18.084C19.0526 15.4663 16.9304 13.344 14.3126 13.344ZM19.895 18.0842C19.895 15.9882 18.7309 14.1598 17.0186 13.2061C19.2548 13.4472 20.9978 15.3393 21 17.6413V18.3385C21 18.5205 20.8531 18.6674 20.6711 18.6674H19.895V18.0842Z"
      fill="currentColor"
    />
  </g>
</svg>
