<svg
  width="24"
  height="24"
  viewBox="0 0 24 24"
  fill="none"
  xmlns="http://www.w3.org/2000/svg"
>
  <g>
    <path
      d="M3.63269 5.75379C3.63269 5.49364 3.84554 5.28079 4.1057 5.28079H6.06276V4.71318C6.06276 4.45303 6.27561 4.24017 6.53576 4.24017H7.67393C7.93409 4.24017 8.14694 4.45303 8.14694 4.71318V5.28079H19.8272C20.0874 5.28079 20.3002 5.49364 20.3002 5.75379V6.89196C20.3002 7.15212 20.0874 7.36497 19.8272 7.36497H8.14694V7.93258C8.14694 8.19273 7.93409 8.40558 7.67393 8.40558H6.53576C6.27561 8.40558 6.06276 8.19273 6.06276 7.93258V7.36497H4.1057C3.84554 7.36497 3.63269 7.15212 3.63269 6.89196V5.75379ZM20.3298 18.2885C20.3298 18.5486 20.1169 18.7615 19.8568 18.7615H8.14694V19.3291C8.14694 19.5892 7.93409 19.8021 7.67393 19.8021H6.53576C6.27561 19.8021 6.06276 19.5892 6.06276 19.3291V18.7615H4.13526C3.87511 18.7615 3.66225 18.5486 3.66225 18.2885V17.1503C3.66225 16.8901 3.87511 16.6773 4.13526 16.6773H6.06276V16.1097C6.06276 15.8495 6.27561 15.6367 6.53576 15.6367H7.67393C7.93409 15.6367 8.14694 15.8495 8.14694 16.1097V16.6773H19.8568C20.1169 16.6773 20.3298 16.8901 20.3298 17.1503V18.2885ZM20.3298 12.5887C20.3298 12.8489 20.1169 13.0617 19.8568 13.0617H17.8997V13.6146C17.8997 13.8747 17.6869 14.0876 17.4267 14.0876H16.2886C16.0284 14.0876 15.8156 13.8747 15.8156 13.6146V13.0617H4.13526C3.87511 13.0617 3.66225 12.8489 3.66225 12.5887V11.4506C3.66225 11.1904 3.87511 10.9776 4.13526 10.9776H15.8156V10.3952C15.8156 10.135 16.0284 9.92216 16.2886 9.92216H17.4267C17.6869 9.92216 17.8997 10.135 17.8997 10.3952V10.9776H19.8568C20.1169 10.9776 20.3298 11.1904 20.3298 11.4506V12.5887Z"
      fill="currentColor"
    />
  </g>
</svg>
