<svg width="24" height="24" viewBox="0 0 24 24" fill="none" xmlns="http://www.w3.org/2000/svg">
  <g>
  <path fill-rule="evenodd" clip-rule="evenodd" d="M12.9402 10.3207C12.9402 10.8409 12.5184 11.2627 11.9982 11.2627C11.478 11.2627 11.0563 10.8409 11.0563 10.3207V4.53422C11.0563 4.01402 11.478 3.59229 11.9982 3.59229C12.5184 3.59229 12.9402 4.01402 12.9402 4.53422V10.3207ZM14.4492 10.2651V4.79334C17.6668 5.82948 19.9981 8.84582 20.0002 12.4081C20.0002 16.9315 16.2453 20.5794 11.6812 20.4017C7.58808 20.2433 4.19496 16.8737 4.00872 12.7827C3.8396 9.05775 6.22013 5.86373 9.55116 4.79334V10.3187C9.55116 11.9264 11.1075 13.1787 12.7923 12.6435C13.8049 12.3224 14.4492 11.327 14.4492 10.2651Z" fill="currentColor" />
  </g>
  </svg>
