<svg width="24" height="24" viewBox="0 0 24 24" fill="none" xmlns="http://www.w3.org/2000/svg">
  <g>
  <g>
  <path d="M11.9999 4.28571C7.91708 4.28571 4.607 7.59579 4.607 11.6786V13.2857H7.17843C7.34893 13.2857 7.51244 13.3534 7.633 13.474C7.75356 13.5946 7.82129 13.7581 7.82129 13.9286V20.3571C7.82129 20.5276 7.75356 20.6912 7.633 20.8117C7.51244 20.9323 7.34893 21 7.17843 21H6.21415C5.44691 21 4.7111 20.6952 4.16859 20.1527C3.62607 19.6102 3.32129 18.8744 3.32129 18.1071V11.6786C3.32129 6.88543 7.20672 3 11.9999 3C16.793 3 20.6784 6.88543 20.6784 11.6786V18.1071C20.6784 18.8744 20.3736 19.6102 19.8311 20.1527C19.2886 20.6952 18.5528 21 17.7856 21H16.8213C16.6508 21 16.4873 20.9323 16.3667 20.8117C16.2462 20.6912 16.1784 20.5276 16.1784 20.3571V13.9286C16.1784 13.7581 16.2462 13.5946 16.3667 13.474C16.4873 13.3534 16.6508 13.2857 16.8213 13.2857H19.3927V11.6786C19.3927 7.59579 16.0826 4.28571 11.9999 4.28571Z" fill="currentColor" />
  </g>
  </g>
  </svg>
