<svg
  width="24"
  height="24"
  viewBox="0 0 24 24"
  fill="none"
  xmlns="http://www.w3.org/2000/svg"
>
  <g>
    <path
      fill-rule="evenodd"
      clip-rule="evenodd"
      d="M6.35114 8.42545C6.47664 8.95699 6.70562 9.4586 7.02498 9.90165C7.34435 10.3447 7.74785 10.7205 8.21245 11.0076C8.67705 11.2947 9.19365 11.4875 9.73276 11.5749C10.2719 11.6624 10.8229 11.6428 11.3545 11.5173C11.886 11.3918 12.3876 11.1628 12.8306 10.8434C13.2737 10.5241 13.6495 10.1206 13.9366 9.65595C14.2237 9.19135 14.4165 8.67474 14.5039 8.13563C14.5914 7.59653 14.5718 7.04547 14.4462 6.51394C14.3207 5.9824 14.0918 5.48079 13.7724 5.03775C13.453 4.5947 13.0495 4.2189 12.5849 3.93179C12.1203 3.64469 11.6037 3.45191 11.0646 3.36445C10.5255 3.277 9.97446 3.29659 9.44292 3.4221C8.91139 3.54762 8.40978 3.77659 7.96673 4.09596C7.52369 4.41533 7.14789 4.81884 6.86079 5.28344C6.57369 5.74805 6.38092 6.26465 6.29347 6.80376C6.20602 7.34287 6.22562 7.89392 6.35114 8.42545ZM13.8337 12.5989C13.5771 12.5556 13.3134 12.5331 13.0444 12.5331H7.70757C5.10774 12.5331 3 14.6386 3 17.2385V18.73C3 18.9216 3.1546 19.0762 3.34621 19.0762H12.174C11.8915 18.4141 11.7351 17.6854 11.7351 16.92C11.7351 15.1669 12.5557 13.6055 13.8337 12.5989ZM19.5499 13.9653C19.5847 13.9936 19.6195 14.0219 19.6522 14.0502C20.473 14.7426 21.0043 15.7638 21 16.92C21 17.8019 20.6864 18.5988 20.1813 19.2411C19.491 20.1165 18.435 20.6891 17.233 20.6891C16.1139 20.6891 15.1188 20.1905 14.4285 19.4153C14.3697 19.35 14.3153 19.2825 14.2609 19.2128C14.176 19.1018 14.0954 18.9907 14.0235 18.871C13.9517 18.7512 13.8842 18.6293 13.8254 18.503C13.8171 18.4852 13.8086 18.4676 13.8002 18.45C13.7776 18.403 13.7551 18.3562 13.7361 18.307C13.6621 18.1241 13.6033 17.9325 13.5597 17.7365C13.5523 17.7036 13.5468 17.6716 13.5413 17.6393C13.5388 17.6247 13.5363 17.6099 13.5336 17.595C13.4944 17.3751 13.4661 17.1508 13.4661 16.92C13.4661 14.8384 15.1536 13.1509 17.2352 13.1509C17.466 13.1509 17.6903 13.177 17.9102 13.2184C17.9313 13.2224 17.9524 13.226 17.9733 13.2295C17.9977 13.2336 18.0218 13.2377 18.0452 13.2423C18.2368 13.2859 18.4197 13.3447 18.5983 13.4144C18.6745 13.4448 18.7485 13.4775 18.8226 13.5123C18.9358 13.5646 19.0468 13.6256 19.1535 13.6909C19.2929 13.7736 19.4235 13.8651 19.5498 13.9653L19.5499 13.9653ZM16.4579 15.2739L15.1297 16.6696C15.0709 16.7306 15.0709 16.8286 15.1297 16.8939L16.4579 18.2896C16.4905 18.3244 16.5319 18.3397 16.5733 18.3397C16.656 18.3397 16.7344 18.2765 16.7344 18.1786V17.2619H16.7497C18.0692 17.2619 19.1601 17.8498 19.3626 18.6206H19.3865C19.258 17.2771 18.1258 16.2276 16.7497 16.2276H16.7344V15.3849C16.7344 15.2869 16.656 15.2238 16.5733 15.2238C16.5319 15.2238 16.4905 15.239 16.4579 15.2739Z"
      fill="currentColor"
    />
  </g>
</svg>
