<svg
  width="24"
  height="24"
  viewBox="0 0 24 24"
  fill="none"
  xmlns="http://www.w3.org/2000/svg"
>
  <g>
    <path
      fill-rule="evenodd"
      clip-rule="evenodd"
      d="M12.7192 3.94405C12.4254 3.34744 11.5743 3.34743 11.2805 3.94399L8.96564 8.63452L3.78857 9.38759C3.1317 9.48348 2.86632 10.2902 3.34199 10.7563L3.3429 10.7572L7.09062 14.4084L6.20588 19.5617L6.20567 19.5629C6.09025 20.2223 6.78234 20.7155 7.36787 20.4108L7.36959 20.4099L11.9999 17.9752L16.6323 20.41C17.2211 20.7188 17.9069 20.2176 17.7965 19.5649L16.9112 14.4084L20.6569 10.7571L20.6577 10.7563C21.1334 10.2902 20.8682 9.48351 20.2114 9.38762L15.0341 8.63452L12.7192 3.94405Z"
      fill="currentColor"
    />
  </g>
</svg>
