<svg width="24" height="24" viewBox="0 0 24 24" fill="none" xmlns="http://www.w3.org/2000/svg">
  <g>
  <g>
  <path d="M15.8276 20.5348L15.7358 20.533C13.6065 20.4282 10.7311 18.4993 8.04296 15.3732L7.05008 14.2192C4.36196 11.0923 2.95325 8.03889 3.28296 6.05105C3.51545 4.64847 5.68259 3.4649 6.92034 3.4649C7.53077 3.4649 7.75157 3.75706 7.82873 3.93135C8.52946 5.13028 9.3967 7.21525 9.40072 7.96267V8.01636L9.38117 8.06595C9.22643 8.45856 8.8805 8.64693 8.57529 8.8132C8.17346 9.03195 7.94455 9.17586 7.9169 9.58887C7.90836 9.71417 8.02085 10.2847 9.79461 12.3884L10.5529 13.2692C12.3311 15.2895 12.8907 15.5069 13.0214 15.5247C13.4502 15.5821 13.6525 15.4011 13.9602 15.076C14.1952 14.8285 14.4615 14.5469 14.9011 14.4852L14.9567 14.4775L15.0116 14.4887C15.7861 14.646 17.7684 15.8755 18.8938 16.7884C19.0566 16.8922 19.3401 17.2002 19.1158 17.8805C18.7635 18.9491 17.2275 20.5348 15.8276 20.5348Z" fill="currentColor" />
  <path d="M12.8318 4.51733C13.6728 4.51733 14.5061 4.68284 15.283 5.00464C16.0599 5.32647 16.7665 5.79769 17.3611 6.39233C17.9557 6.987 18.427 7.69351 18.7488 8.47046C19.0706 9.2474 19.2361 10.0807 19.2361 10.9216C19.2359 11.1079 19.1627 11.2869 19.031 11.4187C18.8992 11.5506 18.7195 11.6237 18.533 11.6238C18.4408 11.6238 18.3497 11.6053 18.2644 11.5701C18.1792 11.5348 18.1002 11.4839 18.0349 11.4187C17.9698 11.3534 17.9179 11.2754 17.8826 11.1902C17.8473 11.105 17.829 11.0138 17.8289 10.9216C17.8289 10.2655 17.7001 9.61475 17.449 9.00854C17.1979 8.40241 16.8299 7.85138 16.366 7.38745C15.9021 6.92354 15.351 6.55554 14.7449 6.30444C14.1387 6.05334 13.488 5.92456 12.8318 5.92456C12.7397 5.92447 12.6484 5.90607 12.5633 5.87085C12.478 5.83549 12.4 5.78283 12.3347 5.71753C12.2699 5.65259 12.2186 5.57567 12.1834 5.49097C12.1481 5.40568 12.1297 5.31277 12.1297 5.22046C12.1297 5.12824 12.1481 5.03614 12.1834 4.95093C12.2187 4.86584 12.2696 4.78758 12.3347 4.72241C12.4 4.65723 12.4781 4.60638 12.5633 4.57104C12.6484 4.53578 12.7397 4.51744 12.8318 4.51733ZM18.3152 11.448L18.3142 11.447L18.3152 11.448ZM18.9461 11.3113C18.9661 11.2901 18.9843 11.2676 19.0008 11.2439C18.9844 11.2677 18.9661 11.2901 18.9461 11.3113ZM19.0135 11.2234C19.0282 11.2001 19.0413 11.1762 19.0525 11.1511C19.0414 11.1762 19.0281 11.2001 19.0135 11.2234ZM13.2498 6.94995C13.7164 6.94998 14.1791 7.04192 14.6101 7.22046C15.0412 7.39904 15.4326 7.66106 15.7625 7.99097C16.0924 8.32088 16.3544 8.71227 16.533 9.14331C16.7115 9.57423 16.8034 10.0363 16.8035 10.5027C16.8035 10.6893 16.7293 10.8687 16.5974 11.0007C16.4654 11.1327 16.2861 11.2068 16.0994 11.2068C16.0071 11.2067 15.9151 11.1894 15.8299 11.1541C15.7446 11.1187 15.6666 11.066 15.6013 11.0007C15.5363 10.9355 15.4852 10.8574 15.45 10.7722C15.4147 10.6869 15.3962 10.5951 15.3963 10.5027C15.396 9.93378 15.1696 9.38838 14.7674 8.98608C14.3649 8.58369 13.8189 8.35727 13.2498 8.35718C13.1577 8.35712 13.0663 8.33864 12.9812 8.30347C12.8962 8.26823 12.8179 8.21709 12.7527 8.1521C12.6874 8.08681 12.6348 8.00789 12.5994 7.92261C12.5643 7.83756 12.5458 7.74608 12.5457 7.65405C12.5457 7.56168 12.5641 7.4689 12.5994 7.38354C12.6347 7.29838 12.6875 7.22121 12.7527 7.15601C12.818 7.09076 12.8959 7.03898 12.9812 7.00366C13.0664 6.96847 13.1577 6.94999 13.2498 6.94995ZM19.0926 11.032C19.0858 11.0663 19.0742 11.0993 19.0613 11.1316C19.0743 11.0994 19.0858 11.0662 19.0926 11.032ZM15.9881 11.0623L16.0994 11.074C16.0247 11.0739 15.9506 11.0586 15.8816 11.03L15.9881 11.0623ZM16.0994 11.074C16.1331 11.074 16.1662 11.0692 16.199 11.0632C16.1664 11.069 16.133 11.074 16.0994 11.074ZM16.2312 11.0554C16.2525 11.0502 16.2733 11.0444 16.2937 11.0369C16.2732 11.0443 16.2525 11.0504 16.2312 11.0554ZM15.6971 10.907V10.906V10.907ZM16.5027 10.907C16.5269 10.8828 16.548 10.8557 16.5672 10.8279C16.5479 10.8556 16.5269 10.8828 16.5027 10.907ZM17.9607 10.8425C17.9547 10.4478 17.9039 10.056 17.8084 9.67456C17.9039 10.056 17.9547 10.4479 17.9607 10.8425ZM16.5828 10.8025C16.5952 10.7823 16.6062 10.7615 16.616 10.74C16.6061 10.7615 16.5953 10.7823 16.5828 10.8025ZM15.5301 10.5027C15.53 10.5774 15.5445 10.6524 15.573 10.7214L15.5408 10.615C15.5335 10.5784 15.5301 10.5411 15.5301 10.5037V10.5027ZM16.6326 10.0007C16.6573 10.1668 16.6697 10.335 16.6697 10.5037C16.6697 10.575 16.6551 10.6445 16.6297 10.7097C16.6415 10.6791 16.6525 10.6474 16.659 10.615C16.6662 10.5785 16.6707 10.5404 16.6707 10.5027C16.6707 10.4466 16.6686 10.3906 16.6658 10.3347C16.6602 10.2228 16.6491 10.1113 16.6326 10.0007ZM19.0877 10.5164C19.0835 10.4521 19.0791 10.388 19.073 10.324C19.0792 10.388 19.0835 10.4521 19.0877 10.5164ZM15.4422 9.88257C15.4786 10.0115 15.505 10.1436 15.5183 10.2781L15.4861 10.0564C15.4744 9.99767 15.4584 9.94002 15.4422 9.88257ZM19.0652 10.2537C19.0581 10.1871 19.05 10.1207 19.0408 10.0544C19.05 10.1207 19.0581 10.1871 19.0652 10.2537ZM19.0213 9.91968C19.0122 9.86349 19.0016 9.80762 18.991 9.75171C19.0016 9.80761 19.0122 9.8635 19.0213 9.91968ZM18.9695 9.6394C18.9549 9.56912 18.9387 9.4992 18.9217 9.42944C18.9387 9.49919 18.9548 9.56913 18.9695 9.6394ZM18.8308 9.09546C18.8016 8.99929 18.771 8.90312 18.7371 8.80835L18.6258 8.52124C18.5878 8.42971 18.5478 8.3392 18.5056 8.24976C18.5478 8.3392 18.5879 8.42972 18.6258 8.52124C18.7037 8.70947 18.7717 8.90125 18.8308 9.09546ZM16.0633 8.5603C16.0474 8.53725 16.0309 8.5146 16.0144 8.49194C16.0309 8.5146 16.0473 8.53726 16.0633 8.5603ZM18.4529 8.14429C18.4275 8.09297 18.4025 8.04153 18.3758 7.99097C18.4025 8.04154 18.4276 8.09296 18.4529 8.14429ZM15.6678 8.08472H15.6687H15.6678ZM15.492 7.92163C15.4839 7.91467 15.4757 7.90801 15.4676 7.90112C15.4756 7.90802 15.4839 7.91466 15.492 7.92163ZM18.326 7.90112C18.2962 7.84708 18.2664 7.79311 18.2351 7.73999C18.2664 7.79312 18.2962 7.84707 18.326 7.90112ZM16.4597 7.2937C16.2812 7.11517 16.0903 6.95027 15.8885 6.80054C16.0231 6.90034 16.1526 7.00707 16.2771 7.11987C16.3393 7.17625 16.4003 7.23421 16.4597 7.2937ZM18.159 7.61499C18.13 7.56834 18.1003 7.52219 18.0701 7.47632C18.1003 7.5222 18.13 7.56833 18.159 7.61499ZM18.0174 7.39819C17.9812 7.34501 17.9448 7.29204 17.907 7.23999C17.9448 7.29206 17.9812 7.345 18.0174 7.39819ZM14.3299 7.25854C14.3247 7.25682 14.3194 7.25536 14.3142 7.25366C14.3194 7.25536 14.3247 7.25682 14.3299 7.25854ZM13.1394 7.09351C13.1027 7.10071 13.0666 7.11144 13.032 7.12573L12.9324 7.17944C12.9016 7.20005 12.8728 7.22442 12.8465 7.25073C12.8994 7.19781 12.9629 7.15534 13.032 7.12671C13.1011 7.09816 13.1751 7.08373 13.2498 7.08374V7.08276C13.2127 7.08276 13.1757 7.08637 13.1394 7.09351ZM17.8455 7.15601C17.7966 7.09094 17.7465 7.02678 17.6951 6.96362C17.7465 7.02679 17.7966 7.09093 17.8455 7.15601ZM13.8709 7.14038C13.8453 7.13564 13.8195 7.13184 13.7937 7.12769C13.8195 7.13183 13.8452 7.13565 13.8709 7.14038ZM12.7205 5.78003C12.7571 5.78758 12.7945 5.79073 12.8318 5.79077C13.253 5.79077 13.6721 5.84221 14.0789 5.94409C13.6723 5.84227 13.2538 5.7908 12.8328 5.79077C12.7951 5.79077 12.7572 5.78739 12.7205 5.78003ZM16.3162 5.70776V5.70679V5.70776ZM12.3055 5.43823L12.3064 5.43921L12.3055 5.43823ZM19.1013 10.9138C19.1012 10.8248 19.0994 10.736 19.0955 10.6472C19.0994 10.736 19.1013 10.8248 19.1013 10.9138ZM18.9099 9.38159C18.8868 9.29026 18.862 9.1994 18.8347 9.10913C18.862 9.19939 18.8868 9.29028 18.9099 9.38159Z" fill="currentColor" />
  </g>
  </g>
  </svg>
