<svg width="24" height="24" viewBox="0 0 24 24" fill="none" xmlns="http://www.w3.org/2000/svg">
  <g>
  <path fill-rule="evenodd" clip-rule="evenodd" d="M10.8032 6.59165H18.8135C19.055 6.59165 19.2508 6.79434 19.2508 7.04437V16.9559C19.2508 17.206 19.055 17.4087 18.8135 17.4087H10.8283V6.82722C10.8283 6.74633 10.8197 6.6675 10.8032 6.59165ZM8.71726 6.59165H5.18648C4.94497 6.59165 4.74918 6.79434 4.74918 7.04437V16.9559C4.74918 17.206 4.94497 17.4087 5.18648 17.4087H8.69214V6.82722C8.69214 6.74633 8.70081 6.6675 8.71726 6.59165ZM3 7.04437C3 5.79421 3.97892 4.78076 5.18648 4.78076H18.8135C20.0211 4.78076 21 5.79421 21 7.04437V16.9559C21 18.2061 20.0211 19.2195 18.8135 19.2195H5.18648C3.97892 19.2195 3 18.2061 3 16.9559V7.04437Z" fill="currentColor" />
  </g>
  </svg>
