<svg width="24" height="24" viewBox="0 0 24 24" fill="none" xmlns="http://www.w3.org/2000/svg">
  <g>
  <path d="M19.5891 10.3008C19.5891 6.10546 16.1883 2.70468 11.993 2.70468C7.79767 2.70468 4.39923 6.10546 4.39923 10.3008C4.39923 12.2859 5.16564 14.0859 6.41251 15.4383L6.40782 15.443L6.48282 15.518C6.57892 15.6187 6.67501 15.7172 6.77579 15.8109L11.993 21.0281L17.2102 15.8109C17.3109 15.7148 17.4094 15.6187 17.5031 15.518L17.5781 15.443L17.5734 15.4383C18.8227 14.0859 19.5891 12.2859 19.5891 10.3008ZM11.993 13.5258C10.2117 13.5258 8.76798 12.082 8.76798 10.3008C8.76798 8.51953 10.2117 7.07578 11.993 7.07578C13.7742 7.07578 15.218 8.51953 15.218 10.3008C15.218 12.082 13.7742 13.5258 11.993 13.5258Z" fill="currentColor" />
  </g>
  </svg>
