<svg
  width="24"
  height="24"
  viewBox="0 0 24 24"
  fill="none"
  xmlns="http://www.w3.org/2000/svg"
>
  <g>
    <g>
      <path
        d="M15.8276 20.5348L15.7358 20.533C13.6065 20.4282 10.7311 18.4993 8.04296 15.3732L7.05008 14.2192C4.36196 11.0923 2.95325 8.03889 3.28296 6.05105C3.51545 4.64847 5.68259 3.4649 6.92034 3.4649C7.53077 3.4649 7.75157 3.75706 7.82873 3.93135C8.52946 5.13028 9.3967 7.21525 9.40072 7.96267V8.01636L9.38117 8.06595C9.22643 8.45856 8.8805 8.64693 8.57529 8.8132C8.17346 9.03195 7.94455 9.17586 7.9169 9.58887C7.90836 9.71417 8.02085 10.2847 9.79461 12.3884L10.5529 13.2692C12.3311 15.2895 12.8907 15.5069 13.0214 15.5247C13.4502 15.5821 13.6525 15.4011 13.9602 15.076C14.1952 14.8285 14.4615 14.5469 14.9011 14.4852L14.9567 14.4775L15.0116 14.4887C15.7861 14.646 17.7684 15.8755 18.8938 16.7884C19.0566 16.8922 19.3401 17.2002 19.1158 17.8805C18.7635 18.9491 17.2275 20.5348 15.8276 20.5348Z"
        fill="currentColor"
      />
      <path
        d="M17.715 4.92493C17.997 4.92508 18.2786 5.13697 18.4016 5.40149C18.4427 5.48962 18.466 5.58384 18.466 5.67786V9.18079C18.4643 9.55463 18.2139 9.92968 17.715 9.92981C17.3394 9.92981 16.9651 9.55443 16.965 9.17883V7.42493L14.0871 10.3048C13.8445 10.5473 13.4466 10.6599 13.0851 10.3048C12.7785 10.0029 12.835 9.55372 13.0851 9.30481L15.9621 6.42688H14.2121C13.8365 6.42685 13.4611 6.0515 13.4611 5.6759C13.4612 5.30037 13.8366 4.92496 14.2121 4.92493H17.715Z"
        fill="currentColor"
      />
    </g>
  </g>
</svg>
