<svg
  width="24"
  height="24"
  viewBox="0 0 24 24"
  fill="none"
  xmlns="http://www.w3.org/2000/svg"
>
  <g>
    <path
      d="M12.0507 4.00016C10.4685 3.99013 8.91883 4.4495 7.59771 5.32017C6.27659 6.19085 5.24331 7.43373 4.62855 8.89164C4.01379 10.3496 3.84515 11.957 4.14396 13.5108C4.44277 15.0645 5.19561 16.4948 6.30728 17.6207C7.41894 18.7466 8.83951 19.5176 10.3893 19.8361C11.9392 20.1546 13.5487 20.0065 15.0143 19.4103C16.4799 18.8141 17.7358 17.7967 18.6232 16.4868C19.5106 15.1769 19.9897 13.6332 19.9997 12.051C20.0081 11 19.809 9.9576 19.4137 8.98368C19.0185 8.00976 18.4349 7.12344 17.6964 6.37551C16.9579 5.62758 16.0791 5.03276 15.1103 4.62515C14.1415 4.21754 13.1017 4.00515 12.0507 4.00016ZM11.3893 7.89203C11.3612 7.7936 11.3563 7.68999 11.375 7.58936C11.3938 7.48872 11.4356 7.39381 11.4972 7.31209C11.5589 7.23037 11.6387 7.16407 11.7303 7.11842C11.8219 7.07277 11.9229 7.04901 12.0252 7.04901C12.1276 7.04901 12.2286 7.07277 12.3202 7.11842C12.4118 7.16407 12.4916 7.23037 12.5532 7.31209C12.6149 7.39381 12.6567 7.48872 12.6754 7.58936C12.6942 7.68999 12.6893 7.7936 12.6612 7.89203V13.857C12.6893 13.9554 12.6942 14.0591 12.6754 14.1597C12.6567 14.2603 12.6149 14.3552 12.5532 14.437C12.4916 14.5187 12.4118 14.585 12.3202 14.6306C12.2286 14.6763 12.1276 14.7 12.0252 14.7C11.9229 14.7 11.8219 14.6763 11.7303 14.6306C11.6387 14.585 11.5589 14.5187 11.4972 14.437C11.4356 14.3552 11.3938 14.2603 11.375 14.1597C11.3563 14.0591 11.3612 13.9554 11.3893 13.857V7.89203ZM11.9616 16.9222C11.8598 16.9105 11.7612 16.8788 11.6715 16.8291C11.5819 16.7793 11.5029 16.7123 11.4391 16.632C11.3103 16.4698 11.2512 16.2631 11.2748 16.0573C11.2984 15.8516 11.4028 15.6636 11.565 15.5348C11.6453 15.471 11.7374 15.4237 11.836 15.3955C11.9346 15.3673 12.0378 15.3588 12.1397 15.3705C12.3446 15.396 12.5314 15.5009 12.6598 15.6626C12.7882 15.8244 12.8481 16.03 12.8265 16.2354C12.8155 16.3375 12.7842 16.4365 12.7346 16.5265C12.6851 16.6164 12.6181 16.6957 12.5376 16.7596C12.4572 16.8235 12.3648 16.8707 12.2659 16.8987C12.1671 16.9266 12.0636 16.9346 11.9616 16.9222Z"
      fill="currentColor"
    />
  </g>
</svg>
