<svg
  width="24"
  height="24"
  viewBox="0 0 24 24"
  fill="none"
  xmlns="http://www.w3.org/2000/svg"
>
  <g>
    <path
      d="M20.9775 14.8917L21 14.8827V19.005C21 19.1827 20.9472 19.3565 20.8484 19.5042C20.7497 19.652 20.6093 19.7672 20.4451 19.8352C20.2809 19.9032 20.1002 19.921 19.9258 19.8864C19.7515 19.8517 19.5913 19.7661 19.4656 19.6405L17.4045 17.5793H5.69663C4.98144 17.5793 4.29554 17.2952 3.78982 16.7895C3.28411 16.2838 3 15.5979 3 14.8827V6.79282C3 6.07763 3.28411 5.39173 3.78982 4.88602C4.29554 4.3803 4.98144 4.09619 5.69663 4.09619H18.2809C18.9961 4.09619 19.682 4.3803 20.1877 4.88602C20.6934 5.39173 20.9775 6.07763 20.9775 6.79282V14.8917ZM6.74652 10.8872C8.10382 12.9223 9.87281 13.9838 11.9888 13.9838C14.1047 13.9838 15.8737 12.9232 17.231 10.8872C17.2965 10.789 17.3421 10.6788 17.365 10.563C17.3879 10.4472 17.3878 10.328 17.3647 10.2123C17.3416 10.0965 17.2959 9.98641 17.2302 9.8883C17.1646 9.79019 17.0802 9.70597 16.982 9.64046C16.8838 9.57495 16.7737 9.52942 16.6579 9.50648C16.542 9.48353 16.4229 9.48363 16.3071 9.50675C16.1913 9.52987 16.0812 9.57556 15.9831 9.64123C15.885 9.70689 15.8008 9.79124 15.7353 9.88945C14.6944 11.4499 13.4683 12.1861 11.9888 12.1861C10.5092 12.1861 9.28315 11.449 8.24225 9.88945C8.10994 9.6911 7.90425 9.55344 7.67044 9.50675C7.43663 9.46005 7.19385 9.50815 6.99551 9.64046C6.79716 9.77277 6.6595 9.97846 6.6128 10.2123C6.56611 10.4461 6.61421 10.6889 6.74652 10.8872Z"
      fill="currentColor"
    />
  </g>
</svg>
