<svg width="24" height="24" viewBox="0 0 24 24" fill="none" xmlns="http://www.w3.org/2000/svg">
  <g>
  <path fill-rule="evenodd" clip-rule="evenodd" d="M4.10582 5.28085C3.84567 5.28085 3.63281 5.4937 3.63281 5.75385V6.89202C3.63281 7.15218 3.84567 7.36503 4.10582 7.36503H6.06288V7.93264C6.06288 8.19279 6.27573 8.40564 6.53589 8.40564H7.67406C7.93421 8.40564 8.14706 8.19279 8.14706 7.93264V7.36503H19.8274C20.0875 7.36503 20.3004 7.15218 20.3004 6.89202V5.75385C20.3004 5.4937 20.0875 5.28085 19.8274 5.28085H8.14706V4.71324C8.14706 4.45309 7.93421 4.24023 7.67406 4.24023H6.53589C6.27573 4.24023 6.06288 4.45309 6.06288 4.71324V5.28085H4.10582ZM12.2862 18.7615H8.14706V19.3291C8.14706 19.5893 7.93421 19.8021 7.67406 19.8021H6.53589C6.27573 19.8021 6.06288 19.5893 6.06288 19.3291V18.7615H4.13538C3.87523 18.7615 3.66238 18.5487 3.66238 18.2885V17.1503C3.66238 16.8902 3.87523 16.6773 4.13538 16.6773H6.06288V16.1097C6.06288 15.8496 6.27573 15.6367 6.53589 15.6367H7.67406C7.93421 15.6367 8.14706 15.8496 8.14706 16.1097V16.6773H11.6295C11.6086 16.4813 11.5979 16.2822 11.5979 16.0806C11.5979 14.9665 11.9252 13.93 12.489 13.0618H4.13538C3.87523 13.0618 3.66238 12.8489 3.66238 12.5888V11.4506C3.66238 11.1905 3.87523 10.9776 4.13538 10.9776H14.9685C15.6356 10.6937 16.3701 10.5367 17.1418 10.5367C20.2076 10.5367 22.6858 13.0148 22.6858 16.0806C22.6858 19.1464 20.2076 21.6246 17.1418 21.6246C15.049 21.6246 13.23 20.4698 12.2862 18.7615ZM19.1321 18.8526L19.9138 18.0709L17.9235 16.0806L19.9138 14.0903L19.1321 13.3087L17.1418 15.2989L15.1516 13.3087L14.3699 14.0903L16.3601 16.0806L14.3699 18.0709L15.1516 18.8526L17.1418 16.8623L19.1321 18.8526Z" fill="currentColor" />
  </g>
  </svg>
