<svg width="24" height="24" viewBox="0 0 24 24" fill="none" xmlns="http://www.w3.org/2000/svg">
  <g>
  <path d="M19.7812 3.7547L2.90859 8.27579C2.625 8.35079 2.53125 8.7047 2.7375 8.91329L7.96406 14.1399C8.10234 14.2781 8.32031 14.2899 8.47031 14.168L15.2812 8.71876L9.83203 15.5297C9.825 15.5391 9.82265 15.5484 9.81797 15.5578C9.81328 15.5649 9.81094 15.5742 9.8039 15.5813C9.77578 15.6305 9.75937 15.6844 9.75469 15.7406C9.75234 15.7547 9.74297 15.7641 9.74297 15.7805V18.8297C9.74297 19.1672 10.1508 19.3359 10.3898 19.0969L11.6508 17.8289L15.0891 21.2672C15.2953 21.4734 15.6492 21.3797 15.7266 21.0961L20.2477 4.22345C20.3227 3.93751 20.0625 3.6797 19.7812 3.7547Z" fill="currentColor" />
  </g>
  </svg>
