<svg width="24" height="24" viewBox="0 0 24 24" fill="none" xmlns="http://www.w3.org/2000/svg">
  <g>
  <g>
  <path d="M15.8276 20.5348L15.7358 20.533C13.6065 20.4282 10.7311 18.4993 8.04296 15.3732L7.05008 14.2192C4.36196 11.0923 2.95325 8.03889 3.28296 6.05105C3.51545 4.64847 5.68259 3.4649 6.92034 3.4649C7.53077 3.4649 7.75157 3.75706 7.82873 3.93135C8.52946 5.13028 9.3967 7.21525 9.40072 7.96267V8.01636L9.38117 8.06595C9.22643 8.45856 8.8805 8.64693 8.57529 8.8132C8.17346 9.03195 7.94455 9.17586 7.9169 9.58887C7.90836 9.71417 8.02085 10.2847 9.79461 12.3884L10.5529 13.2692C12.3311 15.2895 12.8907 15.5069 13.0214 15.5247C13.4502 15.5821 13.6525 15.4011 13.9602 15.076C14.1952 14.8285 14.4615 14.5469 14.9011 14.4852L14.9567 14.4775L15.0116 14.4887C15.7861 14.646 17.7684 15.8755 18.8938 16.7884C19.0566 16.8922 19.3401 17.2002 19.1158 17.8805C18.7635 18.9491 17.2275 20.5348 15.8276 20.5348Z" fill="currentColor" />
  <path d="M13.6269 10.5308C13.3449 10.5307 13.0633 10.3188 12.9404 10.0543C12.8992 9.96613 12.8759 9.87191 12.8759 9.77789V6.27496C12.8777 5.90112 13.128 5.52607 13.6269 5.52594C14.0025 5.52594 14.3769 5.90132 14.3769 6.27692V8.03082L17.2548 5.15094C17.4974 4.90848 17.8953 4.79589 18.2568 5.15094C18.5634 5.45286 18.5069 5.90203 18.2568 6.15094L15.3798 9.02887H17.1298C17.5054 9.0289 17.8808 9.40425 17.8808 9.77985C17.8807 10.1554 17.5054 10.5308 17.1298 10.5308H13.6269Z" fill="currentColor" />
  </g>
  </g>
  </svg>
