<svg
  width="24"
  height="24"
  viewBox="0 0 24 24"
  fill="none"
  xmlns="http://www.w3.org/2000/svg"
>
  <g>
    <path
      d="M20.8978 1.54059C20.9952 1.60664 21.0438 1.70385 21.0438 1.83283V17.4104C21.0438 18.2217 20.7192 18.8789 20.0701 19.3819C19.421 19.886 18.5774 20.1365 17.5389 20.1365C16.5004 20.1365 15.6565 19.886 15.0074 19.3819C14.3583 18.8789 14.0339 18.2217 14.0339 17.4104C14.0339 16.6 14.3583 15.9428 15.0074 15.4387C15.6565 14.9359 16.5004 14.6844 17.5389 14.6844H19.4861C20.0053 14.6844 20.2649 14.4247 20.2649 13.9055V6.99274L7.80286 9.18337V19.7471C7.80286 20.5583 7.47822 21.2155 6.82917 21.7185C6.1801 22.2226 5.33642 22.4731 4.29793 22.4731C3.25943 22.4731 2.41554 22.2226 1.76647 21.7185C1.1174 21.2155 0.792969 20.5583 0.792969 19.7471C0.792969 18.9366 1.1174 18.2794 1.76647 17.7754C2.41554 17.2725 3.25943 17.021 4.29793 17.021H6.24512C6.76437 17.021 7.02399 16.7614 7.02399 16.2421V4.16945C7.02399 3.97463 7.1376 3.84586 7.36483 3.78L20.6058 1.44336C20.7356 1.44338 20.8328 1.47579 20.8978 1.54059Z"
      fill="currentColor"
    />
  </g>
</svg>
