<svg width="23" height="23" viewBox="0 0 23 23" fill="none" xmlns="http://www.w3.org/2000/svg">
  <g>
  <path d="M16.7874 8.83888C16.9146 8.96613 17.1219 8.96613 17.2512 8.83888L18.7681 7.32204C18.8953 7.19479 18.8953 6.98748 18.7681 6.85817L16.0053 4.09544C15.8781 3.96819 15.6708 3.96819 15.5415 4.09544L14.0246 5.61227C13.8974 5.73953 13.8974 5.94684 14.0246 6.07615L16.7874 8.83888ZM15.72 9.88978L12.9737 7.14347C12.8403 7.01006 12.6268 7.01006 12.4934 7.14347L4.11084 15.5261C4.04721 15.5897 4.01232 15.6759 4.01232 15.7642L4 18.5207C4 18.7096 4.15189 18.8635 4.34072 18.8615L7.09729 18.8491C7.1876 18.8491 7.27176 18.8122 7.33539 18.7506L15.718 10.368C15.8534 10.2367 15.8534 10.0211 15.72 9.88978ZM18.6593 17.3446H10.8124C10.72 17.3446 10.6318 17.3816 10.5681 17.4473L9.77176 18.2662C9.5624 18.4817 9.71429 18.843 10.016 18.843H18.6593C18.8481 18.843 19 18.6911 19 18.5023V17.6833C19 17.4965 18.8481 17.3446 18.6593 17.3446Z" fill="currentColor" />
  </g>
  </svg>
