<svg width="24" height="24" viewBox="0 0 24 24" fill="none" xmlns="http://www.w3.org/2000/svg">
  <g>
  <path fill-rule="evenodd" clip-rule="evenodd" d="M10.3501 4.61848C10.8833 4.51058 11.435 4.45391 12.0004 4.45391C12.5658 4.45391 13.1175 4.51058 13.6506 4.61848C13.9754 4.6842 14.292 4.4742 14.3577 4.14941C14.4235 3.82462 14.2135 3.50805 13.8887 3.44232C13.2777 3.31867 12.6462 3.25391 12.0004 3.25391C11.3546 3.25391 10.7231 3.31867 10.1121 3.44232C9.78732 3.50805 9.57731 3.82462 9.64304 4.14941C9.70877 4.4742 10.0253 4.6842 10.3501 4.61848ZM7.31277 5.90569C7.58618 5.71846 7.65604 5.34504 7.46882 5.07163C7.28159 4.79822 6.90817 4.72836 6.63476 4.91558C5.59073 5.63052 4.69339 6.54789 3.99698 7.61186C3.8155 7.88911 3.89314 8.26099 4.1704 8.44247C4.44766 8.62395 4.81954 8.5463 5.00102 8.26905C5.61204 7.33554 6.39886 6.53153 7.31277 5.90569ZM17.366 4.91559C17.0926 4.72836 16.7192 4.79822 16.532 5.07163C16.3447 5.34504 16.4146 5.71846 16.688 5.90569C17.6019 6.53153 18.3887 7.33554 18.9998 8.26905C19.1812 8.5463 19.5531 8.62395 19.8304 8.44247C20.1076 8.26099 20.1853 7.88911 20.0038 7.61186C19.3074 6.54789 18.41 5.63052 17.366 4.91559ZM21.4207 11.1063C21.3577 10.781 21.043 10.5682 20.7176 10.6312C20.3923 10.6941 20.1796 11.0088 20.2425 11.3342C20.346 11.8696 20.4004 12.4233 20.4004 12.9906C20.4004 13.5415 20.3491 14.0796 20.2514 14.6005C20.1902 14.9262 20.4047 15.2397 20.7304 15.3009C21.056 15.362 21.3696 15.1475 21.4308 14.8219C21.5422 14.2283 21.6004 13.6161 21.6004 12.9906C21.6004 12.3465 21.5386 11.7164 21.4207 11.1063ZM3.7583 11.3342C3.82122 11.0088 3.60849 10.6941 3.28315 10.6312C2.9578 10.5682 2.64305 10.781 2.58013 11.1063C2.46214 11.7164 2.40039 12.3465 2.40039 12.9906C2.40039 13.6161 2.45861 14.2283 2.57003 14.8219C2.63116 15.1475 2.94473 15.362 3.27042 15.3009C3.5961 15.2397 3.81056 14.9262 3.74943 14.6005C3.65165 14.0796 3.60039 13.5415 3.60039 12.9906C3.60039 12.4233 3.65476 11.8696 3.7583 11.3342ZM4.9244 17.593C4.74754 17.3127 4.37699 17.229 4.09677 17.4058C3.81654 17.5827 3.73276 17.9532 3.90962 18.2335C4.23897 18.7553 4.61604 19.2431 5.03463 19.6906C5.139 19.8022 5.27597 19.8651 5.41701 19.8782C5.4437 20.0306 5.57631 20.146 5.73655 20.146H18.2164C18.3757 20.146 18.5077 20.0319 18.5354 19.8807C18.6932 19.8787 18.8499 19.8149 18.9661 19.6906C19.3847 19.2431 19.7618 18.7553 20.0912 18.2335C20.268 17.9532 20.1842 17.5827 19.904 17.4058C19.6238 17.229 19.2532 17.3127 19.0764 17.593C18.9069 17.8615 18.723 18.1197 18.5259 18.3665C18.3401 16.1011 16.4425 14.3203 14.1292 14.3203H9.82371C7.5289 14.3203 5.64322 16.0727 5.43182 18.3122C5.25091 18.0819 5.08147 17.8418 4.9244 17.593ZM9.28564 7.18075C9.21218 7.26033 9.1428 7.34195 9.07546 7.42561L9.02649 7.49294C8.96732 7.57048 8.91222 7.6521 8.86121 7.73373C8.84284 7.76229 8.82448 7.7929 8.80816 7.82147C8.76122 7.89901 8.71837 7.98063 8.67756 8.06225C8.6592 8.09898 8.64287 8.13367 8.62655 8.1704C8.58982 8.24998 8.55921 8.32956 8.5286 8.41118C8.52146 8.43158 8.51381 8.45199 8.50616 8.47239C8.49851 8.4928 8.49086 8.5132 8.48371 8.53361C8.45719 8.61522 8.43475 8.69887 8.4123 8.78252L8.41229 8.78255C8.40821 8.79969 8.40348 8.81683 8.39875 8.83397L8.39874 8.834C8.39164 8.8597 8.38454 8.8854 8.37965 8.9111C8.36128 9.00089 8.347 9.09067 8.33476 9.18249C8.33249 9.19757 8.32995 9.21237 8.32745 9.22699C8.32316 9.25195 8.31896 9.2764 8.31639 9.30084C8.30211 9.43144 8.29395 9.56611 8.29395 9.70078C8.29395 9.87219 8.31027 10.0416 8.33272 10.2068L8.3419 10.267L8.35108 10.3272C8.37965 10.4905 8.41434 10.6517 8.46331 10.8067C8.46331 10.8078 8.46382 10.8093 8.46433 10.8108C8.46484 10.8124 8.46535 10.8139 8.46535 10.8149C8.51432 10.97 8.57554 11.1169 8.64287 11.2618C8.65104 11.2781 8.65869 11.2944 8.66635 11.3108C8.674 11.3271 8.68165 11.3434 8.68981 11.3597C8.76326 11.5046 8.84284 11.6474 8.93467 11.7801L8.93671 11.7821C9.02853 11.9168 9.13056 12.0413 9.2387 12.1616L9.29992 12.229C9.52438 12.4698 9.78148 12.6779 10.0651 12.8513L10.0651 12.8514C10.0876 12.8656 10.11 12.8799 10.1325 12.8922C10.2773 12.9779 10.4283 13.0554 10.5854 13.1187C11.0201 13.2982 11.4976 13.3982 11.9975 13.3982C12.4974 13.3982 12.9729 13.2982 13.4075 13.1187C13.5646 13.0534 13.7156 12.9758 13.8625 12.8901C13.8737 12.884 13.8845 12.8774 13.8952 12.8707C13.9059 12.8641 13.9166 12.8575 13.9278 12.8513C14.2114 12.6779 14.4686 12.4677 14.695 12.2269L14.7149 12.2055C14.7285 12.191 14.7418 12.1768 14.7542 12.1616C14.8624 12.0413 14.9644 11.9147 15.0562 11.7801L15.0583 11.778C15.1501 11.6434 15.2297 11.5026 15.3031 11.3556C15.3113 11.3393 15.3189 11.323 15.3266 11.3067C15.3342 11.2903 15.3419 11.274 15.3501 11.2577C15.4174 11.1128 15.4786 10.9659 15.5276 10.8108C15.5286 10.8088 15.5291 10.8073 15.5296 10.8057C15.5301 10.8042 15.5306 10.8027 15.5317 10.8006C15.5806 10.6455 15.6153 10.4843 15.6439 10.3211L15.6531 10.2609L15.6623 10.2007C15.6847 10.0354 15.701 9.86607 15.701 9.69466C15.701 9.55999 15.6929 9.42531 15.6786 9.29472C15.6759 9.26821 15.6716 9.24256 15.6671 9.21665C15.6648 9.20268 15.6624 9.18863 15.6602 9.17433C15.648 9.08455 15.6337 8.99273 15.6153 8.90498C15.6102 8.88253 15.6046 8.86111 15.599 8.83968C15.5934 8.81825 15.5878 8.79683 15.5827 8.77439C15.5623 8.69073 15.5398 8.60911 15.5113 8.52749C15.5041 8.50709 15.4965 8.48669 15.4888 8.46629C15.4812 8.44588 15.4735 8.42547 15.4664 8.40506C15.4358 8.32344 15.4031 8.24386 15.3684 8.16428C15.3562 8.13679 15.3428 8.11045 15.3292 8.08354L15.3292 8.08352L15.3154 8.05613C15.2746 7.97451 15.2317 7.89493 15.1868 7.81739L15.1713 7.79128C15.1588 7.77024 15.1468 7.74994 15.1338 7.72964C15.0807 7.64598 15.0256 7.5664 14.9685 7.48886C14.9522 7.46642 14.9358 7.44397 14.9195 7.42357C14.8522 7.33787 14.7828 7.25624 14.7093 7.17666C14.7032 7.17054 14.6976 7.16391 14.692 7.15728C14.6864 7.15065 14.6808 7.14402 14.6746 7.13789C14.5869 7.04607 14.4971 6.96037 14.4012 6.87875C13.7544 6.32781 12.9178 5.99316 12.0036 5.99316C11.0874 5.99316 10.2508 6.32781 9.606 6.87875C9.51009 6.96037 9.42031 7.04607 9.33257 7.13789C9.31397 7.15029 9.30361 7.16151 9.29434 7.17156L9.29434 7.17156C9.29141 7.17474 9.28858 7.1778 9.28564 7.18075Z" fill="currentColor" />
  </g>
  </svg>
