<svg width="24" height="24" viewBox="0 0 24 24" fill="none" xmlns="http://www.w3.org/2000/svg">
  <g>
  <path d="M10.5241 17.0839C10.365 17.0855 10.2107 17.0294 10.0897 16.926L6.24584 13.7403C6.10619 13.6233 6.01872 13.4557 6.00267 13.2742C5.98663 13.0928 6.04332 12.9124 6.16028 12.7727C6.27723 12.6331 6.44488 12.5456 6.62633 12.5296C6.80778 12.5135 6.98817 12.5702 7.12783 12.6872L10.4188 15.4121L16.7638 7.18462C16.8756 7.03974 17.0403 6.94516 17.2217 6.92171C17.4032 6.89826 17.5865 6.94785 17.7314 7.05957C17.8763 7.17129 17.9709 7.33599 17.9943 7.51744C18.0178 7.69889 17.9682 7.88223 17.8564 8.02712L11.077 16.8206C10.9574 16.9644 10.7884 17.0583 10.6031 17.0839H10.5241Z" fill="currentColor" />
  </g>
  </svg>
