<svg
  width="24"
  height="24"
  viewBox="0 0 24 24"
  fill="none"
  xmlns="http://www.w3.org/2000/svg"
>
  <g>
    <path
      d="M15.2143 8.51571C14.6897 5.27571 13.4477 3 12.0039 3C10.56 3 9.31671 5.27571 8.79086 8.51571H15.2143ZM9.43371 3.37671C8.15782 3.75659 6.98196 4.41447 5.99068 5.30304C4.9994 6.19162 4.21733 7.28881 3.70071 8.51571H7.62214C7.93714 6.45086 8.54657 4.60329 9.43243 3.37671H9.43371ZM20.3057 8.51571C19.7882 7.28873 19.0053 6.19158 18.0134 5.30306C17.0215 4.41453 15.8452 3.75666 14.5689 3.37671C15.4534 4.60329 16.0641 6.44957 16.383 8.51571H20.3044H20.3057ZM7.35729 12C7.35729 11.2209 7.401 10.4379 7.47686 9.678H3.31243C3.10814 10.4352 3.00312 11.2157 3 12C3 12.8049 3.11571 13.5789 3.31243 14.322H7.47171C7.39702 13.5502 7.35841 12.7754 7.356 12H7.35729ZM8.517 12C8.517 12.8061 8.562 13.5789 8.63786 14.322H15.3621C15.4393 13.5763 15.483 12.8049 15.483 12C15.483 11.1964 15.4393 10.4211 15.3621 9.678H8.63786C8.56071 10.4211 8.517 11.1951 8.517 12ZM20.6901 9.678H16.5283C16.6054 10.4404 16.6491 11.2209 16.6491 12C16.6491 12.7791 16.6041 13.5621 16.5283 14.322H20.6876C20.8869 13.5763 21 12.8049 21 12C21 11.1964 20.8869 10.4211 20.6901 9.678ZM14.5714 20.6207C15.8472 20.2399 17.0229 19.5817 18.0145 18.6932C19.006 17.8048 19.7889 16.7081 20.307 15.4817H16.3843C16.0641 17.5491 15.4573 19.3967 14.5714 20.6207ZM3.70071 15.4843C4.21827 16.7113 5.00111 17.8084 5.99301 18.6969C6.98491 19.5855 8.16125 20.2433 9.43757 20.6233C8.55043 19.3967 7.941 17.5504 7.62214 15.4843H3.70071ZM8.78957 15.4843C9.31671 18.7243 10.56 21 12.0026 21C13.4464 21 14.6871 18.7243 15.2143 15.4843H8.78957Z"
      fill="currentColor"
    />
  </g>
</svg>
