<svg
  width="24"
  height="24"
  viewBox="0 0 24 24"
  fill="none"
  xmlns="http://www.w3.org/2000/svg"
>
  <g>
    <g>
      <g>
        <path
          fill-rule="evenodd"
          clip-rule="evenodd"
          d="M6.77551 8.06531V12.1306C5.62449 12.1306 4.69388 11.2245 4.7102 10.1061C4.7102 9.33878 5.13469 8.67755 5.77143 8.32653C6.66122 5.81224 9.10204 4 11.9837 4C14.8571 4 17.298 5.80408 18.1959 8.32653C18.8245 8.67755 19.2571 9.34694 19.2571 10.1061C19.2571 11.2245 18.3265 12.1388 17.1755 12.1388V8.06531C17.2327 8.06531 17.2898 8.06531 17.3469 8.07347C16.4245 6.07347 14.3673 4.67755 11.9755 4.67755C9.58367 4.67755 7.52653 6.07347 6.60408 8.07347C6.66122 8.06531 6.71837 8.06531 6.77551 8.06531ZM14.1775 15.8274C13.488 16.0664 12.7464 16.1959 11.9755 16.1959C10.2449 16.1959 8.66122 15.5429 7.48571 14.4653C5.37959 15.5347 4 17.4204 4 19.9837H14.7945C14.2443 19.2416 13.9189 18.3229 13.9189 17.3281C13.9189 16.8016 14.0101 16.2964 14.1775 15.8274ZM11.9755 6.03125C9.48573 6.03125 7.4694 8.00676 7.4694 10.4394C7.4694 12.8721 9.48573 14.8476 11.9755 14.8476C14.4653 14.8476 16.4816 12.8721 16.4816 10.4394C16.4735 8.00676 14.4572 6.03125 11.9755 6.03125ZM12 12.9864C11.249 12.9864 10.6367 12.5374 10.6367 11.9823H13.3633C13.3633 12.5374 12.751 12.9864 12 12.9864ZM14.5407 17.2993C14.5407 15.3507 16.1258 13.7656 18.0744 13.7656C20.023 13.7656 21.6081 15.3507 21.6081 17.2993C21.6081 19.2479 20.023 20.833 18.0744 20.833C16.1258 20.833 14.5407 19.2479 14.5407 17.2993ZM17.8232 17.8041H19.3306C19.4699 17.8041 19.583 17.6913 19.583 17.5517C19.583 17.4124 19.4702 17.2993 19.3306 17.2993H18.0744V15.5411C18.0744 15.4017 17.9613 15.2886 17.822 15.2886C17.6826 15.2886 17.5696 15.4017 17.5696 15.5411V17.5505C17.5696 17.69 17.6839 17.8041 17.8232 17.8041Z"
          fill="currentColor"
        />
      </g>
    </g>
  </g>
</svg>
