<svg width="16" height="16" viewBox="0 0 16 16" fill="none" xmlns="http://www.w3.org/2000/svg">
  <g>
  <path d="M6.43799 9.19666C6.49538 9.25406 6.52986 9.33042 6.53496 9.41143C6.54005 9.49244 6.51541 9.57253 6.46566 9.63666L6.43799 9.66766L6.20233 9.90333C6.14497 9.96077 6.06863 9.99531 5.98762 10.0005C5.90661 10.0056 5.8265 9.98104 5.76233 9.93133L5.73066 9.90333L2.90166 7.06399C2.83927 7.0015 2.80423 6.9168 2.80423 6.82849C2.80423 6.74019 2.83927 6.65549 2.90166 6.59299L5.73066 3.76433C5.76162 3.73333 5.79838 3.70875 5.83885 3.69197C5.87931 3.6752 5.92269 3.66656 5.96649 3.66656C6.0103 3.66656 6.05367 3.6752 6.09414 3.69197C6.13461 3.70875 6.17137 3.73333 6.20233 3.76433L6.43799 3.99999C6.50048 4.0625 6.53559 4.14727 6.53559 4.23566C6.53559 4.32405 6.50048 4.40882 6.43799 4.47133L4.56966 6.33933H10.1823C11.0066 6.33934 11.7984 6.66074 12.3894 7.23524C12.9805 7.80975 13.3242 8.59207 13.3477 9.41599L13.349 9.50599V12.1727H12.349V9.50599C12.349 8.9448 12.1313 8.40548 11.7416 8.0016C11.352 7.59772 10.8208 7.36078 10.26 7.34066L10.1823 7.33933H4.58099L6.43766 9.19633L6.43799 9.19666Z" fill="currentColor" />
  </g>
  </svg>
