<svg width="24" height="24" viewBox="0 0 24 24" fill="none" xmlns="http://www.w3.org/2000/svg">
  <g>
  <path d="M11.8368 12C12.7594 12.0048 13.6627 11.7356 14.4322 11.2265C15.2017 10.7175 15.8028 9.99156 16.1594 9.14062C16.516 8.28968 16.612 7.35205 16.4353 6.4465C16.2586 5.54095 15.817 4.70822 15.1667 4.0538C14.5163 3.39939 13.6863 2.95272 12.7819 2.77039C11.8774 2.58805 10.9392 2.67826 10.0861 3.02957C9.23297 3.38088 8.5033 3.9775 7.98952 4.74384C7.47574 5.51018 7.20096 6.41177 7.2 7.33441C7.19871 8.56721 7.6859 9.75031 8.55493 10.6247C9.42395 11.4992 10.604 11.9937 11.8368 12ZM16.2624 13.056H7.4064C6.37778 13.056 5.3913 13.4646 4.66396 14.192C3.93662 14.9193 3.528 15.9058 3.528 16.9344C3.528 17.963 3.93662 18.9495 4.66396 19.6769C5.3913 20.4042 6.37778 20.8128 7.4064 20.8128H11.28L16.8 13.0944C16.6219 13.0693 16.4423 13.0565 16.2624 13.056ZM21.3744 16.4928C20.0496 15.5328 20.4144 15 19.1088 14.0544C18.6294 13.721 18.0757 13.5101 17.496 13.44L15.8064 15.792L12.1776 20.8752L12.6048 21.1776L15.144 17.6256C15.52 17.7339 15.8753 17.9042 16.1952 18.1296C17.5248 19.0896 17.1552 19.6224 18.4656 20.5728C19.0659 20.9574 19.7392 21.214 20.4432 21.3264L23.352 17.2512C22.6475 17.1377 21.9741 16.8795 21.3744 16.4928Z" fill="currentColor" />
  </g>
  </svg>
