<svg width="24" height="24" viewBox="0 0 24 24" fill="none" xmlns="http://www.w3.org/2000/svg">
  <g>
  <path d="M12 3C7.03714 3 3 7.03714 3 12C3 16.9629 7.03714 21 12 21C16.9629 21 21 16.9629 21 12C21 7.03714 16.9629 3 12 3ZM15.1995 13.2857H11.3604C11.0055 13.2857 10.7143 12.9951 10.7143 12.6396V7.52186C10.7143 7.167 11.0023 6.879 11.3571 6.879C11.712 6.879 12 7.167 12 7.52186V12H15.1995C15.555 12 15.8424 12.288 15.8424 12.6429C15.8424 12.9984 15.5544 13.2857 15.1995 13.2857Z" fill="currentColor" />
  </g>
  </svg>
