<svg width="24" height="24" viewBox="0 0 24 24" fill="none" xmlns="http://www.w3.org/2000/svg">
  <g>
  <path d="M21.1195 5.49609H12.7711L12.2977 2.96484H3.8789C2.58281 2.96484 1.52109 3.88125 1.52109 5.02266V15.4383C1.52109 16.5703 2.58046 17.4961 3.8789 17.4961H10.5586V19.4297C10.5586 20.3344 11.1562 21.0352 11.918 21.0352H21.1195C21.8812 21.0352 22.4789 20.3344 22.4789 19.4297V7.10156C22.4766 6.21563 21.8695 5.49609 21.1195 5.49609ZM7.81171 13.6992H3.14999V6.87422H7.66874V7.88203H4.12734V9.69375H7.46249V10.6711H4.12734V12.7406H7.81171V13.6992ZM10.6617 9.49922C9.97265 9.56016 9.60234 9.94219 9.53906 10.6406V13.6969H8.62499V8.67656H9.5414V9.29297C9.80859 8.81953 10.2211 8.57344 10.7766 8.57344C11.8875 8.53125 12.4336 9.18047 12.3914 10.5094V13.6992H11.4445V10.6102C11.4445 9.86953 11.1773 9.49922 10.6617 9.49922ZM21.1594 19.4297C21.1594 19.6055 21.0867 19.7086 21.1172 19.718L11.9789 19.7273C11.9484 19.7063 11.8758 19.6031 11.8758 19.4297V17.4938H15.0351L13.0172 6.81094L21.0562 6.80156C21.0867 6.82266 21.1594 6.92578 21.1594 7.09922V19.4297Z" fill="currentColor" />
  <path d="M17.2172 14.5312C17.9063 13.7601 18.3703 12.75 18.607 11.5265H19.8727V10.589H17.2805L17.1984 10.4461C16.9617 9.96326 16.7766 9.63279 16.643 9.42654L16.5399 9.27185L15.7055 9.71482L15.7875 9.89998C15.9516 10.2187 16.0664 10.4344 16.1484 10.589H14.6859L15.3047 13.8633V13.8726C15.4477 14.1 15.6141 14.325 15.7875 14.5312C15.6844 14.6039 15.5813 14.6742 15.4594 14.7375L15.6445 15.7148C15.9844 15.5297 16.2609 15.3539 16.4977 15.1898C17.0953 15.6422 18.0422 16.0945 19.3805 16.5586L19.5445 16.6101L19.6266 16.4672C19.6688 16.4062 19.7203 16.3125 19.8117 16.1484C19.8633 16.0148 19.9055 15.9117 19.9359 15.839L20.0484 15.6023L19.8024 15.5508C18.6586 15.2719 17.7938 14.9344 17.2172 14.5312ZM15.3234 11.5265H17.618C17.4539 12.4429 17.0836 13.2258 16.5164 13.8726C15.9305 13.2047 15.5297 12.4125 15.3234 11.5265Z" fill="currentColor" />
  </g>
  </svg>
