<svg width="24" height="24" viewBox="0 0 24 24" fill="none" xmlns="http://www.w3.org/2000/svg">
  <g>
  <g>
  <path d="M10.7928 13.2361L8.46667 16.1716V18.1714C8.48778 18.1908 8.51573 18.2011 8.5444 18.2H16.4556C16.4843 18.201 16.5122 18.1908 16.5333 18.1714V16.1716L14.194 13.2199L10.7928 13.2361ZM7 6.48793C7 5.616 7.74287 5 8.5444 5H16.2525C17.054 5 17.7969 5.616 17.7969 6.48793V8.51707C17.7969 8.82947 17.6949 9.1294 17.5131 9.378L15.3497 12.3165L17.6832 15.2608C17.8856 15.5167 18 15.8328 18 16.1643V18.1787C18 19.0507 17.2571 19.6667 16.4556 19.6667H8.5444C7.74287 19.6667 7 19.0507 7 18.1787V16.1643C7 15.8328 7.1144 15.5167 7.3168 15.2608L9.63707 12.3333L7.3168 9.40587C7.11215 9.14916 7.00048 8.8307 7 8.5024V6.48793ZM9.83947 16.6703C9.83947 16.4758 9.91673 16.2892 10.0543 16.1517C10.1918 16.0142 10.3783 15.9369 10.5728 15.9369H14.4272C14.6217 15.937 14.8082 16.0142 14.9457 16.1518C15.0832 16.2893 15.1604 16.4758 15.1604 16.6703C15.1604 16.8647 15.0832 17.0512 14.9457 17.1888C14.8082 17.3263 14.6217 17.4036 14.4272 17.4036H10.5728C10.3783 17.4036 10.1918 17.3263 10.0543 17.1888C9.91673 17.0513 9.83947 16.8648 9.83947 16.6703Z" fill="currentColor" />
  </g>
  </g>
  </svg>
