<svg xmlns="http://www.w3.org/2000/svg" fill="none" viewBox="0 0 190 36" class="package-ycloud-logo">
  <g transform="translate(0.5 4.5) scale(1)">
    <path d="M29.6765 8.88956C29.3765 8.89138 29.0777 8.92851 28.7864 9.0002C27.8328 6.56706 26.1673 4.47821 24.0077 3.00673C21.848 1.53524 19.2946 0.749582 16.6813 0.752449C14.0695 0.753489 11.5185 1.54077 9.36035 3.01182C7.20222 4.48286 5.53692 6.56953 4.58122 9.0002C3.71815 8.7746 2.80089 8.89928 2.02935 9.34707C1.25781 9.79486 0.694538 10.5295 0.46229 11.3908C0.230042 12.2521 0.347648 13.1703 0.789478 13.9452C1.23131 14.7202 1.96154 15.2891 2.82103 15.528C3.10237 15.6082 3.3935 15.6488 3.68604 15.6487H3.82686C4.28361 18.7318 5.83291 21.5482 8.1924 23.5846C10.5519 25.621 13.5645 26.7419 16.6813 26.7429C19.7982 26.7423 22.811 25.6216 25.1706 23.5851C27.5302 21.5486 29.0793 18.732 29.5357 15.6487H29.6765C30.1249 15.6642 30.5719 15.5902 30.9915 15.4312C31.411 15.2721 31.7947 15.0311 32.1201 14.7223C32.4456 14.4134 32.7063 14.0429 32.8871 13.6322C33.0679 13.2216 33.1651 12.7791 33.1731 12.3305C33.1811 11.8819 33.0997 11.4362 32.9337 11.0194C32.7677 10.6025 32.5204 10.2229 32.2062 9.90263C31.892 9.58236 31.5171 9.32784 31.1036 9.15391C30.69 8.97998 30.2459 8.89012 29.7972 8.88956H29.6765ZM23.5561 13.6873L21.303 14.9849L20.6291 15.3771L20.0659 15.699V19.7223C20.0444 20.6043 19.6789 21.443 19.0474 22.0592C18.416 22.6755 17.5686 23.0204 16.6863 23.0204C15.804 23.0204 14.9567 22.6755 14.3252 22.0592C13.6938 21.443 13.3283 20.6043 13.3067 19.7223V15.699L12.7435 15.3771L12.0696 14.9849L9.81654 13.6873C9.04026 13.2392 8.47381 12.501 8.2418 11.6352C8.00979 10.7694 8.13122 9.84689 8.57937 9.07061C9.02753 8.29434 9.76571 7.72789 10.6315 7.49587C11.4973 7.26386 12.4198 7.38529 13.1961 7.83345L15.4491 9.13096L16.1231 9.52323L16.6863 9.8451L17.2496 9.52323L17.9235 9.13096L20.1765 7.83345C20.9528 7.38529 21.8753 7.26386 22.7411 7.49587C23.6069 7.72789 24.3451 8.29434 24.7933 9.07061C25.2414 9.84689 25.3628 10.7694 25.1308 11.6352C24.8988 12.501 24.3324 13.2392 23.5561 13.6873Z" fill="currentColor"/>
    <path d="M11.5614 8.97021C11.2013 8.97021 10.8493 9.07699 10.5499 9.27703C10.2506 9.47707 10.0172 9.7614 9.87943 10.0941C9.74163 10.4267 9.70558 10.7928 9.77583 11.1459C9.84607 11.4991 10.0195 11.8235 10.2741 12.0781C10.5287 12.3327 10.8531 12.5061 11.2062 12.5763C11.5594 12.6466 11.9254 12.6105 12.2581 12.4727C12.5907 12.3349 12.8751 12.1016 13.0751 11.8022C13.2752 11.5028 13.3819 11.1508 13.3819 10.7908C13.3815 10.3124 13.1929 9.85341 12.857 9.51282C12.5212 9.17223 12.0648 8.97734 11.5865 8.97021H11.5614Z" fill="currentColor"/>
    <path d="M16.6916 12.45C16.4349 12.45 16.1841 12.526 15.9707 12.6686C15.7573 12.8112 15.591 13.0138 15.4928 13.2509C15.3946 13.488 15.3689 13.7489 15.419 14.0006C15.469 14.2523 15.5926 14.4835 15.7741 14.6649C15.9555 14.8464 16.1867 14.97 16.4384 15.02C16.6901 15.0701 16.951 15.0444 17.1881 14.9462C17.4252 14.848 17.6278 14.6817 17.7704 14.4683C17.913 14.2549 17.9891 14.0041 17.9891 13.7475C17.9909 13.5787 17.9595 13.4112 17.8965 13.2545C17.8335 13.0979 17.7403 12.9553 17.6221 12.8347C17.5039 12.7142 17.3631 12.6182 17.2077 12.5522C17.0524 12.4861 16.8855 12.4514 16.7167 12.45H16.6916Z" fill="currentColor"/>
    <path d="M21.8107 8.97021C21.3314 8.97288 20.8727 9.16549 20.5352 9.50581C20.1977 9.84613 20.0089 10.3064 20.0103 10.7857C20.0116 11.265 20.2029 11.7242 20.5423 12.0627C20.8817 12.4011 21.3414 12.5912 21.8207 12.5912C22.3 12.5912 22.7598 12.4011 23.0992 12.0627C23.4385 11.7242 23.6299 11.265 23.6312 10.7857C23.6325 10.3064 23.4438 9.84613 23.1063 9.50581C22.7688 9.16549 22.3101 8.97288 21.8308 8.97021H21.8107Z" fill="currentColor"/>
    <path d="M45.2262 7.96411L42.8736 12.6211L40.4395 7.96411H36.4554L40.871 16.3829V20.0642H44.8742V16.3024L49.2103 7.96411H45.2262Z" fill="currentColor"/>
    <path d="M55.7272 11.1728C56.6626 11.1728 57.7489 11.8166 58.4731 12.7922L60.7865 10.0463C59.5493 8.6985 57.5276 7.8335 55.6769 7.8335C51.8749 7.8335 49.1189 10.4185 49.1189 13.9791C49.1189 17.59 51.8145 20.2252 55.526 20.2252C57.3868 20.2252 59.4487 19.2798 60.7865 17.8113L58.4731 15.347C57.6785 16.1919 56.5922 16.725 55.7272 16.725C54.2788 16.725 53.2227 15.5482 53.2227 13.9288C53.2327 12.3295 54.2788 11.1728 55.7272 11.1728Z" fill="currentColor"/>
    <path d="M65.6549 7.26001H61.7725V20.0641H65.6549V7.26001Z" fill="currentColor"/>
    <path d="M72.2828 10.4888C69.034 10.4888 66.9519 12.3898 66.9519 15.3368C66.9519 18.2839 69.044 20.205 72.2828 20.205C75.5215 20.205 77.6136 18.294 77.6136 15.3368C77.6136 12.3797 75.5215 10.4888 72.2828 10.4888ZM72.2828 17.2177C71.4178 17.2177 70.8646 16.4935 70.8646 15.3871C70.8646 14.2807 71.4178 13.5565 72.2828 13.5565C73.1478 13.5565 73.701 14.2807 73.701 15.3871C73.701 16.4935 73.1478 17.2177 72.2828 17.2177Z" fill="currentColor"/>
    <path d="M84.6347 15.2968C84.6347 16.2121 84.1821 16.8156 83.4781 16.8156C82.8544 16.8156 82.4421 16.3126 82.4421 15.518V10.6197H78.5596V16.6446C78.5596 18.8171 79.9174 20.2354 81.8587 20.2354C83.0657 20.2354 84.0212 19.7023 84.6347 18.7467V20.0543H88.5172V10.6096H84.6347V15.2968Z" fill="currentColor"/>
    <path d="M96.4631 7.26001V11.5951C96.152 11.2387 95.7665 10.9549 95.3337 10.7638C94.901 10.5726 94.4316 10.4787 93.9586 10.4887C91.3837 10.4887 89.7341 12.3696 89.7341 15.2865C89.7341 18.2738 91.444 20.205 94.0692 20.205C94.5241 20.2145 94.9753 20.1219 95.3896 19.9339C95.8039 19.7459 96.1708 19.4673 96.4631 19.1187V20.0641H100.346V7.26001H96.4631ZM95.065 17.2177C94.2 17.2177 93.6468 16.4935 93.6468 15.3871C93.6468 14.2807 94.2 13.5565 95.065 13.5565C95.9099 13.5565 96.4631 14.2807 96.4631 15.3871C96.4631 16.4935 95.9099 17.2177 95.07 17.2177H95.065Z" fill="currentColor"/>
  </g>
  <circle cx="111.5" cy="18" r="4.2" fill="#737374"/>
  <g transform="translate(26 6)">
    <path fill="#41B883" d="m110.21 1-2.66 4.62L104.88 1H96l11.55 20 11.54-20h-8.88Z" />
      <path fill="#34495E" d="m110.21 1-2.66 4.62L104.88 1h-4.26l6.93 12 6.92-12h-4.26Z" />
  </g>
</svg>
