<svg
  xmlns="http://www.w3.org/2000/svg"
  width="24"
  height="24"
  viewBox="0 0 24 24"
  fill="none"
  stroke="currentColor"
  stroke-width="2"
  stroke-linecap="round"
  stroke-linejoin="round"
>
  <path
    d="M10.601 4.173a.4.4 0 0 1 .38-.274h2.038a.4.4 0 0 1 .38.274l.51 1.533a1.6 1.6 0 0 0 .803.925l1 .5a1.6 1.6 0 0 0 1.22.087l1.395-.465a.4.4 0 0 1 .485.2l.99 1.982a.4.4 0 0 1-.108.491l-1.168.935a1.6 1.6 0 0 0-.6 1.25v.778c0 .486.22.946.6 1.25l1.168.934a.4.4 0 0 1 .108.492l-.99 1.981a.4.4 0 0 1-.485.2l-1.29-.43a1.6 1.6 0 0 0-1.466.239l-1.097.822a1.6 1.6 0 0 0-.525.686l-.515 1.286a.4.4 0 0 1-.371.251h-2.126a.4.4 0 0 1-.372-.251l-.514-1.286a1.6 1.6 0 0 0-.526-.686l-1.096-.822a1.6 1.6 0 0 0-1.466-.238l-1.29.43a.4.4 0 0 1-.485-.2L4.25 15.17a.4.4 0 0 1 .152-.522l.896-.537a1.6 1.6 0 0 0 .776-1.372V11.61a1.6 1.6 0 0 0-.6-1.249l-1.169-.935a.4.4 0 0 1-.107-.491l.99-1.981a.4.4 0 0 1 .485-.201l1.394.465a1.6 1.6 0 0 0 1.221-.087l1-.5a1.6 1.6 0 0 0 .802-.925zm.38-1.474a1.6 1.6 0 0 0-1.518 1.094l-.511 1.534a.4.4 0 0 1-.201.231l-1 .5a.4.4 0 0 1-.305.021l-1.394-.464a1.6 1.6 0 0 0-1.937.802l-.99 1.981a1.6 1.6 0 0 0 .43 1.965l1.17.935a.4.4 0 0 1 .15.312v1.129a.4.4 0 0 1-.195.343l-.895.537a1.6 1.6 0 0 0-.608 2.088l.938 1.876a1.6 1.6 0 0 0 1.937.802l1.29-.43a.4.4 0 0 1 .367.06l1.096.822a.4.4 0 0 1 .132.172l.514 1.286a1.6 1.6 0 0 0 1.486 1.005h2.126a1.6 1.6 0 0 0 1.486-1.005l.514-1.287a.4.4 0 0 1 .131-.171l1.097-.822a.4.4 0 0 1 .366-.06l1.29.43a1.6 1.6 0 0 0 1.938-.802l.99-1.982a1.6 1.6 0 0 0-.431-1.965l-1.168-.934a.4.4 0 0 1-.15-.313v-.779a.4.4 0 0 1 .15-.312l1.168-.935a1.6 1.6 0 0 0 .432-1.965l-.991-1.981a1.6 1.6 0 0 0-1.937-.802l-1.395.464a.4.4 0 0 1-.305-.021l-1-.5a.4.4 0 0 1-.2-.231l-.51-1.534a1.6 1.6 0 0 0-1.52-1.093zM9.99 12a2.01 2.01 0 1 1 4.02 0 2.01 2.01 0 0 1-4.02 0M12 8.79a3.21 3.21 0 1 0 0 6.421 3.21 3.21 0 0 0 0-6.42"
    clip-rule="evenodd"
  />
</svg>
