<svg xmlns="http://www.w3.org/2000/svg" xmlns:xlink="http://www.w3.org/1999/xlink" width="0" height="0" style="display:none;"><symbol viewBox="0 0 24 24" id="business-icon-billing">
  <g>
  <path d="M14.8889 13.5556C14.8889 13.3787 14.9591 13.2092 15.0841 13.0842C15.2092 12.9591 15.3787 12.8889 15.5555 12.8889H17.3333C17.5101 12.8889 17.6797 12.9591 17.8047 13.0842C17.9298 13.2092 18 13.3787 18 13.5556C18 13.7324 17.9298 13.9019 17.8047 14.027C17.6797 14.152 17.5101 14.2222 17.3333 14.2222H15.5555C15.3787 14.2222 15.2092 14.152 15.0841 14.027C14.9591 13.9019 14.8889 13.7324 14.8889 13.5556ZM3.77777 5.77778H3.79022C3.84488 5.28888 4.07781 4.83728 4.44448 4.50931C4.81114 4.18134 5.28583 4.00001 5.77777 4H16C16.2626 4 16.5227 4.05173 16.7654 4.15224C17.008 4.25275 17.2285 4.40007 17.4142 4.58579C17.5999 4.7715 17.7472 4.99198 17.8478 5.23463C17.9483 5.47728 18 5.73736 18 6V6.744C18.6327 6.89423 19.1963 7.2535 19.5996 7.7637C20.0028 8.27391 20.2222 8.90522 20.2222 9.55556V17.1111C20.2222 17.8773 19.9179 18.6121 19.3761 19.1539C18.8343 19.6956 18.0995 20 17.3333 20H6.66666C5.90048 20 5.16568 19.6956 4.62391 19.1539C4.08214 18.6121 3.77777 17.8773 3.77777 17.1111V5.77778ZM17.3333 8H5.1111V17.1111C5.1111 17.9698 5.80799 18.6667 6.66666 18.6667H17.3333C17.7459 18.6667 18.1415 18.5028 18.4333 18.2111C18.725 17.9193 18.8889 17.5237 18.8889 17.1111V9.55556C18.8889 9.143 18.725 8.74733 18.4333 8.45561C18.1415 8.16389 17.7459 8 17.3333 8ZM16.6667 6.66667V6C16.6667 5.82319 16.5964 5.65362 16.4714 5.5286C16.3464 5.40357 16.1768 5.33333 16 5.33333H5.77777C5.60096 5.33333 5.43139 5.40357 5.30637 5.5286C5.18134 5.65362 5.1111 5.82319 5.1111 6C5.1111 6.17681 5.18134 6.34638 5.30637 6.4714C5.43139 6.59643 5.60096 6.66667 5.77777 6.66667H16.6667Z" fill="currentColor"></path>
  </g>
  </symbol><symbol viewBox="0 0 24 24" id="business-icon-campaign">
  <g>
    <path d="M8.33496 15.2517C8.408 15.2667 8.48512 15.2826 8.56543 15.2986C9.29458 15.444 9.8418 15.6687 9.8418 15.6687C9.84884 15.6879 10.0847 16.3242 10.708 17.2019C11.4692 18.2734 12.4171 19.6382 11.3359 19.6384C11.1548 19.6384 10.9857 19.6407 10.8242 19.6423C10.6762 19.6439 10.5342 19.6453 10.3945 19.6453C9.5014 19.6453 8.98301 19.0069 8.12793 17.5496C7.76949 16.9384 7.57661 16.4368 7.47559 16.0476C7.32096 15.4519 7.38199 15.1186 7.39648 15.0554C7.39791 15.0492 7.39915 15.0456 7.39941 15.0447C7.40751 15.0467 7.75233 15.1319 8.33496 15.2517ZM8.5625 16.2791C8.65341 16.5032 8.78068 16.7652 8.95605 17.0642C9.38719 17.799 9.67317 18.2183 9.91895 18.4597C10.1149 18.6522 10.2353 18.6863 10.3945 18.6863C10.4476 18.6863 10.5012 18.6857 10.5557 18.6853C10.3849 18.4095 10.1641 18.093 9.92578 17.7576C9.57869 17.2688 9.3373 16.8437 9.18066 16.5339C9.16324 16.4995 9.14722 16.4659 9.13184 16.4343C8.97708 16.385 8.78159 16.3293 8.5625 16.2791ZM15.457 5.22729C16.2336 4.50917 17.0186 4.19845 17.7666 4.43042C18.476 4.65056 18.9608 5.30812 19.2949 6.03296C19.9735 7.50535 20.25 9.73673 20.25 11.5095C20.25 13.3081 19.8404 15.2452 19.1406 16.4685C18.7971 17.0691 18.3255 17.5987 17.7041 17.7478C17.0331 17.9086 16.397 17.5863 15.8477 16.9529C15.4459 16.4895 14.753 16.1128 13.8662 15.8103C12.9905 15.5116 11.9846 15.3042 11.0137 15.1414C10.5297 15.0602 10.0588 14.9909 9.62012 14.9265L9.5752 14.9197C9.15565 14.8581 8.7626 14.8005 8.4248 14.7419C8.08013 14.6822 7.76681 14.6169 7.5293 14.5378C7.41232 14.4989 7.28594 14.4478 7.17773 14.3757C7.14263 14.3523 7.09898 14.3199 7.05566 14.2771L5.21289 13.9187C4.40201 13.8922 3.75 13.2277 3.75 12.4089V9.83472C3.75018 9.00073 4.4275 8.32698 5.25977 8.32495L7.05957 8.29956C7.16388 8.18005 7.29242 8.09587 7.40039 8.03882C7.62104 7.92228 7.90348 7.83704 8.19824 7.76538C8.55942 7.67759 9.01391 7.59457 9.50586 7.50464C9.80819 7.44937 10.1247 7.39101 10.4424 7.32788C12.1784 6.98291 14.1365 6.44864 15.457 5.22729ZM17.4824 5.34644C17.2121 5.26259 16.7756 5.31532 16.1084 5.93237C14.5719 7.35326 12.369 7.92369 10.6299 8.26929C10.2714 8.34053 9.93802 8.40098 9.63184 8.45679C9.16724 8.54146 8.764 8.61555 8.4248 8.698C8.14652 8.76565 7.95989 8.82869 7.84863 8.88745C7.84096 8.89151 7.83428 8.89565 7.82812 8.89917L7.87695 13.6423C8.04091 13.6924 8.27845 13.7429 8.58887 13.7966C8.91414 13.853 9.29606 13.909 9.72168 13.9714L9.75879 13.9773C10.1969 14.0416 10.6769 14.112 11.1719 14.1951C12.1593 14.3607 13.2267 14.578 14.1768 14.9021C15.1158 15.2225 16.0028 15.6673 16.5723 16.324C17.002 16.8197 17.3004 16.8583 17.4805 16.8152C17.7103 16.7601 18.0069 16.5204 18.3086 15.9929C18.8994 14.9601 19.291 13.2027 19.291 11.5095C19.291 9.7901 19.017 7.72134 18.4238 6.43433C18.1221 5.77978 17.7911 5.44227 17.4824 5.34644ZM5.26367 9.28491C4.95618 9.28491 4.70916 9.53257 4.70898 9.83472V12.4089C4.70898 12.7116 4.95613 12.9597 5.26367 12.9597H5.30957L6.86719 13.2625V9.26147L5.26367 9.28491Z" fill="currentColor"></path>
  </g>
</symbol><symbol viewBox="0 0 24 24" id="business-icon-cart">
  <g>
  <path d="M8.66471 18.7373C8.09217 18.7373 7.62846 19.201 7.62846 19.7736C7.62846 20.3461 8.09217 20.8098 8.66471 20.8098C9.23725 20.8098 9.70097 20.3461 9.70097 19.7736C9.70097 19.201 9.23725 18.7373 8.66471 18.7373ZM17.5642 18.7373C16.9917 18.7373 16.528 19.201 16.528 19.7736C16.528 20.3461 16.9917 20.8098 17.5642 20.8098C18.1368 20.8098 18.6005 20.3461 18.6005 19.7736C18.6005 19.201 18.1368 18.7373 17.5642 18.7373ZM19.1437 17.7322H8.58256C8.1519 17.7322 7.73098 17.5668 7.39732 17.2666C7.06329 16.9661 6.85029 16.5606 6.79759 16.1248L6.79751 16.1241L5.69446 8.35842L5.06737 4.73227L5.06612 4.72328C5.01769 4.37354 4.6977 4.07806 4.36736 4.07806H3.539C3.2413 4.07806 2.99997 3.83673 2.99997 3.53903C2.99997 3.24133 3.2413 3 3.539 3H4.36734C5.23242 3 6.00587 3.68692 6.13258 4.56563L6.75945 8.19055L7.86779 15.995C7.88922 16.1722 7.9782 16.3391 8.11837 16.4652C8.25378 16.587 8.41861 16.6541 8.58254 16.6541H19.1436C19.4414 16.6541 19.6827 16.8954 19.6827 17.1931C19.6827 17.4908 19.4414 17.7322 19.1437 17.7322ZM9.39357 15.091C9.11388 15.091 8.87746 14.875 8.85656 14.5916C8.83468 14.2947 9.05762 14.0363 9.3545 14.0143L18.1703 13.3645L18.183 13.3642C18.5324 13.3549 18.8429 13.0848 18.8898 12.7492L18.8927 12.7311L19.9145 6.88413C19.9149 6.88227 19.9151 6.88087 19.9152 6.87947C19.9453 6.62686 19.8734 6.36733 19.7276 6.20191C19.6275 6.08871 19.4961 6.02862 19.3478 6.02862H8.09036C7.79267 6.02862 7.55133 5.78729 7.55133 5.48959C7.55133 5.19189 7.79267 4.95056 8.09036 4.95056H19.3478C19.8074 4.95056 20.2294 5.14161 20.5359 5.48856C20.8839 5.88336 21.052 6.45073 20.9858 7.0067C20.9833 7.02796 20.9801 7.04914 20.9764 7.07022L19.9561 12.9085C19.8325 13.7558 19.0915 14.4118 18.2254 14.4415L9.43376 15.0895C9.42038 15.0905 9.40698 15.091 9.39357 15.091Z" fill="currentColor"></path>
  </g>
  </symbol><symbol viewBox="0 0 24 24" id="business-icon-chatbot">
  <g>
    <path d="M11.9465 3.25104C12.7006 3.25104 13.3125 3.86224 13.3127 4.61627C13.3127 5.15488 13.0001 5.61957 12.5471 5.84186V6.95709H13.5149C14.0312 6.9573 14.4504 7.37626 14.4504 7.89264L14.4456 7.98834C14.4436 8.00744 14.4398 8.02625 14.4368 8.04498H15.0706C17.5898 8.04521 19.632 10.0872 19.6321 12.6065V17.0997C19.6319 19.1151 17.9981 20.749 15.9827 20.7491H7.92114C5.90576 20.7489 4.27189 19.1151 4.27173 17.0997V12.6065C4.27186 10.0871 6.31477 8.04498 8.83423 8.04498H9.45728C9.44913 7.99539 9.4446 7.94455 9.44458 7.89264C9.4446 7.40834 9.81273 7.00977 10.2844 6.96198L10.3801 6.95709H11.3479V5.84186C10.8945 5.61973 10.5813 5.15521 10.5813 4.61627C10.5815 3.86239 11.1927 3.25129 11.9465 3.25104ZM8.83423 9.13971C6.91946 9.13971 5.36658 10.6918 5.36646 12.6065V17.0997C5.36662 18.5104 6.51044 19.6542 7.92114 19.6544H15.9827C17.3935 19.6543 18.5372 18.5104 18.5374 17.0997V12.6065C18.5372 10.6919 16.9851 9.13994 15.0706 9.13971H8.83423ZM15.2454 10.4932C16.1598 10.4933 16.933 11.1698 17.054 12.0762L17.2883 13.8321C17.4343 14.9261 16.5834 15.8984 15.4797 15.8985H8.42407C7.31514 15.8985 6.46195 14.9175 6.61646 13.8194L6.8645 12.0635C6.99125 11.1628 7.76158 10.4932 8.67114 10.4932H15.2454ZM3.18384 11.7022C3.5151 11.7022 3.78328 11.9706 3.78345 12.3018V14.9796C3.78344 15.3109 3.5152 15.5792 3.18384 15.5792C2.85265 15.579 2.58424 15.3108 2.58423 14.9796V12.3018C2.5844 11.9707 2.85275 11.7024 3.18384 11.7022ZM20.8157 11.7022C21.1469 11.7023 21.4151 11.9706 21.4153 12.3018V14.9796C21.4153 15.3109 21.147 15.5791 20.8157 15.5792C20.4843 15.5792 20.2161 15.3109 20.2161 14.9796V12.3018C20.2162 11.9706 20.4844 11.7022 20.8157 11.7022ZM8.67114 11.2227C8.1254 11.2227 7.66321 11.6247 7.58716 12.1651L7.34009 13.921C7.24737 14.5798 7.7587 15.169 8.42407 15.169H15.4797C16.1419 15.1689 16.6523 14.5851 16.5647 13.9288L16.3303 12.1729C16.2577 11.6291 15.794 11.2228 15.2454 11.2227H8.67114ZM9.38794 12.3018C9.75818 12.3019 10.0579 12.6024 10.0579 12.9727C10.0578 13.343 9.75817 13.6435 9.38794 13.6436C9.01762 13.6436 8.71706 13.343 8.71704 12.9727C8.71704 12.6024 9.0176 12.3018 9.38794 12.3018ZM14.468 12.3018C14.8384 12.3018 15.1389 12.6024 15.1389 12.9727C15.1389 13.343 14.8383 13.6436 14.468 13.6436C14.0979 13.6434 13.7981 13.3429 13.7981 12.9727C13.7981 12.6025 14.0979 12.3021 14.468 12.3018Z" fill="currentColor"></path>
  </g>
</symbol><symbol viewBox="0 0 24 24" id="business-icon-company">
  <g>
  <path d="M20.6025 18.9671H19.8782V10.7889C19.8782 10.0125 19.1856 9.35996 18.3579 9.35996H16.5647C16.313 9.35996 16.0514 9.59903 16.0514 9.83673C16.0514 10.0751 16.3024 10.3135 16.5647 10.3135H18.3579C18.5457 10.3135 18.7461 10.4992 18.7461 10.6763V18.856H15.4944V5.5064C15.4944 4.73007 14.8011 4.07889 13.9734 4.07889H5.87461C5.04625 4.07889 4.35357 4.73007 4.35357 5.5064V18.9671H3.51323C3.26148 18.9671 2.99988 19.2055 2.99988 19.4439C2.99988 19.6816 3.25093 19.9207 3.51323 19.9207H20.4865C20.7383 19.9207 20.9999 19.6816 20.9999 19.4439C21.002 19.2055 20.8648 18.9671 20.6025 18.9671ZM14.4657 18.9671H5.48572V5.5064C5.48572 5.332 5.68405 5.14354 5.87461 5.14354H14.0768C14.2758 5.1337 14.4657 5.31934 14.4657 5.5064V18.9671ZM11.9482 14.2149H8.00319C7.75144 14.2149 7.48984 14.4526 7.48984 14.6909C7.48984 14.9715 7.64807 15.2816 8.00319 15.2816H11.9376C12.1887 15.2816 12.451 15.0432 12.451 14.8049C12.4524 14.5454 12.1992 14.2149 11.9482 14.2149ZM11.9482 11.4611H8.00319C7.75144 11.4611 7.48984 11.7002 7.48984 11.9379C7.48984 12.1763 7.74087 12.4147 8.00319 12.4147H11.9376C12.1887 12.4147 12.451 12.1763 12.451 11.9379C12.4524 11.7002 12.1992 11.4611 11.9482 11.4611ZM11.9482 8.18983H8.00319C7.75144 8.18983 7.48984 8.4275 7.48984 8.66659C7.48984 8.90428 7.74087 9.14335 8.00319 9.14335H11.9376C12.1887 9.14335 12.451 8.90428 12.451 8.66659C12.4524 8.4275 12.1992 8.18983 11.9482 8.18983Z" fill="currentColor"></path>
  </g>
  </symbol><symbol viewBox="0 0 24 24" id="business-icon-contact">
  <g>
    <path d="M18.4286 4C18.618 4.00021 18.8026 4.04711 18.9667 4.13477C19.0321 4.16973 19.0943 4.21133 19.1522 4.25879C19.1814 4.28264 19.2093 4.30811 19.2362 4.33496C19.2897 4.38843 19.3374 4.44681 19.3788 4.50879C19.4823 4.66394 19.5465 4.84262 19.5653 5.0293C19.5691 5.06679 19.5711 5.10457 19.5712 5.14258V18.8574C19.5711 18.8954 19.5691 18.9332 19.5653 18.9707C19.5616 19.0079 19.556 19.0447 19.5487 19.0811C19.5193 19.2275 19.4617 19.3669 19.3788 19.4912C19.3582 19.5221 19.3361 19.5521 19.3124 19.5811C19.2885 19.6102 19.263 19.6382 19.2362 19.665C19.1559 19.7453 19.0651 19.8127 18.9667 19.8652C18.8026 19.9529 18.618 19.9998 18.4286 20H6.14246C6.10478 19.9999 6.06732 19.9979 6.03015 19.9941C5.95529 19.9867 5.88173 19.9719 5.81042 19.9502C5.73921 19.9285 5.67003 19.9003 5.60437 19.8652C5.50604 19.8127 5.4151 19.7453 5.33484 19.665C5.30799 19.6382 5.28252 19.6102 5.25867 19.5811C5.18753 19.4942 5.13041 19.3975 5.08777 19.2949C5.03071 19.1575 5.00008 19.0091 4.99988 18.8574V16.8574C4.99988 16.8195 5.0033 16.7818 5.01062 16.7451C5.02524 16.6719 5.05419 16.6021 5.09558 16.54C5.11623 16.509 5.14015 16.4799 5.16687 16.4531C5.27397 16.346 5.41972 16.2862 5.57117 16.2861L5.68347 16.2969C5.79329 16.3188 5.8951 16.3728 5.97546 16.4531C6.08263 16.5603 6.14246 16.7059 6.14246 16.8574V18.8574H18.4286V5.14258H6.14246V7.71387C6.14246 7.86535 6.08254 8.01101 5.97546 8.11816C5.8683 8.22533 5.72272 8.28613 5.57117 8.28613C5.53323 8.28611 5.49555 8.2828 5.45886 8.27539C5.34918 8.25338 5.24714 8.19844 5.16687 8.11816C5.05993 8.01103 4.99988 7.86525 4.99988 7.71387V5.14258C5.00008 4.99094 5.03071 4.84249 5.08777 4.70508C5.1447 4.56809 5.22792 4.4419 5.33484 4.33496C5.4151 4.2547 5.50604 4.1873 5.60437 4.13477C5.67003 4.09966 5.73921 4.07152 5.81042 4.0498C5.88173 4.02808 5.95529 4.01334 6.03015 4.00586C6.06732 4.00214 6.10478 4.00005 6.14246 4H18.4286ZM12.1425 7.42871C13.7177 7.42871 14.9996 8.71002 14.9999 10.2852C14.9999 11.1535 14.6084 11.9306 13.995 12.4551C14.3517 12.6414 14.6817 12.8821 14.9716 13.1719C15.7216 13.922 16.1434 14.9392 16.1434 16C16.1434 16.075 16.1282 16.1495 16.0995 16.2188C16.0708 16.288 16.0285 16.3513 15.9755 16.4043C15.9225 16.4572 15.8591 16.4987 15.7899 16.5273C15.7208 16.5559 15.6469 16.5712 15.5721 16.5713C15.4972 16.5713 15.4227 16.556 15.3534 16.5273C15.2842 16.4987 15.2208 16.4572 15.1678 16.4043C15.1148 16.3513 15.0725 16.288 15.0438 16.2188C15.0151 16.1495 14.9999 16.075 14.9999 16C14.9999 14.4247 13.7187 13.1427 12.1434 13.1426C10.5681 13.1426 9.28601 14.4246 9.28601 16C9.28597 16.1515 9.22614 16.2972 9.11902 16.4043C9.01189 16.5114 8.86621 16.5712 8.71472 16.5713C8.56325 16.5713 8.41757 16.5114 8.31042 16.4043C8.2033 16.2972 8.14348 16.1515 8.14343 16C8.14343 14.9393 8.56445 13.922 9.31433 13.1719C9.60387 12.8823 9.93362 12.6413 10.2899 12.4551C9.6768 11.9306 9.28601 11.1533 9.28601 10.2852C9.28628 8.71016 10.5675 7.42894 12.1425 7.42871ZM6.14246 14C6.29389 14 6.43961 14.06 6.54675 14.167C6.6539 14.2741 6.7147 14.4198 6.71472 14.5713C6.71472 14.7228 6.65392 14.8684 6.54675 14.9756C6.43961 15.0826 6.29393 15.1426 6.14246 15.1426H4.99988C4.84838 15.1425 4.70271 15.0827 4.59558 14.9756C4.48848 14.8684 4.42859 14.7228 4.42859 14.5713C4.42861 14.4198 4.48846 14.2741 4.59558 14.167C4.70271 14.0599 4.84838 14 4.99988 14H6.14246ZM6.14246 11.7139C6.29401 11.7139 6.43959 11.7747 6.54675 11.8818C6.65378 11.9889 6.71459 12.1338 6.71472 12.2852C6.71472 12.4367 6.6539 12.5823 6.54675 12.6895C6.43959 12.7966 6.29401 12.8574 6.14246 12.8574H4.99988C4.84838 12.8574 4.70271 12.7966 4.59558 12.6895C4.48861 12.5823 4.42859 12.4366 4.42859 12.2852C4.42872 12.1339 4.48873 11.9889 4.59558 11.8818C4.70271 11.7747 4.84838 11.7139 4.99988 11.7139H6.14246ZM12.1425 8.57129C11.8035 8.57137 11.4721 8.67206 11.1903 8.86035C10.9085 9.04871 10.6892 9.31669 10.5594 9.62988C10.4297 9.9431 10.3957 10.2876 10.4618 10.6201C10.5279 10.9526 10.6908 11.2583 10.9305 11.498C11.1703 11.7378 11.4759 11.9007 11.8085 11.9668C12.141 12.0329 12.4855 11.9989 12.7987 11.8691C13.1119 11.7394 13.3799 11.5201 13.5682 11.2383C13.7566 10.9564 13.8573 10.6242 13.8573 10.2852C13.8567 9.83085 13.6756 9.39548 13.3544 9.07422C13.033 8.75284 12.597 8.57181 12.1425 8.57129ZM6.14246 9.42871C6.29393 9.42871 6.43961 9.48865 6.54675 9.5957C6.65392 9.70287 6.71472 9.84845 6.71472 10C6.7147 10.1515 6.6539 10.2971 6.54675 10.4043C6.43961 10.5113 6.29389 10.5713 6.14246 10.5713H4.99988C4.84838 10.5713 4.70271 10.5114 4.59558 10.4043C4.48846 10.2972 4.42861 10.1515 4.42859 10C4.42859 9.8485 4.48848 9.70286 4.59558 9.5957C4.70271 9.48857 4.84838 9.42875 4.99988 9.42871H6.14246Z" fill="currentColor"></path>
  </g>
</symbol><symbol viewBox="0 0 24 24" id="business-icon-ctwa">
  <g>
    <path d="M18.8826 18.9701C19.1529 18.9701 19.3719 19.1891 19.3719 19.4593C19.3718 19.7295 19.1529 19.9486 18.8826 19.9486H5.117C4.84676 19.9486 4.6278 19.7295 4.62775 19.4593C4.62775 19.189 4.84673 18.9701 5.117 18.9701H18.8826ZM17.3856 4.056C19.4992 4.16298 21.1805 5.91091 21.1805 8.05112V13.555L21.1746 13.7611C21.0709 15.8065 19.431 17.4466 17.3856 17.5501L17.1805 17.555H6.82013C4.61099 17.555 2.82013 15.7642 2.82013 13.555V8.05112C2.82013 5.91108 4.50069 4.16323 6.61407 4.056L6.82013 4.05112H17.1805L17.3856 4.056ZM6.82013 5.25131C5.27373 5.25131 4.02032 6.50472 4.02032 8.05112V13.555C4.02032 15.1014 5.27373 16.3548 6.82013 16.3548H17.1805C18.7267 16.3546 19.9803 15.1013 19.9803 13.555V8.05112C19.9803 6.50488 18.7267 5.25157 17.1805 5.25131H6.82013ZM11.7488 13.6126H10.6102L10.1473 12.3011H8.11212L7.63849 13.6126H6.49103L8.51935 7.95151H9.7254L11.7488 13.6126ZM13.8397 7.95541C14.0195 7.95541 14.1699 7.95672 14.2899 7.95932C14.9763 7.97498 15.5363 8.09783 15.9695 8.32748C16.4028 8.55715 16.7197 8.87802 16.9207 9.29037C17.1243 9.70271 17.2264 10.1906 17.2264 10.7542C17.2264 11.3415 17.1191 11.8496 16.9051 12.2777C16.6911 12.7029 16.3636 13.0318 15.9227 13.264C15.4842 13.4962 14.9267 13.6126 14.2508 13.6126H12.5994V7.95151H13.3035C13.4835 7.95151 13.6623 7.95281 13.8397 7.95541ZM13.7498 12.6888H14.2742C14.5978 12.6888 14.8915 12.6255 15.1551 12.5003C15.4213 12.3751 15.6346 12.1705 15.7938 11.8861C15.953 11.6016 16.032 11.2214 16.032 10.7464C16.032 10.3055 15.9619 9.94815 15.8211 9.67416C15.6802 9.39758 15.4795 9.19464 15.2186 9.06674C14.9576 8.93885 14.6474 8.87534 14.2899 8.87534H13.7498V12.6888ZM8.36603 11.3021H9.87384L9.12579 9.05502L8.36603 11.3021Z" fill="currentColor"></path>
  </g>
</symbol><symbol viewBox="0 0 24 24" id="business-icon-developers">
  <g>
  <path d="M18.9246 16.7766L18.9135 16.7697C18.8449 16.7227 18.7864 16.6624 18.7415 16.5924C18.6966 16.5224 18.6662 16.4441 18.652 16.3622C18.6378 16.2802 18.6401 16.1963 18.6589 16.1153C18.6776 16.0343 18.7124 15.9578 18.7612 15.8905C19.709 14.2432 20.0229 12.3066 19.6437 10.4443C19.2645 8.58207 18.2184 6.92232 16.7019 5.77686C15.1855 4.63139 13.3029 4.07903 11.408 4.22353C9.51298 4.36803 7.73596 5.19944 6.4107 6.56159C5.08543 7.92375 4.3031 9.72292 4.21067 11.6211C4.11824 13.5194 4.72207 15.386 5.90872 16.8705C7.09538 18.355 8.78321 19.3551 10.6552 19.683C12.5272 20.0109 14.4544 19.6441 16.075 18.6514C16.352 18.4811 16.712 18.5545 16.9017 18.8175L16.9044 18.8189C16.9499 18.882 16.9821 18.9536 16.9992 19.0295C17.0163 19.1053 17.0178 19.1838 17.0037 19.2603C16.9896 19.3368 16.9601 19.4096 16.9171 19.4743C16.8741 19.5391 16.8185 19.5945 16.7535 19.6372L16.6372 19.7134C14.7557 20.8445 12.5257 21.2489 10.3669 20.8506C8.20806 20.4523 6.26924 19.2786 4.91536 17.5505C3.56147 15.8224 2.88588 13.6591 3.01574 11.4677C3.14559 9.27622 4.07194 7.2078 5.62043 5.6517C7.16892 4.09559 9.23277 3.15912 11.4236 3.01852C13.6143 2.87792 15.781 3.5429 17.5157 4.88829C19.2504 6.23369 20.4335 8.16672 20.8424 10.3236C21.2513 12.4805 20.8578 14.7124 19.736 16.5994C19.6962 16.6664 19.6431 16.7245 19.58 16.7701C19.5168 16.8157 19.4449 16.8478 19.3688 16.8644C19.2927 16.8811 19.214 16.8818 19.1376 16.8667C19.0611 16.8516 18.9886 16.821 18.9246 16.7766ZM8.74767 9.2277C8.88336 9.0934 9.21567 9.04493 9.37767 9.2277C9.57844 9.43955 9.51336 9.7857 9.37767 9.93109L7.28275 11.9665L9.32644 13.9022C9.46213 14.0365 9.48013 14.42 9.32644 14.5723C9.1409 14.7565 8.76152 14.7274 8.63552 14.6014L6.24706 12.2212C6.18221 12.1559 6.14582 12.0675 6.14582 11.9755C6.14582 11.8834 6.18221 11.7951 6.24706 11.7297L8.74767 9.22909V9.2277ZM15.2498 9.2277L17.7504 11.7283C17.8153 11.7937 17.8517 11.882 17.8517 11.9741C17.8517 12.0662 17.8153 12.1545 17.7504 12.2199L15.3633 14.6028C15.2373 14.7274 14.8787 14.8063 14.671 14.6028C14.4758 14.4089 14.5367 14.0102 14.671 13.8758L16.723 11.9692L14.6046 9.9117C14.4689 9.76632 14.4246 9.4077 14.6046 9.22909C14.7804 9.05601 15.1141 9.09478 15.2498 9.22909V9.2277ZM12.6827 8.72924C12.7506 8.54924 13.087 8.43571 13.3017 8.51601C13.5066 8.59217 13.627 8.87601 13.5717 9.05601L11.3009 15.3006C11.2344 15.4806 10.9104 15.5526 10.7291 15.4848C10.5366 15.4183 10.3275 15.1525 10.3967 14.9738L12.6814 8.72924H12.6827Z" fill="currentColor"></path>
  </g>
  </symbol><symbol viewBox="0 0 24 24" id="business-icon-help">
  <g>
    <path fill-rule="evenodd" clip-rule="evenodd" d="M4.46929 12C4.46929 7.84077 7.84102 4.46904 12.0003 4.46904C16.1595 4.46904 19.5312 7.84077 19.5312 12C19.5312 13.6013 19.0321 15.0842 18.181 16.304C17.9914 16.5757 18.058 16.9498 18.3298 17.1394C18.6015 17.329 18.9755 17.2624 19.1651 16.9907C20.1522 15.576 20.7312 13.8547 20.7312 12C20.7312 7.17803 16.8222 3.26904 12.0003 3.26904C7.17827 3.26904 3.26929 7.17803 3.26929 12C3.26929 16.822 7.17827 20.731 12.0003 20.731C13.9018 20.731 15.6629 20.1224 17.0972 19.0895C17.3661 18.8959 17.4271 18.5209 17.2335 18.252C17.0399 17.9831 16.6649 17.9221 16.396 18.1157C15.1591 19.0064 13.6418 19.531 12.0003 19.531C7.84102 19.531 4.46929 16.1593 4.46929 12ZM12.0001 8.67949C11.0889 8.67949 10.3501 9.41822 10.3501 10.3295V10.5795C10.3501 10.9109 10.0815 11.1795 9.75015 11.1795C9.41878 11.1795 9.15015 10.9109 9.15015 10.5795V10.3295C9.15015 8.75548 10.4261 7.47949 12.0001 7.47949H12.4515C13.7762 7.47949 14.8501 8.5534 14.8501 9.87814C14.8501 10.4796 14.6242 11.0592 14.217 11.5019L13.5511 12.2259C13.1003 12.716 12.8501 13.3576 12.8501 14.0235C12.8501 14.3548 12.5815 14.6235 12.2501 14.6235C11.9188 14.6235 11.6501 14.3548 11.6501 14.0235C11.6501 13.0567 12.0134 12.1252 12.6678 11.4136L13.3337 10.6896C13.5372 10.4683 13.6501 10.1787 13.6501 9.87814C13.6501 9.21614 13.1135 8.67949 12.4515 8.67949H12.0001ZM12.8205 15.9202C12.8205 16.2516 12.5519 16.5202 12.2205 16.5202C11.8891 16.5202 11.6205 16.2516 11.6205 15.9202C11.6205 15.5888 11.8891 15.3202 12.2205 15.3202C12.5519 15.3202 12.8205 15.5888 12.8205 15.9202Z" fill="currentColor"></path>
  </g>
</symbol><symbol viewBox="0 0 24 24" id="business-icon-home">
  <g>
    <path d="M10.2873 4.00055C11.2675 3.14284 12.7318 3.14288 13.7121 4.00055L19.1535 8.76227C19.7176 9.25592 20.0411 9.96872 20.0412 10.7183V18.0435C20.041 19.4793 18.8774 20.6431 17.4416 20.6431H6.5578C5.12213 20.6429 3.95835 19.4792 3.95819 18.0435V10.7183C3.95825 9.96887 4.28199 9.25591 4.84589 8.76227L10.2873 4.00055ZM12.9211 4.90289C12.3932 4.44152 11.605 4.4412 11.0773 4.90289L5.63593 9.66461C5.33238 9.9304 5.15747 10.3149 5.15741 10.7183V18.0435C5.15756 18.8165 5.78488 19.4437 6.5578 19.4439H17.4416C18.2147 19.4439 18.8418 18.8166 18.842 18.0435V10.7183C18.8419 10.3147 18.6672 9.93041 18.3635 9.66461L12.9211 4.90289ZM15.7209 15.7232C16.0521 15.7234 16.3215 15.9916 16.3215 16.3228C16.3212 16.6538 16.0519 16.9222 15.7209 16.9224H8.27948C7.94827 16.9224 7.68012 16.654 7.67987 16.3228C7.67987 15.9914 7.94811 15.7232 8.27948 15.7232H15.7209Z" fill="currentColor"></path>
  </g>
</symbol><symbol viewBox="0 0 24 24" id="business-icon-inbox">
  <g>
    <path d="M12.0001 3.49988C16.6945 3.49988 20.5001 7.30546 20.5001 11.9999C20.5001 16.6943 16.6945 20.4999 12.0001 20.4999C11.2435 20.4999 10.5091 20.4008 9.80969 20.2147C9.43049 20.1139 9.06158 19.9878 8.7052 19.8378C8.26627 19.9574 7.68814 20.105 7.19836 20.2284C6.91467 20.2999 6.65877 20.3642 6.47375 20.41L6.25403 20.4637L6.17395 20.4833C6.00726 20.5241 5.83046 20.4867 5.69543 20.3807C5.56059 20.2748 5.48165 20.1127 5.48157 19.9413V17.2489C5.48157 16.9402 5.73248 16.6893 6.04114 16.6893C6.34961 16.6895 6.59973 16.9404 6.59973 17.2489V19.2264C6.70172 19.2009 6.81115 19.1741 6.92493 19.1454C7.49105 19.0027 8.16105 18.8299 8.59583 18.7079C8.7218 18.6725 8.85633 18.6827 8.97571 18.7362C9.33496 18.8977 9.70985 19.0317 10.0968 19.1346C10.7033 19.296 11.3414 19.3817 12.0001 19.3817C16.0772 19.3817 19.382 16.077 19.382 11.9999C19.382 7.92276 16.0772 4.61804 12.0001 4.61804C7.92301 4.61804 4.61829 7.92276 4.61829 11.9999C4.61829 13.108 4.86163 14.1577 5.29797 15.0995C5.42773 15.3795 5.30557 15.7119 5.02551 15.8417C4.74553 15.9712 4.41401 15.8491 4.2843 15.5692C3.78111 14.4832 3.50012 13.2736 3.50012 11.9999C3.50012 7.30546 7.3057 3.49988 12.0001 3.49988ZM15.6671 13.9091C15.8244 13.6651 16.1497 13.5946 16.3937 13.7518C16.6375 13.9091 16.7079 14.2344 16.5509 14.4784C15.6108 15.9376 13.9181 16.9003 12.0001 16.9003C10.0823 16.9002 8.39037 15.9375 7.45032 14.4784C7.2931 14.2344 7.36351 13.909 7.60754 13.7518C7.85156 13.5948 8.17692 13.6651 8.33411 13.9091C9.07855 15.0645 10.4358 15.8484 12.0001 15.8485C13.5646 15.8485 14.9226 15.0646 15.6671 13.9091Z" fill="currentColor"></path>
  </g>
</symbol><symbol viewBox="0 0 24 24" id="business-icon-integration">
  <g>
    <path fill-rule="evenodd" clip-rule="evenodd" d="M17.2552 11.2929L19.5295 9.01862C20.157 8.39004 20.157 7.37288 19.5295 6.7443L17.2552 4.46997C16.6266 3.84253 15.6094 3.84253 14.9809 4.46997L12.7065 6.7443C12.0791 7.37288 12.0791 8.39004 12.7065 9.01862L14.9809 11.2929C15.6094 11.9215 16.6277 11.9215 17.2552 11.2929ZM9.85651 12.8809C9.70667 12.8403 9.54908 12.8187 9.38647 12.8187H5.79555C5.63266 12.8187 5.47485 12.8404 5.32485 12.881C4.56134 13.0876 4.00009 13.7848 4.00009 14.613V18.2039C4.00009 19.1959 4.80353 19.9994 5.79555 19.9994H9.38533C10.2129 19.9994 10.9092 19.4402 11.118 18.6796C11.1595 18.5284 11.1817 18.3693 11.1819 18.2051V14.6142C11.1819 14.6138 11.1819 14.6135 11.1819 14.6131C11.1818 14.4491 11.1597 14.2902 11.1184 14.1392C10.9511 13.5276 10.4684 13.0465 9.85651 12.8809ZM10.1819 18.2039L10.1819 14.6142C10.1819 14.1748 9.82548 13.8187 9.38647 13.8187H5.79555C5.3554 13.8187 5.00009 14.1748 5.00009 14.613V18.2039C5.00009 18.6437 5.35582 18.9994 5.79555 18.9994H9.38533C9.82514 18.9994 10.1812 18.6431 10.1819 18.2039C10.1819 18.204 10.1819 18.2038 10.1819 18.2039ZM12.1414 18.6801C12.3495 19.4414 13.0458 20.0005 13.8734 20.0005H17.4643C18.4564 20.0005 19.2598 19.1971 19.2598 18.2051V14.6142C19.2598 13.6221 18.4564 12.8187 17.4643 12.8187H13.8734C13.0467 12.8187 12.3505 13.378 12.1418 14.1394C12.1004 14.2906 12.0781 14.4498 12.078 14.6142V18.2051C12.078 18.2054 12.078 18.2058 12.078 18.2061C12.078 18.3702 12.1001 18.5291 12.1414 18.6801ZM13.0779 14.6153L13.078 18.2051C13.078 18.6448 13.4337 19.0005 13.8734 19.0005H17.4643C17.9041 19.0005 18.2598 18.6448 18.2598 18.2051V14.6142C18.2598 14.1744 17.9041 13.8187 17.4643 13.8187H13.8734C13.4357 13.8187 13.0788 14.1743 13.0779 14.6153C13.0779 14.6155 13.0779 14.6151 13.0779 14.6153ZM9.85637 11.858C10.6197 11.6513 11.181 10.9541 11.1819 10.1261V6.53515C11.1819 5.54313 10.3773 4.73969 9.38647 4.73969H5.79555C4.80353 4.73969 4.00009 5.54313 4.00009 6.53515V10.1261C4.00009 10.9542 4.56134 11.6515 5.32484 11.8581C5.47485 11.8987 5.63266 11.9204 5.79555 11.9204H9.38533C9.38571 11.9204 9.38609 11.9204 9.38647 11.9204C9.54908 11.9203 9.70661 11.8986 9.85637 11.858ZM10.1819 10.1253C10.1812 10.5644 9.82514 10.9204 9.38533 10.9204H5.79555C5.3554 10.9204 5.00009 10.5642 5.00009 10.1261V6.53515C5.00009 6.09542 5.35582 5.73969 5.79555 5.73969H9.38647C9.82548 5.73969 10.1819 6.09583 10.1819 6.53515V10.1253C10.1819 10.1254 10.1819 10.1251 10.1819 10.1253ZM16.5484 5.17743C16.5483 5.17733 16.5485 5.17753 16.5484 5.17743C16.3103 4.94003 15.9257 4.94004 15.6876 5.17747C15.6875 5.17755 15.6877 5.17739 15.6876 5.17747L13.4143 7.45076C13.4142 7.45088 13.4144 7.45064 13.4143 7.45076C13.177 7.68887 13.1766 8.07368 13.4139 8.3118C13.4138 8.31168 13.414 8.31192 13.4139 8.3118L15.688 10.5858C15.9264 10.8243 16.311 10.8233 16.5474 10.5865L18.8218 8.31216C19.0595 8.07399 19.0595 7.68909 18.8219 7.45087C18.8218 7.45084 18.8219 7.45091 18.8219 7.45087L16.5484 5.17743Z" fill="currentColor"></path>
  </g>
</symbol><symbol viewBox="0 0 24 24" id="business-icon-journey">
  <g>
    <path d="M11.5965 3.09235C13.2807 3.09254 14.6462 4.45789 14.6463 6.14215C14.6463 7.55068 13.691 8.73494 12.3934 9.08551V10.6861H14.9881C16.6807 10.6863 18.0535 12.0589 18.0535 13.7515V14.8306C19.5628 15.0137 20.7321 16.2992 20.7322 17.858C20.732 19.5422 19.3667 20.9078 17.6824 20.9078C15.9982 20.9077 14.6329 19.5422 14.6326 17.858C14.6327 16.4976 15.5237 15.3457 16.7537 14.9527V13.7515C16.7537 12.7768 15.9627 11.9871 14.9881 11.9869H8.59943C7.62463 11.9869 6.83481 12.7767 6.83478 13.7515V14.8511C8.27266 15.0969 9.36691 16.35 9.367 17.858C9.36674 19.5422 8.00151 20.9078 6.3172 20.9078C4.63298 20.9077 3.26766 19.5422 3.2674 17.858C3.26748 16.4445 4.22925 15.2556 5.534 14.9097V13.7515C5.53403 12.0588 6.90667 10.6861 8.59943 10.6861H11.0926V9.14899C9.64796 8.9088 8.54669 7.65494 8.54669 6.14215C8.5468 4.45784 9.91218 3.09245 11.5965 3.09235ZM6.32892 16.108C6.28228 16.1186 6.23424 16.1265 6.18439 16.1265C6.16197 16.1265 6.13981 16.1219 6.11798 16.1197C5.24548 16.2187 4.5673 16.959 4.5672 17.858C4.56746 18.8242 5.35095 19.6079 6.3172 19.608C7.28354 19.608 8.06694 18.8242 8.0672 17.858C8.06709 16.8955 7.28996 16.1143 6.32892 16.108ZM17.6824 16.108C16.7161 16.1081 15.9325 16.8916 15.9324 17.858C15.9327 18.8242 16.7162 19.6079 17.6824 19.608C18.6488 19.608 19.4322 18.8242 19.4324 17.858C19.4323 16.8916 18.6489 16.108 17.6824 16.108ZM11.5965 4.39215C10.6302 4.39226 9.8466 5.17581 9.8465 6.14215C9.8465 7.10858 10.6301 7.89205 11.5965 7.89215C12.5628 7.89196 13.3465 7.10853 13.3465 6.14215C13.3464 5.17586 12.5628 4.39234 11.5965 4.39215Z" fill="currentColor"></path>
  </g>
</symbol><symbol viewBox="0 0 24 24" id="business-icon-logout">
  <g>
  <g>
  <path d="M20.7007 11.5741L17.5406 8.53173C17.2878 8.28825 16.9086 8.28825 16.6558 8.53173C16.403 8.77504 16.403 9.14018 16.6558 9.38365L18.7414 11.3916H12.674C12.2948 11.3916 12.042 11.6349 12.042 12C12.042 12.3651 12.2948 12.6085 12.674 12.6085H18.7414L16.656 14.6164C16.4032 14.8599 16.4032 15.225 16.656 15.4683C16.7824 15.5901 16.9088 15.6509 17.0983 15.6509C17.288 15.6509 17.4144 15.59 17.5408 15.4683L20.7009 12.3651C20.7009 12.3651 20.7009 12.3042 20.7642 12.3042C20.9537 12.1217 20.9537 11.7567 20.7009 11.5741L20.7007 11.5741Z" fill="currentColor"></path>
  <path d="M17.9943 16.2593C17.6151 16.2593 17.3623 16.5028 17.3623 16.8677V18.0848C17.3623 18.4498 17.1095 18.6932 16.7303 18.6932H5.98591C5.6067 18.6932 5.35389 18.4498 5.35389 18.0848V5.91516C5.35389 5.55019 5.6067 5.30671 5.98591 5.30671H16.7303C17.1095 5.30671 17.3623 5.55019 17.3623 5.91516V7.13222C17.3623 7.49721 17.6151 7.74067 17.9943 7.74067C18.3735 7.74067 18.6263 7.49719 18.6263 7.13222V5.91516C18.6263 4.88083 17.8048 4.08981 16.7303 4.08981H5.98591C4.91155 4.08981 4.08984 4.88083 4.08984 5.91516V18.0848C4.08984 19.1191 4.91157 19.9101 5.98591 19.9101H16.7303C17.8048 19.9101 18.6263 19.1191 18.6263 18.0848V16.8677C18.6263 16.5027 18.3735 16.2593 17.9943 16.2593Z" fill="currentColor"></path>
  </g>
  </g>
  </symbol><symbol viewBox="0 0 24 24" id="business-icon-order">
  <g>
    <path d="M18.8 9.8H5.2V16.8C5.2 16.9313 5.22587 17.0614 5.27612 17.1827C5.32638 17.304 5.40003 17.4142 5.49289 17.5071C5.58575 17.6 5.69599 17.6736 5.81732 17.7239C5.93864 17.7741 6.06868 17.8 6.2 17.8H17.8C17.9313 17.8 18.0614 17.7741 18.1827 17.7239C18.304 17.6736 18.4142 17.6 18.5071 17.5071C18.6 17.4142 18.6736 17.304 18.7239 17.1827C18.7741 17.0614 18.8 16.9313 18.8 16.8V9.8ZM5.2 8.6H18.8V7.2C18.8 7.06868 18.7741 6.93864 18.7239 6.81732C18.6736 6.69599 18.6 6.58575 18.5071 6.49289C18.4142 6.40003 18.304 6.32638 18.1827 6.27612C18.0614 6.22587 17.9313 6.2 17.8 6.2H6.2C6.06868 6.2 5.93864 6.22587 5.81732 6.27612C5.69599 6.32638 5.58575 6.40003 5.49289 6.49289C5.40003 6.58575 5.32638 6.69599 5.27612 6.81732C5.22587 6.93864 5.2 7.06868 5.2 7.2V8.6ZM16.6 15C16.7591 15 16.9117 15.0632 17.0243 15.1757C17.1368 15.2883 17.2 15.4409 17.2 15.6C17.2 15.7591 17.1368 15.9117 17.0243 16.0243C16.9117 16.1368 16.7591 16.2 16.6 16.2H14.6C14.4409 16.2 14.2883 16.1368 14.1757 16.0243C14.0632 15.9117 14 15.7591 14 15.6C14 15.4409 14.0632 15.2883 14.1757 15.1757C14.2883 15.0632 14.4409 15 14.6 15H16.6ZM6.2 5H17.8C19.015 5 20 5.985 20 7.2V16.8C20 18.015 19.015 19 17.8 19H6.2C4.985 19 4 18.015 4 16.8V7.2C4 5.985 4.985 5 6.2 5Z" fill="currentColor"></path>
  </g>
</symbol><symbol viewBox="0 0 24 24" id="business-icon-partner">
  <g>
  <path d="M12.9402 6.88049C14.4355 4.82668 17.3131 4.37358 19.367 5.86877C21.4208 7.36401 21.8729 10.2417 20.3777 12.2955L16.7556 17.2701C16.4374 17.8953 15.9729 18.4579 15.367 18.899C14.5478 19.4954 13.5972 19.7803 12.656 19.7789C12.645 19.7791 12.6339 19.7788 12.6228 19.7789C12.6118 19.7788 12.6007 19.7791 12.5896 19.7789C11.649 19.78 10.6993 19.4951 9.88065 18.899C9.27454 18.4578 8.80931 17.8954 8.491 17.2701L4.86893 12.2955C3.37375 10.2416 3.82676 7.36399 5.88065 5.86877C7.93454 4.37366 10.8122 4.82663 12.3074 6.88049L12.6228 7.31506L12.9402 6.88049ZM11.3367 7.58655C10.2315 6.06876 8.10468 5.7344 6.5867 6.83948C5.06884 7.9447 4.73453 10.0715 5.83963 11.5895L8.02518 14.5905C8.12035 13.849 8.39799 13.1203 8.86893 12.4733L9.10623 12.1471C9.30126 11.8792 9.6772 11.8202 9.9451 12.0153C10.2127 12.2104 10.2719 12.5854 10.0769 12.8531L9.83963 13.1793C9.08062 14.2219 9.00017 15.5516 9.51639 16.6403L9.91092 17.1813C10.566 18.0811 11.5797 18.5649 12.6131 18.5797C13.6538 18.5713 14.6771 18.0873 15.3367 17.1813L15.7303 16.6403C16.2466 15.5516 16.167 14.222 15.408 13.1793L12.6228 9.35413L11.8748 10.3834C11.6798 10.651 11.3047 10.71 11.0369 10.5153C10.769 10.3202 10.71 9.94429 10.9051 9.67639L11.8806 8.33459L11.3367 7.58655ZM18.6599 6.83948C17.142 5.73459 15.0161 6.06894 13.9109 7.58655L13.366 8.33459L16.3777 12.4733C16.849 13.1206 17.1264 13.8496 17.2215 14.5914L19.408 11.5895C20.5132 10.0714 20.178 7.94464 18.6599 6.83948Z" fill="currentColor"></path>
  </g>
  </symbol><symbol viewBox="0 0 24 24" id="business-icon-pin">
  <g>
  <path d="M14.646 3.98848L14.787 4.05748C14.928 4.13548 15.054 4.22998 15.162 4.33948L19.668 8.85448L19.773 8.96998C19.936 9.16902 20.0508 9.40299 20.1085 9.65368C20.1662 9.90436 20.1653 10.165 20.1058 10.4153C20.0463 10.6655 19.9298 10.8987 19.7654 11.0965C19.601 11.2944 19.3931 11.4516 19.158 11.556L17.607 12.231L14.5875 15.2265L14.5425 15.3015L14.304 18.606L14.286 18.7605C14.2343 19.062 14.1008 19.3435 13.9 19.5743C13.6992 19.8051 13.4388 19.9763 13.1473 20.0691C12.8559 20.162 12.5445 20.173 12.2472 20.101C11.9499 20.0289 11.6781 19.8765 11.4615 19.6605L8.51698 16.7085L5.52598 19.467C5.40547 19.5887 5.24951 19.669 5.08048 19.6965L4.95298 19.7055C4.84422 19.7055 4.73656 19.6838 4.63634 19.6415C4.53613 19.5993 4.44539 19.5374 4.36948 19.4595L4.29298 19.368C4.18114 19.2107 4.1288 19.0188 4.14528 18.8265C4.16177 18.6342 4.246 18.454 4.38298 18.318L7.37248 15.5625L4.33198 12.5175L4.22848 12.402C4.03512 12.1656 3.91026 11.8807 3.86745 11.5783C3.82464 11.2759 3.86553 10.9675 3.98567 10.6868C4.10581 10.406 4.30061 10.1635 4.54889 9.98562C4.79718 9.80777 5.08946 9.70137 5.39398 9.67798L8.72998 9.43798L8.81248 9.40948L11.7195 6.51148L12.4545 4.84948L12.5235 4.70848C12.7247 4.34631 13.0534 4.07197 13.4458 3.93887C13.8381 3.80578 14.266 3.82347 14.646 3.98848ZM13.9605 5.43898L13.0815 7.44598L9.45898 11.004L5.39998 11.3055L12.678 18.6L13.005 14.532L16.668 10.8735L18.561 10.0485L13.9605 5.43898Z" fill="currentColor"></path>
  </g>
  </symbol><symbol viewBox="0 0 24 24" id="business-icon-settings">
  <g>
    <path fill-rule="evenodd" clip-rule="evenodd" d="M10.6011 4.17279C10.6555 4.00945 10.8084 3.89928 10.9806 3.89928H13.0193C13.1914 3.89928 13.3443 4.00945 13.3987 4.17279L13.9099 5.70623C14.0441 6.1088 14.3327 6.44158 14.7122 6.63135L15.7114 7.13093C16.0909 7.3207 16.5303 7.35192 16.9329 7.21773L18.3273 6.75293C18.5162 6.68998 18.7226 6.77547 18.8116 6.95351L19.8023 8.93494C19.8867 9.10364 19.8417 9.30835 19.6944 9.42618L18.5258 10.361C18.1463 10.6647 17.9254 11.1244 17.9254 11.6104V12.3893C17.9254 12.8753 18.1463 13.335 18.5258 13.6387L19.6944 14.5735C19.8417 14.6914 19.8867 14.8961 19.8023 15.0648L18.8116 17.0462C18.7226 17.2242 18.5162 17.3097 18.3273 17.2468L17.037 16.8167C16.5389 16.6507 15.9911 16.7396 15.571 17.0546L14.4744 17.877C14.2397 18.0531 14.0578 18.2904 13.9489 18.5628L13.4344 19.849C13.3736 20.0009 13.2266 20.1004 13.063 20.1004H10.9368C10.7733 20.1004 10.6262 20.0009 10.5654 19.849L10.051 18.5628C9.94199 18.2904 9.76017 18.0531 9.52541 17.877L8.42879 17.0546C8.00877 16.7396 7.46092 16.6507 6.96283 16.8167L5.67251 17.2468C5.48366 17.3097 5.27727 17.2242 5.18825 17.0462L4.25013 15.17C4.15666 14.983 4.22288 14.7556 4.4021 14.6481L5.29768 14.1107C5.77961 13.8216 6.07449 13.3008 6.07449 12.7388V11.6104C6.07449 11.1244 5.85354 10.6647 5.474 10.361L4.30543 9.42618C4.15814 9.30835 4.11318 9.10365 4.19753 8.93494L5.18825 6.95351C5.27727 6.77547 5.48366 6.68998 5.67251 6.75293L7.06694 7.21773C7.46951 7.35192 7.9089 7.3207 8.28844 7.13093L9.28759 6.63135C9.66714 6.44158 9.95575 6.1088 10.0899 5.70623L10.6011 4.17279ZM10.9806 2.69928C10.2919 2.69928 9.68045 3.13997 9.46267 3.79331L8.95152 5.32676C8.91797 5.4274 8.84582 5.5106 8.75093 5.55804L7.75179 6.05761C7.6569 6.10506 7.54705 6.11286 7.44641 6.07931L6.05198 5.61451C5.2966 5.36271 4.47102 5.70468 4.11493 6.41686L3.12422 8.39829C2.78682 9.0731 2.96666 9.89191 3.55579 10.3632L4.72436 11.2981C4.81925 11.374 4.87449 11.4889 4.87449 11.6104V12.7388C4.87449 12.8793 4.80077 13.0095 4.68028 13.0818L3.78471 13.6191C3.0678 14.0492 2.80292 14.9588 3.17682 15.7066L4.11494 17.5829C4.47102 18.295 5.2966 18.637 6.05198 18.3852L7.3423 17.9551C7.46682 17.9136 7.60379 17.9358 7.70879 18.0146L8.80541 18.837C8.8641 18.8811 8.90956 18.9404 8.9368 19.0085L9.45127 20.2947C9.69426 20.9021 10.2826 21.3004 10.9368 21.3004H13.063C13.7172 21.3004 14.3056 20.9021 14.5486 20.2947L15.063 19.0085C15.0903 18.9404 15.1357 18.8811 15.1944 18.837L16.291 18.0146C16.3961 17.9358 16.533 17.9136 16.6575 17.9551L17.9479 18.3852C18.7032 18.637 19.5288 18.295 19.8849 17.5829L20.8756 15.6014C21.213 14.9266 21.0332 14.1078 20.444 13.6365L19.2755 12.7016C19.1806 12.6257 19.1254 12.5108 19.1254 12.3893V11.6104C19.1254 11.4889 19.1806 11.374 19.2755 11.2981L20.444 10.3632C21.0332 9.89191 21.213 9.0731 20.8756 8.39829L19.8849 6.41686C19.5288 5.70468 18.7032 5.36271 17.9479 5.61451L16.5534 6.07931C16.4528 6.11286 16.3429 6.10506 16.2481 6.05761L15.2489 5.55804C15.154 5.5106 15.0819 5.4274 15.0483 5.32676L14.5372 3.79332C14.3194 3.13997 13.708 2.69928 13.0193 2.69928H10.9806ZM9.98975 11.9999C9.98975 10.8897 10.8897 9.98968 11.9999 9.98968C13.1101 9.98968 14.0101 10.8897 14.0101 11.9999C14.0101 13.11 13.1101 14.01 11.9999 14.01C10.8897 14.01 9.98975 13.11 9.98975 11.9999ZM11.9999 8.78968C10.227 8.78968 8.78975 10.2269 8.78975 11.9999C8.78975 13.7728 10.227 15.21 11.9999 15.21C13.7728 15.21 15.2101 13.7728 15.2101 11.9999C15.2101 10.2269 13.7728 8.78968 11.9999 8.78968Z" fill="currentColor"></path>
  </g>
</symbol><symbol viewBox="0 0 24 24" id="business-icon-whatsapp">
  <g>
    <path d="M18.8971 5.01458C17.0553 3.16833 14.6024 2.15289 11.9956 2.15289C6.61509 2.15289 2.23684 6.53114 2.23684 11.9116C2.23684 13.6304 2.68521 15.3097 3.53801 16.7911L2.15332 21.8462L7.32722 20.4879C8.75151 21.266 10.3559 21.6748 11.9912 21.6748H11.9956C17.3717 21.6748 21.8467 17.2965 21.8467 11.9161C21.8467 9.30933 20.7389 6.86084 18.8971 5.01458ZM11.9956 20.0307C10.5362 20.0307 9.10757 19.6395 7.86351 18.901L7.56899 18.7252L4.50069 19.5296L5.31832 16.5361L5.12491 16.2284C4.31167 14.936 3.88528 13.4458 3.88528 11.9116C3.88528 7.44109 7.52503 3.80133 12 3.80133C14.1671 3.80133 16.2024 4.64534 17.7321 6.17948C19.2619 7.71362 20.2026 9.74888 20.1982 11.9161C20.1982 16.391 16.4661 20.0307 11.9956 20.0307ZM16.4442 13.9557C16.2024 13.8326 15.0024 13.2436 14.7782 13.1645C14.5539 13.0809 14.3913 13.0414 14.2287 13.2876C14.0661 13.5338 13.6001 14.0788 13.455 14.2459C13.3143 14.4085 13.1693 14.4305 12.9275 14.3074C11.4945 13.5908 10.5537 13.0282 9.60865 11.4062C9.35811 10.9754 9.8592 11.0061 10.3251 10.0742C10.4043 9.91156 10.3647 9.7709 10.3032 9.64782C10.2417 9.52473 9.75368 8.32465 9.55148 7.83671C9.35374 7.36196 9.15145 7.4279 9.00206 7.41911C8.8614 7.41032 8.69871 7.41032 8.53608 7.41032C8.37343 7.41032 8.10968 7.47186 7.88549 7.71362C7.6613 7.9598 7.0327 8.54884 7.0327 9.74888C7.0327 10.949 7.90747 12.1094 8.02616 12.2721C8.14924 12.4347 9.74494 14.8964 12.1935 15.9558C13.7408 16.624 14.3474 16.6811 15.121 16.5668C15.5914 16.4965 16.5629 15.9778 16.7651 15.4064C16.9673 14.8349 16.9673 14.3469 16.9058 14.2459C16.8486 14.136 16.686 14.0744 16.4442 13.9557Z" fill="currentColor"></path>
  </g>
</symbol></svg>