<svg xmlns="http://www.w3.org/2000/svg" viewBox="0 0 25 25" fill="currentColor">
  <path
    d="M21.115 8.08866C20.6032 7.20416 19.8771 6.41429 18.9539 5.7403C17.098 4.38459 14.6435 3.63721 12.0421 3.63721C9.44077 3.63721 6.98619 4.38459 5.13223 5.7403C4.20911 6.41429 3.48297 7.20609 2.9712 8.08866C2.42853 9.02529 2.1543 10.0218 2.1543 11.0531C2.1543 12.0843 2.42853 13.0808 2.96927 14.0175C3.48104 14.902 4.20718 15.6918 5.1303 16.3658C6.21371 17.1576 7.50183 17.7428 8.90582 18.0904L11.5516 20.7362C11.6868 20.8714 11.8644 20.939 12.044 20.939C12.2217 20.939 12.3994 20.8714 12.5365 20.7362L15.1842 18.0885C16.5843 17.7389 17.8705 17.1557 18.9539 16.3658C19.8771 15.6918 20.6032 14.9 21.115 14.0175C21.6557 13.0808 21.9299 12.0843 21.9299 11.0531C21.9299 10.0218 21.6557 9.02529 21.115 8.08866ZM12.1792 15.9487C11.7949 15.9487 11.484 15.6378 11.484 15.2535C11.484 14.8691 11.7949 14.5582 12.1792 14.5582C12.5635 14.5582 12.8745 14.8691 12.8745 15.2535C12.8745 15.6378 12.5635 15.9487 12.1792 15.9487ZM14.1568 11.7097C13.8034 12.0901 13.3631 12.3644 12.8764 12.515V13.1677C12.8764 13.5521 12.5655 13.863 12.1812 13.863C11.7968 13.863 11.4859 13.5521 11.4859 13.1677V11.3003L12.1271 11.2501C12.9266 11.1883 13.5523 10.5123 13.5523 9.70894C13.5523 8.85728 12.859 8.16397 12.0074 8.16397C11.3025 8.16397 10.6883 8.63905 10.5126 9.31884C10.416 9.68963 10.0375 9.91365 9.66479 9.81709C9.294 9.72053 9.06997 9.34201 9.16654 8.96929C9.50257 7.67538 10.671 6.7735 12.0074 6.7735C13.6257 6.7735 14.9428 8.09059 14.9428 9.70894C14.9409 10.4544 14.6628 11.1651 14.1568 11.7097Z"
  />
</svg>
