<svg xmlns="http://www.w3.org/2000/svg" viewBox="0 0 24 24" fill="currentColor">
  <mask id="path-1-inside-1_624_784" fill="currentColor">
    <path
      d="M5.93848 3.94778C6.72463 3.26049 7.92752 3.37838 8.56527 4.20521L10.6227 6.87256C11.2372 7.66926 11.0845 8.81343 10.2843 9.42134C9.86316 9.76382 9.7927 10.3553 10.1034 10.7552C10.5926 11.3848 11.1163 11.9939 11.6655 12.543C12.1582 13.0357 12.7229 13.5199 13.3202 13.9834C13.6719 14.2563 14.1924 14.1989 14.4985 13.8316C15.1069 13.0335 16.2496 12.8817 17.0455 13.4956L19.7129 15.553C20.5397 16.1908 20.6576 17.3936 19.9703 18.1798L18.9384 19.3601C18.4172 19.9562 17.6649 20.3132 16.8999 20.4432C16.1345 20.5732 15.307 20.4847 14.6128 20.1296C14.5574 20.1013 14.501 20.0719 14.4436 20.0416C14.3703 20.005 14.2979 19.9659 14.2264 19.9244C12.8507 19.1676 10.9505 17.8463 8.65638 15.5521C7.36674 14.2625 6.08268 12.5331 5.33025 11.4883C5.16074 11.2529 5.21414 10.9247 5.44953 10.7552C5.68492 10.5856 6.01316 10.639 6.18267 10.8744C6.90124 11.8723 8.14844 13.5587 9.39915 14.8094C11.6335 17.0437 13.4573 18.3031 14.738 19.0069L14.7438 19.0101L14.7495 19.0135C14.8048 19.0457 14.8609 19.0759 14.9176 19.1042L14.9235 19.1071L14.9293 19.1102C14.9844 19.1393 15.0383 19.1674 15.0912 19.1944C15.5537 19.431 16.146 19.5058 16.724 19.4076C17.3023 19.3093 17.8171 19.0467 18.1475 18.6687L19.1794 17.4884C19.4682 17.1581 19.4187 16.6527 19.0713 16.3848L16.4039 14.3274C16.0681 14.0683 15.5853 14.1338 15.3306 14.4729L15.3241 14.4815L15.3172 14.4899C14.6732 15.2773 13.507 15.458 12.6762 14.8133C12.054 14.3304 11.4542 13.8172 10.9227 13.2858C10.3362 12.6993 9.78375 12.0558 9.27393 11.3997C8.58707 10.5158 8.78845 9.27493 9.63216 8.5978L9.6387 8.59254L9.64542 8.5875C9.98451 8.33274 10.0499 7.84995 9.79091 7.51412L7.73351 4.84677C7.46556 4.49938 6.96017 4.44985 6.62987 4.73861L5.44953 5.77052C4.96687 6.19249 4.72688 6.66802 4.65568 7.16767C4.58305 7.67728 4.68134 8.24976 4.94318 8.85487L4.94994 8.8705L4.95568 8.88654C4.98705 8.97424 5.02498 9.06157 5.0699 9.1482C5.20343 9.4057 5.10293 9.72271 4.84542 9.85624C4.58791 9.98977 4.27091 9.88926 4.13738 9.63176C4.07357 9.5087 4.01869 9.38352 3.97253 9.25674C3.6602 8.52919 3.50964 7.764 3.61574 7.01947C3.72401 6.25975 4.09468 5.55973 4.75815 4.97969L5.93848 3.94778Z"
    />
  </mask>
  <path
    d="M8.56527 4.20521L7.61508 4.93811L7.61509 4.93811L8.56527 4.20521ZM5.93848 3.94778L6.72831 4.85121L6.72831 4.85121L5.93848 3.94778ZM10.6227 6.87256L11.5729 6.13965L11.5729 6.13965L10.6227 6.87256ZM10.2843 9.42134L9.55837 8.46582L9.54258 8.47782L9.5272 8.49032L10.2843 9.42134ZM10.1034 10.7552L11.0509 10.0189L10.1034 10.7552ZM11.6655 12.543L10.817 13.3915L11.6655 12.543ZM13.3202 13.9834L12.5845 14.9314L13.3202 13.9834ZM14.4985 13.8316L15.4203 14.5999L15.437 14.5798L15.4529 14.5591L14.4985 13.8316ZM17.0455 13.4956L17.7784 12.5454H17.7784L17.0455 13.4956ZM19.7129 15.553L18.9799 16.5032L18.9799 16.5032L19.7129 15.553ZM19.9703 18.1798L19.0669 17.39L19.0669 17.39L19.9703 18.1798ZM18.9384 19.3601L19.8418 20.1499L18.9384 19.3601ZM16.8999 20.4432L17.1008 21.6262L17.1008 21.6262L16.8999 20.4432ZM14.6128 20.1296L15.1593 19.0612H15.1593L14.6128 20.1296ZM14.4436 20.0416L15.0045 18.9807L14.9923 18.9743L14.98 18.9682L14.4436 20.0416ZM14.2264 19.9244L14.8289 18.8866L14.8169 18.8797L14.8048 18.873L14.2264 19.9244ZM5.33025 11.4883L4.35648 12.1895L4.35648 12.1895L5.33025 11.4883ZM5.44953 10.7552L6.15079 11.7289L6.15079 11.7289L5.44953 10.7552ZM6.18267 10.8744L5.20889 11.5757L5.20889 11.5757L6.18267 10.8744ZM14.738 19.0069L14.16 20.0586L14.1601 20.0586L14.738 19.0069ZM14.7438 19.0101L15.3482 17.9734L15.335 17.9658L15.3217 17.9584L14.7438 19.0101ZM14.7495 19.0135L14.1451 20.0501L14.1452 20.0502L14.7495 19.0135ZM14.9176 19.1042L14.3831 20.1785L14.3832 20.1786L14.9176 19.1042ZM14.9235 19.1071L15.4851 18.0466L15.4716 18.0394L15.4579 18.0326L14.9235 19.1071ZM14.9293 19.1102L14.3678 20.1707L14.368 20.1708L14.9293 19.1102ZM15.0912 19.1944L14.5447 20.2627L14.5447 20.2627L15.0912 19.1944ZM16.724 19.4076L16.9249 20.5906H16.9249L16.724 19.4076ZM18.1475 18.6687L19.051 19.4586L19.051 19.4586L18.1475 18.6687ZM19.1794 17.4884L20.0829 18.2782L20.0829 18.2782L19.1794 17.4884ZM19.0713 16.3848L18.3384 17.3349L18.3384 17.3349L19.0713 16.3848ZM16.4039 14.3274L17.1368 13.3772L17.1368 13.3772L16.4039 14.3274ZM15.3306 14.4729L14.3712 13.752L14.3712 13.7521L15.3306 14.4729ZM15.3241 14.4815L16.253 15.2412L16.2686 15.2221L16.2835 15.2023L15.3241 14.4815ZM15.3172 14.4899L16.2461 15.2496L16.2461 15.2496L15.3172 14.4899ZM12.6762 14.8133L13.4119 13.8652L12.6762 14.8133ZM10.9227 13.2858L11.7713 12.4373L10.9227 13.2858ZM9.27393 11.3997L10.2215 10.6634L9.27393 11.3997ZM9.63216 8.5978L10.3833 9.53367L10.3833 9.53366L9.63216 8.5978ZM9.6387 8.59254L8.91794 7.63311L8.90259 7.64465L8.88761 7.65667L9.6387 8.59254ZM9.64542 8.5875L10.3662 9.54693L10.3662 9.5469L9.64542 8.5875ZM9.79091 7.51412L10.7411 6.78121L10.7411 6.78121L9.79091 7.51412ZM7.73351 4.84677L6.78332 5.57967L6.78332 5.57967L7.73351 4.84677ZM6.62987 4.73861L7.41969 5.64204L7.41969 5.64204L6.62987 4.73861ZM5.44953 5.77052L4.65971 4.86709L4.65971 4.86709L5.44953 5.77052ZM4.65568 7.16767L3.46768 6.99837L3.46768 6.99837L4.65568 7.16767ZM4.94318 8.85487L3.84186 9.33142L3.84187 9.33144L4.94318 8.85487ZM4.94994 8.8705L6.07982 8.46632L6.06671 8.42966L6.05125 8.39394L4.94994 8.8705ZM4.95568 8.88654L3.8258 9.29073L3.8258 9.29074L4.95568 8.88654ZM5.0699 9.1482L4.00461 9.7006L4.00461 9.7006L5.0699 9.1482ZM4.84542 9.85624L5.39782 10.9215L5.39782 10.9215L4.84542 9.85624ZM4.13738 9.63176L5.20267 9.07935L5.20267 9.07935L4.13738 9.63176ZM3.97253 9.25674L5.10013 8.84624L5.08856 8.81446L5.07522 8.78338L3.97253 9.25674ZM3.61574 7.01947L2.42774 6.85017L3.61574 7.01947ZM4.75815 4.97969L3.96833 4.07626L3.96832 4.07626L4.75815 4.97969ZM9.51546 3.4723C8.45524 2.09778 6.45556 1.90179 5.14866 3.04435L6.72831 4.85121C6.9937 4.61919 7.39979 4.65898 7.61508 4.93811L9.51546 3.4723ZM11.5729 6.13965L9.51545 3.4723L7.61509 4.93811L9.67249 7.60546L11.5729 6.13965ZM11.0102 10.3769C12.3406 9.36617 12.5945 7.46413 11.5729 6.13965L9.67248 7.60546C9.87992 7.87439 9.82838 8.26069 9.55837 8.46582L11.0102 10.3769ZM11.0509 10.0189C11.1625 10.1624 11.0982 10.3061 11.0414 10.3524L9.5272 8.49032C8.62808 9.22149 8.42293 10.5483 9.15583 11.4915L11.0509 10.0189ZM12.514 11.6945C12.0076 11.188 11.5167 10.6182 11.0509 10.0189L9.15583 11.4915C9.66858 12.1513 10.2251 12.7997 10.817 13.3915L12.514 11.6945ZM14.0558 13.0353C13.487 12.594 12.9625 12.1429 12.514 11.6945L10.817 13.3915C11.354 13.9285 11.9587 14.4458 12.5845 14.9314L14.0558 13.0353ZM13.5767 13.0633C13.6637 12.959 13.8715 12.8923 14.0558 13.0353L12.5845 14.9314C13.4723 15.6203 14.7211 15.4388 15.4203 14.5999L13.5767 13.0633ZM17.7784 12.5454C16.4552 11.5248 14.5556 11.7772 13.5442 13.1041L15.4529 14.5591C15.6581 14.2898 16.0439 14.2386 16.3126 14.4458L17.7784 12.5454ZM20.4458 14.6028L17.7784 12.5454L16.3126 14.4458L18.9799 16.5032L20.4458 14.6028ZM20.8737 18.9696C22.0163 17.6627 21.8203 15.663 20.4458 14.6028L18.9799 16.5032C19.2591 16.7185 19.2989 17.1246 19.0669 17.39L20.8737 18.9696ZM19.8418 20.1499L20.8737 18.9696L19.0669 17.39L18.0349 18.5703L19.8418 20.1499ZM17.1008 21.6262C18.0788 21.4601 19.1026 20.9954 19.8418 20.1499L18.0349 18.5703C17.7318 18.917 17.251 19.1664 16.6989 19.2601L17.1008 21.6262ZM14.0663 21.1979C15.0254 21.6885 16.1215 21.7926 17.1008 21.6262L16.6989 19.2601C16.1474 19.3538 15.5887 19.2809 15.1593 19.0612L14.0663 21.1979ZM13.8827 21.1024C13.9449 21.1353 14.0061 21.1671 14.0663 21.1979L15.1593 19.0612C15.1087 19.0354 15.0571 19.0086 15.0045 18.9807L13.8827 21.1024ZM13.6239 20.9622C13.7171 21.0163 13.8116 21.0672 13.9072 21.115L14.98 18.9682C14.9291 18.9427 14.8787 18.9155 14.8289 18.8866L13.6239 20.9622ZM7.80785 16.4007C10.1737 18.7665 12.1633 20.159 13.648 20.9758L14.8048 18.873C13.538 18.1761 11.7273 16.926 9.50491 14.7036L7.80785 16.4007ZM4.35648 12.1895C5.1099 13.2358 6.44304 15.0359 7.80785 16.4007L9.50491 14.7036C8.29043 13.4891 7.05547 11.8305 6.30403 10.787L4.35648 12.1895ZM4.74828 9.78138C3.97509 10.3382 3.79967 11.4164 4.35648 12.1895L6.30403 10.787C6.52181 11.0894 6.4532 11.5112 6.15079 11.7289L4.74828 9.78138ZM7.15644 10.1732C6.59964 9.39999 5.52146 9.22458 4.74828 9.78138L6.15079 11.7289C5.84838 11.9467 5.42667 11.8781 5.20889 11.5757L7.15644 10.1732ZM10.2477 13.9608C9.07285 12.786 7.87542 11.1716 7.15644 10.1732L5.20889 11.5757C5.92706 12.5729 7.22404 14.3313 8.55063 15.6579L10.2477 13.9608ZM15.316 17.9553C14.1444 17.3114 12.4102 16.1234 10.2477 13.9608L8.55063 15.6579C10.8568 17.9641 12.7702 19.2948 14.16 20.0586L15.316 17.9553ZM15.3217 17.9584L15.3159 17.9552L14.1601 20.0586L14.1659 20.0618L15.3217 17.9584ZM15.3539 17.9768L15.3482 17.9734L14.1394 20.0468L14.1451 20.0501L15.3539 17.9768ZM15.4522 18.0298C15.4191 18.0133 15.3862 17.9956 15.3538 17.9767L14.1452 20.0502C14.2234 20.0958 14.3027 20.1386 14.3831 20.1785L15.4522 18.0298ZM15.4579 18.0326L15.452 18.0297L14.3832 20.1786L14.3891 20.1815L15.4579 18.0326ZM15.4909 18.0497L15.4851 18.0466L14.362 20.1676L14.3678 20.1707L15.4909 18.0497ZM15.6377 18.1261C15.5898 18.1016 15.5408 18.0761 15.4907 18.0496L14.368 20.1708C14.428 20.2025 14.4869 20.2332 14.5447 20.2627L15.6377 18.1261ZM16.523 18.2245C16.1594 18.2863 15.8358 18.2274 15.6377 18.1261L14.5447 20.2627C15.2717 20.6346 16.1325 20.7252 16.9249 20.5906L16.523 18.2245ZM17.2441 17.8789C17.1312 18.0081 16.8875 18.1626 16.523 18.2245L16.9249 20.5906C17.7171 20.4561 18.503 20.0854 19.051 19.4586L17.2441 17.8789ZM18.276 16.6986L17.2441 17.8789L19.051 19.4586L20.0829 18.2782L18.276 16.6986ZM18.3384 17.3349C18.1381 17.1804 18.1095 16.889 18.276 16.6986L20.0829 18.2782C20.8269 17.4272 20.6993 16.125 19.8042 15.4346L18.3384 17.3349ZM15.671 15.2775L18.3384 17.3349L19.8042 15.4346L17.1368 13.3772L15.671 15.2775ZM16.29 15.1937C16.1431 15.3892 15.8647 15.4269 15.671 15.2775L17.1368 13.3772C16.2715 12.7097 15.0276 12.8783 14.3712 13.752L16.29 15.1937ZM16.2835 15.2023L16.29 15.1936L14.3712 13.7521L14.3647 13.7607L16.2835 15.2023ZM16.2461 15.2496L16.253 15.2412L14.3951 13.7218L14.3883 13.7302L16.2461 15.2496ZM11.9405 15.7613C13.3186 16.8307 15.2171 16.5076 16.2461 15.2496L14.3883 13.7302C14.1292 14.047 13.6954 14.0852 13.4119 13.8652L11.9405 15.7613ZM10.0742 14.1343C10.6499 14.71 11.2898 15.2564 11.9405 15.7613L13.4119 13.8652C12.8181 13.4045 12.2585 12.9244 11.7713 12.4373L10.0742 14.1343ZM8.32637 12.136C8.85969 12.8223 9.445 13.5051 10.0742 14.1343L11.7713 12.4373C11.2274 11.8934 10.7078 11.2892 10.2215 10.6634L8.32637 12.136ZM8.88106 7.66193C7.56267 8.72002 7.2093 10.6984 8.32637 12.136L10.2215 10.6634C9.96484 10.3331 10.0142 9.82983 10.3833 9.53367L8.88106 7.66193ZM8.88761 7.65667L8.88106 7.66193L10.3833 9.53366L10.3898 9.52841L8.88761 7.65667ZM8.92465 7.62807L8.91794 7.63311L10.3595 9.55197L10.3662 9.54693L8.92465 7.62807ZM8.84072 8.24702C8.69136 8.05337 8.72909 7.775 8.92461 7.6281L10.3662 9.5469C11.2399 8.89047 11.4085 7.64653 10.7411 6.78121L8.84072 8.24702ZM6.78332 5.57967L8.84072 8.24702L10.7411 6.78121L8.68369 4.11386L6.78332 5.57967ZM7.41969 5.64204C7.22924 5.80854 6.93783 5.77998 6.78332 5.57967L8.68369 4.11386C7.99329 3.21878 6.69109 3.09115 5.84005 3.83518L7.41969 5.64204ZM6.23935 6.67395L7.41969 5.64204L5.84005 3.83518L4.65971 4.86709L6.23935 6.67395ZM5.84367 7.33697C5.87256 7.13429 5.96336 6.91523 6.23935 6.67395L4.65971 4.86709C3.97038 5.46974 3.5812 6.20176 3.46768 6.99837L5.84367 7.33697ZM6.0445 8.37832C5.84553 7.9185 5.81012 7.57242 5.84367 7.33697L3.46768 6.99837C3.35599 7.78214 3.51715 8.58102 3.84186 9.33142L6.0445 8.37832ZM6.05125 8.39394L6.04449 8.37831L3.84187 9.33144L3.84863 9.34707L6.05125 8.39394ZM6.08556 8.48235L6.07982 8.46632L3.82006 9.27469L3.8258 9.29073L6.08556 8.48235ZM6.13519 8.59579C6.11499 8.55683 6.09867 8.519 6.08555 8.48233L3.8258 9.29074C3.87544 9.42948 3.93497 9.56631 4.00461 9.7006L6.13519 8.59579ZM5.39782 10.9215C6.24368 10.4829 6.57381 9.44164 6.13519 8.59579L4.00461 9.7006C3.83305 9.36977 3.96218 8.9625 4.29301 8.79095L5.39782 10.9215ZM3.07208 10.1842C3.5107 11.03 4.55197 11.3601 5.39782 10.9215L4.29301 8.79094C4.62384 8.61939 5.03111 8.74851 5.20267 9.07935L3.07208 10.1842ZM2.84493 9.66725C2.90886 9.84284 2.98458 10.0154 3.07208 10.1842L5.20267 9.07935C5.16256 9.00199 5.12852 8.9242 5.10013 8.84624L2.84493 9.66725ZM2.42774 6.85017C2.28279 7.86729 2.49534 8.85772 2.86984 9.73011L5.07522 8.78338C4.82507 8.20065 4.73648 7.66072 4.80374 7.18877L2.42774 6.85017ZM3.96832 4.07626C3.09838 4.83681 2.57836 5.79324 2.42774 6.85017L4.80374 7.18877C4.86965 6.72625 5.09098 6.28264 5.54797 5.88312L3.96832 4.07626ZM5.14866 3.04435L3.96833 4.07626L5.54797 5.88312L6.72831 4.85121L5.14866 3.04435Z"
    mask="url(#path-1-inside-1_624_784)"
  />
</svg>
