<svg xmlns="http://www.w3.org/2000/svg" viewBox="0 0 24 24" fill="currentColor">
  <path
    d="M20.7062 19.5047H19.9819V11.3264C19.9819 10.5501 19.2892 9.89753 18.4615 9.89753H16.6684C16.4166 9.89753 16.155 10.1366 16.155 10.3743C16.155 10.6127 16.406 10.8511 16.6684 10.8511H18.4615C18.6493 10.8511 18.8497 11.0367 18.8497 11.2139V19.3936H15.5981V6.04397C15.5981 5.26764 14.9047 4.61646 14.0771 4.61646H5.97824C5.14988 4.61646 4.45721 5.26764 4.45721 6.04397V19.5047H3.61687C3.36511 19.5047 3.10352 19.7431 3.10352 19.9815C3.10352 20.2192 3.35457 20.4583 3.61687 20.4583H20.5901C20.8419 20.4583 21.1035 20.2192 21.1035 19.9815C21.1056 19.7431 20.9685 19.5047 20.7062 19.5047ZM14.5693 19.5047H5.58936V6.04397C5.58936 5.86957 5.78768 5.68111 5.97824 5.68111H14.1804C14.3794 5.67127 14.5693 5.85691 14.5693 6.04397V19.5047ZM12.0518 14.7524H8.10683C7.85507 14.7524 7.59348 14.9901 7.59348 15.2285C7.59348 15.5091 7.75171 15.8192 8.10683 15.8192H12.0413C12.2923 15.8192 12.5546 15.5808 12.5546 15.3424C12.556 15.083 12.3029 14.7524 12.0518 14.7524ZM12.0518 11.9987H8.10683C7.85507 11.9987 7.59348 12.2378 7.59348 12.4755C7.59348 12.7138 7.84451 12.9522 8.10683 12.9522H12.0413C12.2923 12.9522 12.5546 12.7138 12.5546 12.4755C12.556 12.2378 12.3029 11.9987 12.0518 11.9987ZM12.0518 8.72739H8.10683C7.85507 8.72739 7.59348 8.96507 7.59348 9.20416C7.59348 9.44185 7.84451 9.68092 8.10683 9.68092H12.0413C12.2923 9.68092 12.5546 9.44185 12.5546 9.20416C12.556 8.96507 12.3029 8.72739 12.0518 8.72739Z"
  />
</svg>
