<svg xmlns="http://www.w3.org/2000/svg" viewBox="0 0 21 21" fill="currentColor">
  <path
    d="M15.0126 8.74993L9.12098 14.6416L5.58765 11.1083L6.76265 9.93327L9.12098 12.2916L13.8376 7.57493L15.0126 8.74993ZM3.62931 10.8083C3.62931 8.8666 4.47931 7.12493 5.81265 5.90827L7.79598 7.8916V2.8916H2.79598L4.62931 4.72493C2.99598 6.2416 1.96265 8.39993 1.96265 10.8083C1.96265 15.1333 5.25431 18.6833 9.46265 19.0999V17.4166C6.17931 17.0083 3.62931 14.1999 3.62931 10.8083ZM18.6293 10.8083C18.6293 6.48327 15.3376 2.93327 11.1293 2.5166V4.19994C14.4126 4.60827 16.9626 7.4166 16.9626 10.8083C16.9626 12.7499 16.1126 14.4916 14.7793 15.7083L12.796 13.7249V18.7249H17.796L15.9626 16.8916C17.596 15.3749 18.6293 13.2166 18.6293 10.8083Z"
  />
</svg>
