<svg width="24" height="24" viewBox="0 0 24 24" fill="none" xmlns="http://www.w3.org/2000/svg">
  <g>
  <path d="M14.8889 13.5556C14.8889 13.3787 14.9591 13.2092 15.0841 13.0842C15.2092 12.9591 15.3787 12.8889 15.5555 12.8889H17.3333C17.5101 12.8889 17.6797 12.9591 17.8047 13.0842C17.9298 13.2092 18 13.3787 18 13.5556C18 13.7324 17.9298 13.9019 17.8047 14.027C17.6797 14.152 17.5101 14.2222 17.3333 14.2222H15.5555C15.3787 14.2222 15.2092 14.152 15.0841 14.027C14.9591 13.9019 14.8889 13.7324 14.8889 13.5556ZM3.77777 5.77778H3.79022C3.84488 5.28888 4.07781 4.83728 4.44448 4.50931C4.81114 4.18134 5.28583 4.00001 5.77777 4H16C16.2626 4 16.5227 4.05173 16.7654 4.15224C17.008 4.25275 17.2285 4.40007 17.4142 4.58579C17.5999 4.7715 17.7472 4.99198 17.8478 5.23463C17.9483 5.47728 18 5.73736 18 6V6.744C18.6327 6.89423 19.1963 7.2535 19.5996 7.7637C20.0028 8.27391 20.2222 8.90522 20.2222 9.55556V17.1111C20.2222 17.8773 19.9179 18.6121 19.3761 19.1539C18.8343 19.6956 18.0995 20 17.3333 20H6.66666C5.90048 20 5.16568 19.6956 4.62391 19.1539C4.08214 18.6121 3.77777 17.8773 3.77777 17.1111V5.77778ZM17.3333 8H5.1111V17.1111C5.1111 17.9698 5.80799 18.6667 6.66666 18.6667H17.3333C17.7459 18.6667 18.1415 18.5028 18.4333 18.2111C18.725 17.9193 18.8889 17.5237 18.8889 17.1111V9.55556C18.8889 9.143 18.725 8.74733 18.4333 8.45561C18.1415 8.16389 17.7459 8 17.3333 8ZM16.6667 6.66667V6C16.6667 5.82319 16.5964 5.65362 16.4714 5.5286C16.3464 5.40357 16.1768 5.33333 16 5.33333H5.77777C5.60096 5.33333 5.43139 5.40357 5.30637 5.5286C5.18134 5.65362 5.1111 5.82319 5.1111 6C5.1111 6.17681 5.18134 6.34638 5.30637 6.4714C5.43139 6.59643 5.60096 6.66667 5.77777 6.66667H16.6667Z" fill="currentColor" />
  </g>
  </svg>
