<svg width="24" height="24" viewBox="0 0 24 24" fill="none" xmlns="http://www.w3.org/2000/svg">
  <g>
  <path d="M8.33496 15.2517C8.408 15.2667 8.48512 15.2826 8.56543 15.2986C9.29458 15.444 9.8418 15.6687 9.8418 15.6687C9.84884 15.6879 10.0847 16.3242 10.708 17.2019C11.4692 18.2734 12.4171 19.6382 11.3359 19.6384C11.1548 19.6384 10.9857 19.6407 10.8242 19.6423C10.6762 19.6439 10.5342 19.6453 10.3945 19.6453C9.5014 19.6453 8.98301 19.0069 8.12793 17.5496C7.76949 16.9384 7.57661 16.4368 7.47559 16.0476C7.32096 15.4519 7.38199 15.1186 7.39648 15.0554C7.39791 15.0492 7.39915 15.0456 7.39941 15.0447C7.40751 15.0467 7.75233 15.1319 8.33496 15.2517ZM8.5625 16.2791C8.65341 16.5032 8.78068 16.7652 8.95605 17.0642C9.38719 17.799 9.67317 18.2183 9.91895 18.4597C10.1149 18.6522 10.2353 18.6863 10.3945 18.6863C10.4476 18.6863 10.5012 18.6857 10.5557 18.6853C10.3849 18.4095 10.1641 18.093 9.92578 17.7576C9.57869 17.2688 9.3373 16.8437 9.18066 16.5339C9.16324 16.4995 9.14722 16.4659 9.13184 16.4343C8.97708 16.385 8.78159 16.3293 8.5625 16.2791ZM15.457 5.22729C16.2336 4.50917 17.0186 4.19845 17.7666 4.43042C18.476 4.65056 18.9608 5.30812 19.2949 6.03296C19.9735 7.50535 20.25 9.73673 20.25 11.5095C20.25 13.3081 19.8404 15.2452 19.1406 16.4685C18.7971 17.0691 18.3255 17.5987 17.7041 17.7478C17.0331 17.9086 16.397 17.5863 15.8477 16.9529C15.4459 16.4895 14.753 16.1128 13.8662 15.8103C12.9905 15.5116 11.9846 15.3042 11.0137 15.1414C10.5297 15.0602 10.0588 14.9909 9.62012 14.9265L9.5752 14.9197C9.15565 14.8581 8.7626 14.8005 8.4248 14.7419C8.08013 14.6822 7.76681 14.6169 7.5293 14.5378C7.41232 14.4989 7.28594 14.4478 7.17773 14.3757C7.14263 14.3523 7.09898 14.3199 7.05566 14.2771L5.21289 13.9187C4.40201 13.8922 3.75 13.2277 3.75 12.4089V9.83472C3.75018 9.00073 4.4275 8.32698 5.25977 8.32495L7.05957 8.29956C7.16388 8.18005 7.29242 8.09587 7.40039 8.03882C7.62104 7.92228 7.90348 7.83704 8.19824 7.76538C8.55942 7.67759 9.01391 7.59457 9.50586 7.50464C9.80819 7.44937 10.1247 7.39101 10.4424 7.32788C12.1784 6.98291 14.1365 6.44864 15.457 5.22729ZM17.4824 5.34644C17.2121 5.26259 16.7756 5.31532 16.1084 5.93237C14.5719 7.35326 12.369 7.92369 10.6299 8.26929C10.2714 8.34053 9.93802 8.40098 9.63184 8.45679C9.16724 8.54146 8.764 8.61555 8.4248 8.698C8.14652 8.76565 7.95989 8.82869 7.84863 8.88745C7.84096 8.89151 7.83428 8.89565 7.82812 8.89917L7.87695 13.6423C8.04091 13.6924 8.27845 13.7429 8.58887 13.7966C8.91414 13.853 9.29606 13.909 9.72168 13.9714L9.75879 13.9773C10.1969 14.0416 10.6769 14.112 11.1719 14.1951C12.1593 14.3607 13.2267 14.578 14.1768 14.9021C15.1158 15.2225 16.0028 15.6673 16.5723 16.324C17.002 16.8197 17.3004 16.8583 17.4805 16.8152C17.7103 16.7601 18.0069 16.5204 18.3086 15.9929C18.8994 14.9601 19.291 13.2027 19.291 11.5095C19.291 9.7901 19.017 7.72134 18.4238 6.43433C18.1221 5.77978 17.7911 5.44227 17.4824 5.34644ZM5.26367 9.28491C4.95618 9.28491 4.70916 9.53257 4.70898 9.83472V12.4089C4.70898 12.7116 4.95613 12.9597 5.26367 12.9597H5.30957L6.86719 13.2625V9.26147L5.26367 9.28491Z" fill="currentColor" />
  </g>
  </svg>
