<svg width="24" height="24" viewBox="0 0 24 24" fill="none" xmlns="http://www.w3.org/2000/svg">
  <g>
  <path d="M8.66471 18.7373C8.09217 18.7373 7.62846 19.201 7.62846 19.7736C7.62846 20.3461 8.09217 20.8098 8.66471 20.8098C9.23725 20.8098 9.70097 20.3461 9.70097 19.7736C9.70097 19.201 9.23725 18.7373 8.66471 18.7373ZM17.5642 18.7373C16.9917 18.7373 16.528 19.201 16.528 19.7736C16.528 20.3461 16.9917 20.8098 17.5642 20.8098C18.1368 20.8098 18.6005 20.3461 18.6005 19.7736C18.6005 19.201 18.1368 18.7373 17.5642 18.7373ZM19.1437 17.7322H8.58256C8.1519 17.7322 7.73098 17.5668 7.39732 17.2666C7.06329 16.9661 6.85029 16.5606 6.79759 16.1248L6.79751 16.1241L5.69446 8.35842L5.06737 4.73227L5.06612 4.72328C5.01769 4.37354 4.6977 4.07806 4.36736 4.07806H3.539C3.2413 4.07806 2.99997 3.83673 2.99997 3.53903C2.99997 3.24133 3.2413 3 3.539 3H4.36734C5.23242 3 6.00587 3.68692 6.13258 4.56563L6.75945 8.19055L7.86779 15.995C7.88922 16.1722 7.9782 16.3391 8.11837 16.4652C8.25378 16.587 8.41861 16.6541 8.58254 16.6541H19.1436C19.4414 16.6541 19.6827 16.8954 19.6827 17.1931C19.6827 17.4908 19.4414 17.7322 19.1437 17.7322ZM9.39357 15.091C9.11388 15.091 8.87746 14.875 8.85656 14.5916C8.83468 14.2947 9.05762 14.0363 9.3545 14.0143L18.1703 13.3645L18.183 13.3642C18.5324 13.3549 18.8429 13.0848 18.8898 12.7492L18.8927 12.7311L19.9145 6.88413C19.9149 6.88227 19.9151 6.88087 19.9152 6.87947C19.9453 6.62686 19.8734 6.36733 19.7276 6.20191C19.6275 6.08871 19.4961 6.02862 19.3478 6.02862H8.09036C7.79267 6.02862 7.55133 5.78729 7.55133 5.48959C7.55133 5.19189 7.79267 4.95056 8.09036 4.95056H19.3478C19.8074 4.95056 20.2294 5.14161 20.5359 5.48856C20.8839 5.88336 21.052 6.45073 20.9858 7.0067C20.9833 7.02796 20.9801 7.04914 20.9764 7.07022L19.9561 12.9085C19.8325 13.7558 19.0915 14.4118 18.2254 14.4415L9.43376 15.0895C9.42038 15.0905 9.40698 15.091 9.39357 15.091Z" fill="currentColor" />
  </g>
  </svg>
