<svg width="24" height="24" viewBox="0 0 24 24" fill="none" xmlns="http://www.w3.org/2000/svg">
  <g>
  <path d="M11.9465 3.25104C12.7006 3.25104 13.3125 3.86224 13.3127 4.61627C13.3127 5.15488 13.0001 5.61957 12.5471 5.84186V6.95709H13.5149C14.0312 6.9573 14.4504 7.37626 14.4504 7.89264L14.4456 7.98834C14.4436 8.00744 14.4398 8.02625 14.4368 8.04498H15.0706C17.5898 8.04521 19.632 10.0872 19.6321 12.6065V17.0997C19.6319 19.1151 17.9981 20.749 15.9827 20.7491H7.92114C5.90576 20.7489 4.27189 19.1151 4.27173 17.0997V12.6065C4.27186 10.0871 6.31477 8.04498 8.83423 8.04498H9.45728C9.44913 7.99539 9.4446 7.94455 9.44458 7.89264C9.4446 7.40834 9.81273 7.00977 10.2844 6.96198L10.3801 6.95709H11.3479V5.84186C10.8945 5.61973 10.5813 5.15521 10.5813 4.61627C10.5815 3.86239 11.1927 3.25129 11.9465 3.25104ZM8.83423 9.13971C6.91946 9.13971 5.36658 10.6918 5.36646 12.6065V17.0997C5.36662 18.5104 6.51044 19.6542 7.92114 19.6544H15.9827C17.3935 19.6543 18.5372 18.5104 18.5374 17.0997V12.6065C18.5372 10.6919 16.9851 9.13994 15.0706 9.13971H8.83423ZM15.2454 10.4932C16.1598 10.4933 16.933 11.1698 17.054 12.0762L17.2883 13.8321C17.4343 14.9261 16.5834 15.8984 15.4797 15.8985H8.42407C7.31514 15.8985 6.46195 14.9175 6.61646 13.8194L6.8645 12.0635C6.99125 11.1628 7.76158 10.4932 8.67114 10.4932H15.2454ZM3.18384 11.7022C3.5151 11.7022 3.78328 11.9706 3.78345 12.3018V14.9796C3.78344 15.3109 3.5152 15.5792 3.18384 15.5792C2.85265 15.579 2.58424 15.3108 2.58423 14.9796V12.3018C2.5844 11.9707 2.85275 11.7024 3.18384 11.7022ZM20.8157 11.7022C21.1469 11.7023 21.4151 11.9706 21.4153 12.3018V14.9796C21.4153 15.3109 21.147 15.5791 20.8157 15.5792C20.4843 15.5792 20.2161 15.3109 20.2161 14.9796V12.3018C20.2162 11.9706 20.4844 11.7022 20.8157 11.7022ZM8.67114 11.2227C8.1254 11.2227 7.66321 11.6247 7.58716 12.1651L7.34009 13.921C7.24737 14.5798 7.7587 15.169 8.42407 15.169H15.4797C16.1419 15.1689 16.6523 14.5851 16.5647 13.9288L16.3303 12.1729C16.2577 11.6291 15.794 11.2228 15.2454 11.2227H8.67114ZM9.38794 12.3018C9.75818 12.3019 10.0579 12.6024 10.0579 12.9727C10.0578 13.343 9.75817 13.6435 9.38794 13.6436C9.01762 13.6436 8.71706 13.343 8.71704 12.9727C8.71704 12.6024 9.0176 12.3018 9.38794 12.3018ZM14.468 12.3018C14.8384 12.3018 15.1389 12.6024 15.1389 12.9727C15.1389 13.343 14.8383 13.6436 14.468 13.6436C14.0979 13.6434 13.7981 13.3429 13.7981 12.9727C13.7981 12.6025 14.0979 12.3021 14.468 12.3018Z" fill="currentColor" />
  </g>
  </svg>
