<svg width="24" height="24" viewBox="0 0 24 24" fill="none" xmlns="http://www.w3.org/2000/svg">
  <g>
  <path d="M20.6025 18.9671H19.8782V10.7889C19.8782 10.0125 19.1856 9.35996 18.3579 9.35996H16.5647C16.313 9.35996 16.0514 9.59903 16.0514 9.83673C16.0514 10.0751 16.3024 10.3135 16.5647 10.3135H18.3579C18.5457 10.3135 18.7461 10.4992 18.7461 10.6763V18.856H15.4944V5.5064C15.4944 4.73007 14.8011 4.07889 13.9734 4.07889H5.87461C5.04625 4.07889 4.35357 4.73007 4.35357 5.5064V18.9671H3.51323C3.26148 18.9671 2.99988 19.2055 2.99988 19.4439C2.99988 19.6816 3.25093 19.9207 3.51323 19.9207H20.4865C20.7383 19.9207 20.9999 19.6816 20.9999 19.4439C21.002 19.2055 20.8648 18.9671 20.6025 18.9671ZM14.4657 18.9671H5.48572V5.5064C5.48572 5.332 5.68405 5.14354 5.87461 5.14354H14.0768C14.2758 5.1337 14.4657 5.31934 14.4657 5.5064V18.9671ZM11.9482 14.2149H8.00319C7.75144 14.2149 7.48984 14.4526 7.48984 14.6909C7.48984 14.9715 7.64807 15.2816 8.00319 15.2816H11.9376C12.1887 15.2816 12.451 15.0432 12.451 14.8049C12.4524 14.5454 12.1992 14.2149 11.9482 14.2149ZM11.9482 11.4611H8.00319C7.75144 11.4611 7.48984 11.7002 7.48984 11.9379C7.48984 12.1763 7.74087 12.4147 8.00319 12.4147H11.9376C12.1887 12.4147 12.451 12.1763 12.451 11.9379C12.4524 11.7002 12.1992 11.4611 11.9482 11.4611ZM11.9482 8.18983H8.00319C7.75144 8.18983 7.48984 8.4275 7.48984 8.66659C7.48984 8.90428 7.74087 9.14335 8.00319 9.14335H11.9376C12.1887 9.14335 12.451 8.90428 12.451 8.66659C12.4524 8.4275 12.1992 8.18983 11.9482 8.18983Z" fill="currentColor" />
  </g>
  </svg>
