<svg
  width="24"
  height="24"
  viewBox="0 0 24 24"
  fill="none"
  xmlns="http://www.w3.org/2000/svg"
>
  <g>
    <path
      d="M18.4286 4C18.618 4.00021 18.8026 4.04711 18.9667 4.13477C19.0321 4.16973 19.0943 4.21133 19.1522 4.25879C19.1814 4.28264 19.2093 4.30811 19.2362 4.33496C19.2897 4.38843 19.3374 4.44681 19.3788 4.50879C19.4823 4.66394 19.5465 4.84262 19.5653 5.0293C19.5691 5.06679 19.5711 5.10457 19.5712 5.14258V18.8574C19.5711 18.8954 19.5691 18.9332 19.5653 18.9707C19.5616 19.0079 19.556 19.0447 19.5487 19.0811C19.5193 19.2275 19.4617 19.3669 19.3788 19.4912C19.3582 19.5221 19.3361 19.5521 19.3124 19.5811C19.2885 19.6102 19.263 19.6382 19.2362 19.665C19.1559 19.7453 19.0651 19.8127 18.9667 19.8652C18.8026 19.9529 18.618 19.9998 18.4286 20H6.14246C6.10478 19.9999 6.06732 19.9979 6.03015 19.9941C5.95529 19.9867 5.88173 19.9719 5.81042 19.9502C5.73921 19.9285 5.67003 19.9003 5.60437 19.8652C5.50604 19.8127 5.4151 19.7453 5.33484 19.665C5.30799 19.6382 5.28252 19.6102 5.25867 19.5811C5.18753 19.4942 5.13041 19.3975 5.08777 19.2949C5.03071 19.1575 5.00008 19.0091 4.99988 18.8574V16.8574C4.99988 16.8195 5.0033 16.7818 5.01062 16.7451C5.02524 16.6719 5.05419 16.6021 5.09558 16.54C5.11623 16.509 5.14015 16.4799 5.16687 16.4531C5.27397 16.346 5.41972 16.2862 5.57117 16.2861L5.68347 16.2969C5.79329 16.3188 5.8951 16.3728 5.97546 16.4531C6.08263 16.5603 6.14246 16.7059 6.14246 16.8574V18.8574H18.4286V5.14258H6.14246V7.71387C6.14246 7.86535 6.08254 8.01101 5.97546 8.11816C5.8683 8.22533 5.72272 8.28613 5.57117 8.28613C5.53323 8.28611 5.49555 8.2828 5.45886 8.27539C5.34918 8.25338 5.24714 8.19844 5.16687 8.11816C5.05993 8.01103 4.99988 7.86525 4.99988 7.71387V5.14258C5.00008 4.99094 5.03071 4.84249 5.08777 4.70508C5.1447 4.56809 5.22792 4.4419 5.33484 4.33496C5.4151 4.2547 5.50604 4.1873 5.60437 4.13477C5.67003 4.09966 5.73921 4.07152 5.81042 4.0498C5.88173 4.02808 5.95529 4.01334 6.03015 4.00586C6.06732 4.00214 6.10478 4.00005 6.14246 4H18.4286ZM12.1425 7.42871C13.7177 7.42871 14.9996 8.71002 14.9999 10.2852C14.9999 11.1535 14.6084 11.9306 13.995 12.4551C14.3517 12.6414 14.6817 12.8821 14.9716 13.1719C15.7216 13.922 16.1434 14.9392 16.1434 16C16.1434 16.075 16.1282 16.1495 16.0995 16.2188C16.0708 16.288 16.0285 16.3513 15.9755 16.4043C15.9225 16.4572 15.8591 16.4987 15.7899 16.5273C15.7208 16.5559 15.6469 16.5712 15.5721 16.5713C15.4972 16.5713 15.4227 16.556 15.3534 16.5273C15.2842 16.4987 15.2208 16.4572 15.1678 16.4043C15.1148 16.3513 15.0725 16.288 15.0438 16.2188C15.0151 16.1495 14.9999 16.075 14.9999 16C14.9999 14.4247 13.7187 13.1427 12.1434 13.1426C10.5681 13.1426 9.28601 14.4246 9.28601 16C9.28597 16.1515 9.22614 16.2972 9.11902 16.4043C9.01189 16.5114 8.86621 16.5712 8.71472 16.5713C8.56325 16.5713 8.41757 16.5114 8.31042 16.4043C8.2033 16.2972 8.14348 16.1515 8.14343 16C8.14343 14.9393 8.56445 13.922 9.31433 13.1719C9.60387 12.8823 9.93362 12.6413 10.2899 12.4551C9.6768 11.9306 9.28601 11.1533 9.28601 10.2852C9.28628 8.71016 10.5675 7.42894 12.1425 7.42871ZM6.14246 14C6.29389 14 6.43961 14.06 6.54675 14.167C6.6539 14.2741 6.7147 14.4198 6.71472 14.5713C6.71472 14.7228 6.65392 14.8684 6.54675 14.9756C6.43961 15.0826 6.29393 15.1426 6.14246 15.1426H4.99988C4.84838 15.1425 4.70271 15.0827 4.59558 14.9756C4.48848 14.8684 4.42859 14.7228 4.42859 14.5713C4.42861 14.4198 4.48846 14.2741 4.59558 14.167C4.70271 14.0599 4.84838 14 4.99988 14H6.14246ZM6.14246 11.7139C6.29401 11.7139 6.43959 11.7747 6.54675 11.8818C6.65378 11.9889 6.71459 12.1338 6.71472 12.2852C6.71472 12.4367 6.6539 12.5823 6.54675 12.6895C6.43959 12.7966 6.29401 12.8574 6.14246 12.8574H4.99988C4.84838 12.8574 4.70271 12.7966 4.59558 12.6895C4.48861 12.5823 4.42859 12.4366 4.42859 12.2852C4.42872 12.1339 4.48873 11.9889 4.59558 11.8818C4.70271 11.7747 4.84838 11.7139 4.99988 11.7139H6.14246ZM12.1425 8.57129C11.8035 8.57137 11.4721 8.67206 11.1903 8.86035C10.9085 9.04871 10.6892 9.31669 10.5594 9.62988C10.4297 9.9431 10.3957 10.2876 10.4618 10.6201C10.5279 10.9526 10.6908 11.2583 10.9305 11.498C11.1703 11.7378 11.4759 11.9007 11.8085 11.9668C12.141 12.0329 12.4855 11.9989 12.7987 11.8691C13.1119 11.7394 13.3799 11.5201 13.5682 11.2383C13.7566 10.9564 13.8573 10.6242 13.8573 10.2852C13.8567 9.83085 13.6756 9.39548 13.3544 9.07422C13.033 8.75284 12.597 8.57181 12.1425 8.57129ZM6.14246 9.42871C6.29393 9.42871 6.43961 9.48865 6.54675 9.5957C6.65392 9.70287 6.71472 9.84845 6.71472 10C6.7147 10.1515 6.6539 10.2971 6.54675 10.4043C6.43961 10.5113 6.29389 10.5713 6.14246 10.5713H4.99988C4.84838 10.5713 4.70271 10.5114 4.59558 10.4043C4.48846 10.2972 4.42861 10.1515 4.42859 10C4.42859 9.8485 4.48848 9.70286 4.59558 9.5957C4.70271 9.48857 4.84838 9.42875 4.99988 9.42871H6.14246Z"
      fill="currentColor"
    />
  </g>
</svg>
