<svg
  width="24"
  height="24"
  viewBox="0 0 24 24"
  fill="none"
  xmlns="http://www.w3.org/2000/svg"
>
  <g>
    <path
      d="M18.8826 18.9701C19.1529 18.9701 19.3719 19.1891 19.3719 19.4593C19.3718 19.7295 19.1529 19.9486 18.8826 19.9486H5.117C4.84676 19.9486 4.6278 19.7295 4.62775 19.4593C4.62775 19.189 4.84673 18.9701 5.117 18.9701H18.8826ZM17.3856 4.056C19.4992 4.16298 21.1805 5.91091 21.1805 8.05112V13.555L21.1746 13.7611C21.0709 15.8065 19.431 17.4466 17.3856 17.5501L17.1805 17.555H6.82013C4.61099 17.555 2.82013 15.7642 2.82013 13.555V8.05112C2.82013 5.91108 4.50069 4.16323 6.61407 4.056L6.82013 4.05112H17.1805L17.3856 4.056ZM6.82013 5.25131C5.27373 5.25131 4.02032 6.50472 4.02032 8.05112V13.555C4.02032 15.1014 5.27373 16.3548 6.82013 16.3548H17.1805C18.7267 16.3546 19.9803 15.1013 19.9803 13.555V8.05112C19.9803 6.50488 18.7267 5.25157 17.1805 5.25131H6.82013ZM11.7488 13.6126H10.6102L10.1473 12.3011H8.11212L7.63849 13.6126H6.49103L8.51935 7.95151H9.7254L11.7488 13.6126ZM13.8397 7.95541C14.0195 7.95541 14.1699 7.95672 14.2899 7.95932C14.9763 7.97498 15.5363 8.09783 15.9695 8.32748C16.4028 8.55715 16.7197 8.87802 16.9207 9.29037C17.1243 9.70271 17.2264 10.1906 17.2264 10.7542C17.2264 11.3415 17.1191 11.8496 16.9051 12.2777C16.6911 12.7029 16.3636 13.0318 15.9227 13.264C15.4842 13.4962 14.9267 13.6126 14.2508 13.6126H12.5994V7.95151H13.3035C13.4835 7.95151 13.6623 7.95281 13.8397 7.95541ZM13.7498 12.6888H14.2742C14.5978 12.6888 14.8915 12.6255 15.1551 12.5003C15.4213 12.3751 15.6346 12.1705 15.7938 11.8861C15.953 11.6016 16.032 11.2214 16.032 10.7464C16.032 10.3055 15.9619 9.94815 15.8211 9.67416C15.6802 9.39758 15.4795 9.19464 15.2186 9.06674C14.9576 8.93885 14.6474 8.87534 14.2899 8.87534H13.7498V12.6888ZM8.36603 11.3021H9.87384L9.12579 9.05502L8.36603 11.3021Z"
      fill="currentColor"
    />
  </g>
</svg>
