<svg width="24" height="24" viewBox="0 0 24 24" fill="none" xmlns="http://www.w3.org/2000/svg">
  <g>
  <path fill-rule="evenodd" clip-rule="evenodd" d="M4.46929 12C4.46929 7.84077 7.84102 4.46904 12.0003 4.46904C16.1595 4.46904 19.5312 7.84077 19.5312 12C19.5312 13.6013 19.0321 15.0842 18.181 16.304C17.9914 16.5757 18.058 16.9498 18.3298 17.1394C18.6015 17.329 18.9755 17.2624 19.1651 16.9907C20.1522 15.576 20.7312 13.8547 20.7312 12C20.7312 7.17803 16.8222 3.26904 12.0003 3.26904C7.17827 3.26904 3.26929 7.17803 3.26929 12C3.26929 16.822 7.17827 20.731 12.0003 20.731C13.9018 20.731 15.6629 20.1224 17.0972 19.0895C17.3661 18.8959 17.4271 18.5209 17.2335 18.252C17.0399 17.9831 16.6649 17.9221 16.396 18.1157C15.1591 19.0064 13.6418 19.531 12.0003 19.531C7.84102 19.531 4.46929 16.1593 4.46929 12ZM12.0001 8.67949C11.0889 8.67949 10.3501 9.41822 10.3501 10.3295V10.5795C10.3501 10.9109 10.0815 11.1795 9.75015 11.1795C9.41878 11.1795 9.15015 10.9109 9.15015 10.5795V10.3295C9.15015 8.75548 10.4261 7.47949 12.0001 7.47949H12.4515C13.7762 7.47949 14.8501 8.5534 14.8501 9.87814C14.8501 10.4796 14.6242 11.0592 14.217 11.5019L13.5511 12.2259C13.1003 12.716 12.8501 13.3576 12.8501 14.0235C12.8501 14.3548 12.5815 14.6235 12.2501 14.6235C11.9188 14.6235 11.6501 14.3548 11.6501 14.0235C11.6501 13.0567 12.0134 12.1252 12.6678 11.4136L13.3337 10.6896C13.5372 10.4683 13.6501 10.1787 13.6501 9.87814C13.6501 9.21614 13.1135 8.67949 12.4515 8.67949H12.0001ZM12.8205 15.9202C12.8205 16.2516 12.5519 16.5202 12.2205 16.5202C11.8891 16.5202 11.6205 16.2516 11.6205 15.9202C11.6205 15.5888 11.8891 15.3202 12.2205 15.3202C12.5519 15.3202 12.8205 15.5888 12.8205 15.9202Z" fill="currentColor" />
  </g>
  </svg>
