<svg width="24" height="24" viewBox="0 0 24 24" fill="none" xmlns="http://www.w3.org/2000/svg">
  <g>
  <path d="M10.2873 4.00055C11.2675 3.14284 12.7318 3.14288 13.7121 4.00055L19.1535 8.76227C19.7176 9.25592 20.0411 9.96872 20.0412 10.7183V18.0435C20.041 19.4793 18.8774 20.6431 17.4416 20.6431H6.5578C5.12213 20.6429 3.95835 19.4792 3.95819 18.0435V10.7183C3.95825 9.96887 4.28199 9.25591 4.84589 8.76227L10.2873 4.00055ZM12.9211 4.90289C12.3932 4.44152 11.605 4.4412 11.0773 4.90289L5.63593 9.66461C5.33238 9.9304 5.15747 10.3149 5.15741 10.7183V18.0435C5.15756 18.8165 5.78488 19.4437 6.5578 19.4439H17.4416C18.2147 19.4439 18.8418 18.8166 18.842 18.0435V10.7183C18.8419 10.3147 18.6672 9.93041 18.3635 9.66461L12.9211 4.90289ZM15.7209 15.7232C16.0521 15.7234 16.3215 15.9916 16.3215 16.3228C16.3212 16.6538 16.0519 16.9222 15.7209 16.9224H8.27948C7.94827 16.9224 7.68012 16.654 7.67987 16.3228C7.67987 15.9914 7.94811 15.7232 8.27948 15.7232H15.7209Z" fill="currentColor" />
  </g>
  </svg>
