<svg
  width="24"
  height="24"
  viewBox="0 0 24 24"
  fill="none"
  xmlns="http://www.w3.org/2000/svg"
>
  <g>
    <path
      d="M12.0001 3.49988C16.6945 3.49988 20.5001 7.30546 20.5001 11.9999C20.5001 16.6943 16.6945 20.4999 12.0001 20.4999C11.2435 20.4999 10.5091 20.4008 9.80969 20.2147C9.43049 20.1139 9.06158 19.9878 8.7052 19.8378C8.26627 19.9574 7.68814 20.105 7.19836 20.2284C6.91467 20.2999 6.65877 20.3642 6.47375 20.41L6.25403 20.4637L6.17395 20.4833C6.00726 20.5241 5.83046 20.4867 5.69543 20.3807C5.56059 20.2748 5.48165 20.1127 5.48157 19.9413V17.2489C5.48157 16.9402 5.73248 16.6893 6.04114 16.6893C6.34961 16.6895 6.59973 16.9404 6.59973 17.2489V19.2264C6.70172 19.2009 6.81115 19.1741 6.92493 19.1454C7.49105 19.0027 8.16105 18.8299 8.59583 18.7079C8.7218 18.6725 8.85633 18.6827 8.97571 18.7362C9.33496 18.8977 9.70985 19.0317 10.0968 19.1346C10.7033 19.296 11.3414 19.3817 12.0001 19.3817C16.0772 19.3817 19.382 16.077 19.382 11.9999C19.382 7.92276 16.0772 4.61804 12.0001 4.61804C7.92301 4.61804 4.61829 7.92276 4.61829 11.9999C4.61829 13.108 4.86163 14.1577 5.29797 15.0995C5.42773 15.3795 5.30557 15.7119 5.02551 15.8417C4.74553 15.9712 4.41401 15.8491 4.2843 15.5692C3.78111 14.4832 3.50012 13.2736 3.50012 11.9999C3.50012 7.30546 7.3057 3.49988 12.0001 3.49988ZM15.6671 13.9091C15.8244 13.6651 16.1497 13.5946 16.3937 13.7518C16.6375 13.9091 16.7079 14.2344 16.5509 14.4784C15.6108 15.9376 13.9181 16.9003 12.0001 16.9003C10.0823 16.9002 8.39037 15.9375 7.45032 14.4784C7.2931 14.2344 7.36351 13.909 7.60754 13.7518C7.85156 13.5948 8.17692 13.6651 8.33411 13.9091C9.07855 15.0645 10.4358 15.8484 12.0001 15.8485C13.5646 15.8485 14.9226 15.0646 15.6671 13.9091Z"
      fill="currentColor"
    />
  </g>
</svg>
