<svg
  width="24"
  height="24"
  viewBox="0 0 24 24"
  fill="none"
  xmlns="http://www.w3.org/2000/svg"
>
  <g>
    <path
      fill-rule="evenodd"
      clip-rule="evenodd"
      d="M17.2552 11.2929L19.5295 9.01862C20.157 8.39004 20.157 7.37288 19.5295 6.7443L17.2552 4.46997C16.6266 3.84253 15.6094 3.84253 14.9809 4.46997L12.7065 6.7443C12.0791 7.37288 12.0791 8.39004 12.7065 9.01862L14.9809 11.2929C15.6094 11.9215 16.6277 11.9215 17.2552 11.2929ZM9.85651 12.8809C9.70667 12.8403 9.54908 12.8187 9.38647 12.8187H5.79555C5.63266 12.8187 5.47485 12.8404 5.32485 12.881C4.56134 13.0876 4.00009 13.7848 4.00009 14.613V18.2039C4.00009 19.1959 4.80353 19.9994 5.79555 19.9994H9.38533C10.2129 19.9994 10.9092 19.4402 11.118 18.6796C11.1595 18.5284 11.1817 18.3693 11.1819 18.2051V14.6142C11.1819 14.6138 11.1819 14.6135 11.1819 14.6131C11.1818 14.4491 11.1597 14.2902 11.1184 14.1392C10.9511 13.5276 10.4684 13.0465 9.85651 12.8809ZM10.1819 18.2039L10.1819 14.6142C10.1819 14.1748 9.82548 13.8187 9.38647 13.8187H5.79555C5.3554 13.8187 5.00009 14.1748 5.00009 14.613V18.2039C5.00009 18.6437 5.35582 18.9994 5.79555 18.9994H9.38533C9.82514 18.9994 10.1812 18.6431 10.1819 18.2039C10.1819 18.204 10.1819 18.2038 10.1819 18.2039ZM12.1414 18.6801C12.3495 19.4414 13.0458 20.0005 13.8734 20.0005H17.4643C18.4564 20.0005 19.2598 19.1971 19.2598 18.2051V14.6142C19.2598 13.6221 18.4564 12.8187 17.4643 12.8187H13.8734C13.0467 12.8187 12.3505 13.378 12.1418 14.1394C12.1004 14.2906 12.0781 14.4498 12.078 14.6142V18.2051C12.078 18.2054 12.078 18.2058 12.078 18.2061C12.078 18.3702 12.1001 18.5291 12.1414 18.6801ZM13.0779 14.6153L13.078 18.2051C13.078 18.6448 13.4337 19.0005 13.8734 19.0005H17.4643C17.9041 19.0005 18.2598 18.6448 18.2598 18.2051V14.6142C18.2598 14.1744 17.9041 13.8187 17.4643 13.8187H13.8734C13.4357 13.8187 13.0788 14.1743 13.0779 14.6153C13.0779 14.6155 13.0779 14.6151 13.0779 14.6153ZM9.85637 11.858C10.6197 11.6513 11.181 10.9541 11.1819 10.1261V6.53515C11.1819 5.54313 10.3773 4.73969 9.38647 4.73969H5.79555C4.80353 4.73969 4.00009 5.54313 4.00009 6.53515V10.1261C4.00009 10.9542 4.56134 11.6515 5.32484 11.8581C5.47485 11.8987 5.63266 11.9204 5.79555 11.9204H9.38533C9.38571 11.9204 9.38609 11.9204 9.38647 11.9204C9.54908 11.9203 9.70661 11.8986 9.85637 11.858ZM10.1819 10.1253C10.1812 10.5644 9.82514 10.9204 9.38533 10.9204H5.79555C5.3554 10.9204 5.00009 10.5642 5.00009 10.1261V6.53515C5.00009 6.09542 5.35582 5.73969 5.79555 5.73969H9.38647C9.82548 5.73969 10.1819 6.09583 10.1819 6.53515V10.1253C10.1819 10.1254 10.1819 10.1251 10.1819 10.1253ZM16.5484 5.17743C16.5483 5.17733 16.5485 5.17753 16.5484 5.17743C16.3103 4.94003 15.9257 4.94004 15.6876 5.17747C15.6875 5.17755 15.6877 5.17739 15.6876 5.17747L13.4143 7.45076C13.4142 7.45088 13.4144 7.45064 13.4143 7.45076C13.177 7.68887 13.1766 8.07368 13.4139 8.3118C13.4138 8.31168 13.414 8.31192 13.4139 8.3118L15.688 10.5858C15.9264 10.8243 16.311 10.8233 16.5474 10.5865L18.8218 8.31216C19.0595 8.07399 19.0595 7.68909 18.8219 7.45087C18.8218 7.45084 18.8219 7.45091 18.8219 7.45087L16.5484 5.17743Z"
      fill="currentColor"
    />
  </g>
</svg>
