<svg
  width="24"
  height="24"
  viewBox="0 0 24 24"
  fill="none"
  xmlns="http://www.w3.org/2000/svg"
>
  <g>
    <path
      d="M11.5965 3.09235C13.2807 3.09254 14.6462 4.45789 14.6463 6.14215C14.6463 7.55068 13.691 8.73494 12.3934 9.08551V10.6861H14.9881C16.6807 10.6863 18.0535 12.0589 18.0535 13.7515V14.8306C19.5628 15.0137 20.7321 16.2992 20.7322 17.858C20.732 19.5422 19.3667 20.9078 17.6824 20.9078C15.9982 20.9077 14.6329 19.5422 14.6326 17.858C14.6327 16.4976 15.5237 15.3457 16.7537 14.9527V13.7515C16.7537 12.7768 15.9627 11.9871 14.9881 11.9869H8.59943C7.62463 11.9869 6.83481 12.7767 6.83478 13.7515V14.8511C8.27266 15.0969 9.36691 16.35 9.367 17.858C9.36674 19.5422 8.00151 20.9078 6.3172 20.9078C4.63298 20.9077 3.26766 19.5422 3.2674 17.858C3.26748 16.4445 4.22925 15.2556 5.534 14.9097V13.7515C5.53403 12.0588 6.90667 10.6861 8.59943 10.6861H11.0926V9.14899C9.64796 8.9088 8.54669 7.65494 8.54669 6.14215C8.5468 4.45784 9.91218 3.09245 11.5965 3.09235ZM6.32892 16.108C6.28228 16.1186 6.23424 16.1265 6.18439 16.1265C6.16197 16.1265 6.13981 16.1219 6.11798 16.1197C5.24548 16.2187 4.5673 16.959 4.5672 17.858C4.56746 18.8242 5.35095 19.6079 6.3172 19.608C7.28354 19.608 8.06694 18.8242 8.0672 17.858C8.06709 16.8955 7.28996 16.1143 6.32892 16.108ZM17.6824 16.108C16.7161 16.1081 15.9325 16.8916 15.9324 17.858C15.9327 18.8242 16.7162 19.6079 17.6824 19.608C18.6488 19.608 19.4322 18.8242 19.4324 17.858C19.4323 16.8916 18.6489 16.108 17.6824 16.108ZM11.5965 4.39215C10.6302 4.39226 9.8466 5.17581 9.8465 6.14215C9.8465 7.10858 10.6301 7.89205 11.5965 7.89215C12.5628 7.89196 13.3465 7.10853 13.3465 6.14215C13.3464 5.17586 12.5628 4.39234 11.5965 4.39215Z"
      fill="currentColor"
    />
  </g>
</svg>
