<svg width="24" height="24" viewBox="0 0 24 24" fill="none" xmlns="http://www.w3.org/2000/svg">
  <g>
  <g>
  <path d="M20.7007 11.5741L17.5406 8.53173C17.2878 8.28825 16.9086 8.28825 16.6558 8.53173C16.403 8.77504 16.403 9.14018 16.6558 9.38365L18.7414 11.3916H12.674C12.2948 11.3916 12.042 11.6349 12.042 12C12.042 12.3651 12.2948 12.6085 12.674 12.6085H18.7414L16.656 14.6164C16.4032 14.8599 16.4032 15.225 16.656 15.4683C16.7824 15.5901 16.9088 15.6509 17.0983 15.6509C17.288 15.6509 17.4144 15.59 17.5408 15.4683L20.7009 12.3651C20.7009 12.3651 20.7009 12.3042 20.7642 12.3042C20.9537 12.1217 20.9537 11.7567 20.7009 11.5741L20.7007 11.5741Z" fill="currentColor" />
  <path d="M17.9943 16.2593C17.6151 16.2593 17.3623 16.5028 17.3623 16.8677V18.0848C17.3623 18.4498 17.1095 18.6932 16.7303 18.6932H5.98591C5.6067 18.6932 5.35389 18.4498 5.35389 18.0848V5.91516C5.35389 5.55019 5.6067 5.30671 5.98591 5.30671H16.7303C17.1095 5.30671 17.3623 5.55019 17.3623 5.91516V7.13222C17.3623 7.49721 17.6151 7.74067 17.9943 7.74067C18.3735 7.74067 18.6263 7.49719 18.6263 7.13222V5.91516C18.6263 4.88083 17.8048 4.08981 16.7303 4.08981H5.98591C4.91155 4.08981 4.08984 4.88083 4.08984 5.91516V18.0848C4.08984 19.1191 4.91157 19.9101 5.98591 19.9101H16.7303C17.8048 19.9101 18.6263 19.1191 18.6263 18.0848V16.8677C18.6263 16.5027 18.3735 16.2593 17.9943 16.2593Z" fill="currentColor" />
  </g>
  </g>
  </svg>
