<svg width="24" height="24" viewBox="0 0 24 24" fill="none" xmlns="http://www.w3.org/2000/svg">
  <g>
  <path d="M18.8 9.8H5.2V16.8C5.2 16.9313 5.22587 17.0614 5.27612 17.1827C5.32638 17.304 5.40003 17.4142 5.49289 17.5071C5.58575 17.6 5.69599 17.6736 5.81732 17.7239C5.93864 17.7741 6.06868 17.8 6.2 17.8H17.8C17.9313 17.8 18.0614 17.7741 18.1827 17.7239C18.304 17.6736 18.4142 17.6 18.5071 17.5071C18.6 17.4142 18.6736 17.304 18.7239 17.1827C18.7741 17.0614 18.8 16.9313 18.8 16.8V9.8ZM5.2 8.6H18.8V7.2C18.8 7.06868 18.7741 6.93864 18.7239 6.81732C18.6736 6.69599 18.6 6.58575 18.5071 6.49289C18.4142 6.40003 18.304 6.32638 18.1827 6.27612C18.0614 6.22587 17.9313 6.2 17.8 6.2H6.2C6.06868 6.2 5.93864 6.22587 5.81732 6.27612C5.69599 6.32638 5.58575 6.40003 5.49289 6.49289C5.40003 6.58575 5.32638 6.69599 5.27612 6.81732C5.22587 6.93864 5.2 7.06868 5.2 7.2V8.6ZM16.6 15C16.7591 15 16.9117 15.0632 17.0243 15.1757C17.1368 15.2883 17.2 15.4409 17.2 15.6C17.2 15.7591 17.1368 15.9117 17.0243 16.0243C16.9117 16.1368 16.7591 16.2 16.6 16.2H14.6C14.4409 16.2 14.2883 16.1368 14.1757 16.0243C14.0632 15.9117 14 15.7591 14 15.6C14 15.4409 14.0632 15.2883 14.1757 15.1757C14.2883 15.0632 14.4409 15 14.6 15H16.6ZM6.2 5H17.8C19.015 5 20 5.985 20 7.2V16.8C20 18.015 19.015 19 17.8 19H6.2C4.985 19 4 18.015 4 16.8V7.2C4 5.985 4.985 5 6.2 5Z" fill="currentColor" />
  </g>
  </svg>
