<svg width="24" height="24" viewBox="0 0 24 24" fill="none" xmlns="http://www.w3.org/2000/svg">
  <g>
  <path d="M12.9402 6.88049C14.4355 4.82668 17.3131 4.37358 19.367 5.86877C21.4208 7.36401 21.8729 10.2417 20.3777 12.2955L16.7556 17.2701C16.4374 17.8953 15.9729 18.4579 15.367 18.899C14.5478 19.4954 13.5972 19.7803 12.656 19.7789C12.645 19.7791 12.6339 19.7788 12.6228 19.7789C12.6118 19.7788 12.6007 19.7791 12.5896 19.7789C11.649 19.78 10.6993 19.4951 9.88065 18.899C9.27454 18.4578 8.80931 17.8954 8.491 17.2701L4.86893 12.2955C3.37375 10.2416 3.82676 7.36399 5.88065 5.86877C7.93454 4.37366 10.8122 4.82663 12.3074 6.88049L12.6228 7.31506L12.9402 6.88049ZM11.3367 7.58655C10.2315 6.06876 8.10468 5.7344 6.5867 6.83948C5.06884 7.9447 4.73453 10.0715 5.83963 11.5895L8.02518 14.5905C8.12035 13.849 8.39799 13.1203 8.86893 12.4733L9.10623 12.1471C9.30126 11.8792 9.6772 11.8202 9.9451 12.0153C10.2127 12.2104 10.2719 12.5854 10.0769 12.8531L9.83963 13.1793C9.08062 14.2219 9.00017 15.5516 9.51639 16.6403L9.91092 17.1813C10.566 18.0811 11.5797 18.5649 12.6131 18.5797C13.6538 18.5713 14.6771 18.0873 15.3367 17.1813L15.7303 16.6403C16.2466 15.5516 16.167 14.222 15.408 13.1793L12.6228 9.35413L11.8748 10.3834C11.6798 10.651 11.3047 10.71 11.0369 10.5153C10.769 10.3202 10.71 9.94429 10.9051 9.67639L11.8806 8.33459L11.3367 7.58655ZM18.6599 6.83948C17.142 5.73459 15.0161 6.06894 13.9109 7.58655L13.366 8.33459L16.3777 12.4733C16.849 13.1206 17.1264 13.8496 17.2215 14.5914L19.408 11.5895C20.5132 10.0714 20.178 7.94464 18.6599 6.83948Z" fill="currentColor" />
  </g>
  </svg>
