<svg width="24" height="24" viewBox="0 0 24 24" fill="none" xmlns="http://www.w3.org/2000/svg">
  <g>
  <path d="M14.646 3.98848L14.787 4.05748C14.928 4.13548 15.054 4.22998 15.162 4.33948L19.668 8.85448L19.773 8.96998C19.936 9.16902 20.0508 9.40299 20.1085 9.65368C20.1662 9.90436 20.1653 10.165 20.1058 10.4153C20.0463 10.6655 19.9298 10.8987 19.7654 11.0965C19.601 11.2944 19.3931 11.4516 19.158 11.556L17.607 12.231L14.5875 15.2265L14.5425 15.3015L14.304 18.606L14.286 18.7605C14.2343 19.062 14.1008 19.3435 13.9 19.5743C13.6992 19.8051 13.4388 19.9763 13.1473 20.0691C12.8559 20.162 12.5445 20.173 12.2472 20.101C11.9499 20.0289 11.6781 19.8765 11.4615 19.6605L8.51698 16.7085L5.52598 19.467C5.40547 19.5887 5.24951 19.669 5.08048 19.6965L4.95298 19.7055C4.84422 19.7055 4.73656 19.6838 4.63634 19.6415C4.53613 19.5993 4.44539 19.5374 4.36948 19.4595L4.29298 19.368C4.18114 19.2107 4.1288 19.0188 4.14528 18.8265C4.16177 18.6342 4.246 18.454 4.38298 18.318L7.37248 15.5625L4.33198 12.5175L4.22848 12.402C4.03512 12.1656 3.91026 11.8807 3.86745 11.5783C3.82464 11.2759 3.86553 10.9675 3.98567 10.6868C4.10581 10.406 4.30061 10.1635 4.54889 9.98562C4.79718 9.80777 5.08946 9.70137 5.39398 9.67798L8.72998 9.43798L8.81248 9.40948L11.7195 6.51148L12.4545 4.84948L12.5235 4.70848C12.7247 4.34631 13.0534 4.07197 13.4458 3.93887C13.8381 3.80578 14.266 3.82347 14.646 3.98848ZM13.9605 5.43898L13.0815 7.44598L9.45898 11.004L5.39998 11.3055L12.678 18.6L13.005 14.532L16.668 10.8735L18.561 10.0485L13.9605 5.43898Z" fill="currentColor" />
  </g>
  </svg>
