<svg
  width="24"
  height="24"
  viewBox="0 0 24 24"
  fill="none"
  xmlns="http://www.w3.org/2000/svg"
>
  <g>
    <path
      d="M18.8971 5.01458C17.0553 3.16833 14.6024 2.15289 11.9956 2.15289C6.61509 2.15289 2.23684 6.53114 2.23684 11.9116C2.23684 13.6304 2.68521 15.3097 3.53801 16.7911L2.15332 21.8462L7.32722 20.4879C8.75151 21.266 10.3559 21.6748 11.9912 21.6748H11.9956C17.3717 21.6748 21.8467 17.2965 21.8467 11.9161C21.8467 9.30933 20.7389 6.86084 18.8971 5.01458ZM11.9956 20.0307C10.5362 20.0307 9.10757 19.6395 7.86351 18.901L7.56899 18.7252L4.50069 19.5296L5.31832 16.5361L5.12491 16.2284C4.31167 14.936 3.88528 13.4458 3.88528 11.9116C3.88528 7.44109 7.52503 3.80133 12 3.80133C14.1671 3.80133 16.2024 4.64534 17.7321 6.17948C19.2619 7.71362 20.2026 9.74888 20.1982 11.9161C20.1982 16.391 16.4661 20.0307 11.9956 20.0307ZM16.4442 13.9557C16.2024 13.8326 15.0024 13.2436 14.7782 13.1645C14.5539 13.0809 14.3913 13.0414 14.2287 13.2876C14.0661 13.5338 13.6001 14.0788 13.455 14.2459C13.3143 14.4085 13.1693 14.4305 12.9275 14.3074C11.4945 13.5908 10.5537 13.0282 9.60865 11.4062C9.35811 10.9754 9.8592 11.0061 10.3251 10.0742C10.4043 9.91156 10.3647 9.7709 10.3032 9.64782C10.2417 9.52473 9.75368 8.32465 9.55148 7.83671C9.35374 7.36196 9.15145 7.4279 9.00206 7.41911C8.8614 7.41032 8.69871 7.41032 8.53608 7.41032C8.37343 7.41032 8.10968 7.47186 7.88549 7.71362C7.6613 7.9598 7.0327 8.54884 7.0327 9.74888C7.0327 10.949 7.90747 12.1094 8.02616 12.2721C8.14924 12.4347 9.74494 14.8964 12.1935 15.9558C13.7408 16.624 14.3474 16.6811 15.121 16.5668C15.5914 16.4965 16.5629 15.9778 16.7651 15.4064C16.9673 14.8349 16.9673 14.3469 16.9058 14.2459C16.8486 14.136 16.686 14.0744 16.4442 13.9557Z"
      fill="currentColor"
    />
  </g>
</svg>
