<svg xmlns="http://www.w3.org/2000/svg" viewBox="0 0 20 20" fill="currentColor">
  <path
    d="M3.56132 8.33136C2.99199 7.85603 2.66666 7.29403 2.66666 6.66536C2.66666 4.65736 5.97999 3.33203 9.99999 3.33203C14.02 3.33203 17.3333 4.65736 17.3333 6.66536C17.3333 7.29403 17.008 7.85603 16.438 8.33203C17.0093 8.80536 17.3333 9.3667 17.3333 9.9987C17.3333 10.6274 17.008 11.1894 16.438 11.6654C17.0093 12.1387 17.3333 12.7 17.3333 13.332C17.3333 15.34 14.02 16.6654 9.99999 16.6654C5.97999 16.6654 2.66666 15.34 2.66666 13.332C2.66666 12.6994 2.99066 12.1387 3.56199 11.6654C2.99199 11.1887 2.66666 10.6267 2.66666 9.9987C2.66666 9.36536 2.98999 8.80536 3.56132 8.33136ZM4.81399 9.07936C4.26466 9.40337 3.99999 9.7347 3.99999 9.9987C3.99999 10.936 6.65599 11.9987 9.99999 11.9987C13.344 11.9987 16 10.936 16 9.9987C16 9.73736 15.74 9.4067 15.186 9.08003C13.8533 9.66536 12.016 9.9987 9.99999 9.9987C7.98399 9.9987 6.14599 9.66537 4.81332 9.07936H4.81399ZM4.81399 12.4127C4.26266 12.738 3.99999 13.0694 3.99999 13.332C3.99999 14.2694 6.65599 15.332 9.99999 15.332C13.344 15.332 16 14.2694 16 13.332C16 13.07 15.7393 12.7387 15.186 12.4134C13.8533 12.9987 12.016 13.332 9.99999 13.332C7.98399 13.332 6.14599 12.9987 4.81332 12.4134L4.81399 12.4127ZM9.99999 8.66536C13.344 8.66536 16 7.6027 16 6.66536C16 5.72803 13.344 4.66536 9.99999 4.66536C6.65599 4.66536 3.99999 5.72803 3.99999 6.66536C3.99999 7.6027 6.65599 8.66536 9.99999 8.66536Z"
  />
</svg>
