<svg xmlns="http://www.w3.org/2000/svg" viewBox="0 0 48 49" fill="currentColor">
  <path
    fill-rule="evenodd"
    clip-rule="evenodd"
    d="M36.6839 11.6851H11.9827C9.99273 11.6851 8.37231 13.3787 8.37231 15.4613V32.9571C8.37231 35.0398 9.99236 36.7334 11.9827 36.7334H36.6839C38.674 36.7334 40.2943 35.0398 40.2943 32.9571V15.4613C40.2943 13.3786 38.6743 11.6851 36.6839 11.6851ZM15.1094 24.7498L20.9147 30.5551C21.5453 31.1858 22.5803 31.1858 23.1947 30.5551L35.4683 18.2815C36.099 17.6509 36.099 16.6321 35.4683 16.0015C34.8377 15.3708 33.8189 15.3708 33.1883 16.0015L22.0628 27.1269L17.3894 22.4698C16.7588 21.8391 15.74 21.8391 15.1094 22.4698C14.4787 23.1004 14.4787 24.1192 15.1094 24.7498Z"
  />
</svg>
