<svg xmlns="http://www.w3.org/2000/svg" viewBox="0 0 20 21" fill="currentColor">
  <path
    fill-rule="evenodd"
    clip-rule="evenodd"
    d="M2.5 10.736C2.5 14.8708 5.86549 18.2357 10.0003 18.2357C14.137 18.2357 17.5 14.8727 17.5 10.736C17.5 9.77148 17.3183 8.83157 16.9611 7.94214C16.9 7.80582 16.7885 7.69846 16.6499 7.64257C16.5114 7.58669 16.3566 7.58663 16.2181 7.64241C16.0795 7.69819 15.9679 7.80547 15.9067 7.94174C15.8456 8.07801 15.8395 8.23268 15.8899 8.37329C16.0025 8.65402 16.0945 8.94121 16.1655 9.23347L13.5268 9.2325C13.4758 8.85939 13.4023 8.48916 13.3067 8.12383C12.9618 6.81684 12.3391 5.60363 11.4852 4.56511C12.3202 4.76521 13.1107 5.13531 13.805 5.65821C13.8656 5.70375 13.9345 5.73691 14.0079 5.75579C14.0813 5.77468 14.1577 5.77893 14.2328 5.76829C14.3078 5.75765 14.38 5.73234 14.4453 5.69379C14.5105 5.65525 14.5675 5.60422 14.6131 5.54364C14.6586 5.48306 14.6918 5.4141 14.7107 5.3407C14.7296 5.2673 14.7338 5.1909 14.7232 5.11586C14.7125 5.04082 14.6872 4.96861 14.6487 4.90335C14.6101 4.83809 14.5591 4.78107 14.4985 4.73553C13.1934 3.75496 11.6369 3.23633 10.0003 3.23633C5.86549 3.23633 2.5 6.60122 2.5 10.736ZM12.5933 9.23216C12.5486 8.93709 12.4882 8.64509 12.4123 8.35788C12.0415 6.95694 11.3173 5.67553 10.31 4.63586C9.24694 5.5979 8.44379 6.81326 7.9757 8.1694C7.8569 8.51702 7.76113 8.87144 7.68876 9.23038L12.5933 9.23216ZM7.55528 10.1532L12.682 10.1553C12.687 10.2752 12.6895 10.3953 12.6895 10.5155C12.6915 11.1299 12.6256 11.7406 12.4944 12.3368C12.3871 12.308 12.2792 12.2809 12.1709 12.2556C11.3843 12.0702 10.5725 11.9759 9.75763 11.9759H9.75392C9.14228 11.9759 8.53127 12.0276 7.93504 12.1324C7.82937 12.1508 7.72406 12.1708 7.61915 12.1924C7.55696 11.7862 7.52429 11.3739 7.52236 10.9584V10.9029C7.5222 10.6523 7.53322 10.4022 7.55528 10.1532ZM6.62934 10.1528L3.67926 10.1516C3.6615 10.3447 3.65242 10.5402 3.65242 10.7379C3.65242 11.7291 3.88067 12.6678 4.28739 13.5043C5.05036 13.0395 5.86847 12.6751 6.72134 12.4191C6.64281 11.9378 6.60197 11.4501 6.5997 10.9602V10.9011C6.5997 10.6506 6.60962 10.401 6.62934 10.1528ZM6.74895 9.23004L3.83358 9.22897C4.44942 6.7123 6.56994 4.78015 9.1838 4.44387C8.25379 5.42051 7.54245 6.58825 7.10168 7.86945C6.95006 8.31417 6.83223 8.76866 6.74895 9.23004ZM6.91595 13.3256C6.1598 13.5594 5.4322 13.8871 4.75088 14.3037C5.68509 15.6744 7.14191 16.6617 8.83274 16.9767C8.19555 16.2298 7.67988 15.3861 7.30555 14.4766C7.15048 14.101 7.02044 13.7165 6.91595 13.3256ZM7.80881 13.096C8.1621 14.4145 8.83397 15.6382 9.77917 16.6527C9.82008 16.697 9.86148 16.7407 9.90332 16.784C9.95876 16.7341 10.0135 16.6835 10.0674 16.6324C10.8012 15.936 11.4032 15.1129 11.8444 14.2025C11.9995 13.8846 12.1338 13.558 12.2469 13.2248C12.152 13.1994 12.0566 13.1754 11.9608 13.153C11.2386 12.9838 10.4994 12.8984 9.75761 12.8986H9.75391C9.09747 12.8978 8.44583 12.9646 7.80881 13.096ZM13.1265 13.5065C12.9999 13.8817 12.8491 14.2492 12.6747 14.6066C12.2455 15.4915 11.6808 16.3001 11.0035 17.0045C12.6722 16.738 14.1256 15.8191 15.0933 14.5182C14.4782 14.1049 13.818 13.7657 13.1265 13.5065ZM15.5888 13.7401C16.0708 12.8459 16.3445 11.8234 16.3445 10.7379C16.3445 10.543 16.3358 10.3491 16.3184 10.1568L13.6073 10.1557C13.6177 10.4307 13.6161 10.7063 13.6023 10.9818C13.5763 11.5337 13.501 12.0807 13.378 12.6165C14.1558 12.9013 14.8981 13.2782 15.5888 13.7401ZM14.8547 7.1375C14.73 7.01275 14.6599 6.84355 14.6599 6.66712C14.6599 6.4907 14.73 6.3215 14.8547 6.19674C14.9795 6.07199 15.1487 6.00191 15.3251 6.00191C15.5015 6.00191 15.6707 6.07199 15.7955 6.19674C15.9202 6.3215 15.9903 6.4907 15.9903 6.66712C15.9903 6.84355 15.9202 7.01275 15.7955 7.1375C15.6707 7.26225 15.5015 7.33233 15.3251 7.33233C15.1487 7.33233 14.9795 7.26225 14.8547 7.1375Z"
    fill="currentColor"
  />
</svg>
