<svg xmlns="http://www.w3.org/2000/svg" viewBox="0 0 28 29" fill="currentColor">
  <path
    d="M24.3804 2.0651C24.4941 2.14215 24.5508 2.25556 24.5508 2.40604V20.5799C24.5508 21.5264 24.172 22.2931 23.4148 22.88C22.6576 23.4681 21.6733 23.7603 20.4617 23.7603C19.2501 23.7603 18.2656 23.4681 17.5083 22.88C16.7511 22.2931 16.3726 21.5264 16.3726 20.5799C16.3726 19.6344 16.7511 18.8677 17.5083 18.2796C18.2656 17.6929 19.2501 17.3995 20.4617 17.3995H22.7334C23.3392 17.3995 23.6421 17.0966 23.6421 16.4908V8.42594L9.10302 10.9817V23.306C9.10302 24.2525 8.72426 25.0192 7.96704 25.606C7.20979 26.1941 6.2255 26.4864 5.01392 26.4864C3.80235 26.4864 2.81781 26.1941 2.06055 25.606C1.3033 25.0191 0.924805 24.2525 0.924805 23.306C0.924805 22.3604 1.3033 21.5938 2.06055 21.0056C2.81781 20.419 3.80235 20.1256 5.01392 20.1256H7.28565C7.89144 20.1256 8.19433 19.8227 8.19433 19.2169V5.1321C8.19433 4.90481 8.32688 4.75458 8.59197 4.67774L24.0397 1.95166C24.1912 1.95169 24.3046 1.98949 24.3804 2.0651Z"
  />
</svg>
