<svg xmlns="http://www.w3.org/2000/svg" viewBox="0 0 24 24" fill="currentColor">
  <path
    d="M14.7041 4.28109L14.8451 4.35009C14.9861 4.42809 15.1121 4.52259 15.2201 4.63209L19.7261 9.14709L19.8311 9.26259C19.9941 9.46162 20.1089 9.69559 20.1666 9.94628C20.2244 10.197 20.2234 10.4576 20.1639 10.7079C20.1044 10.9581 19.9879 11.1913 19.8235 11.3891C19.6591 11.587 19.4512 11.7442 19.2161 11.8486L17.6651 12.5236L14.6456 15.5191L14.6006 15.5941L14.3621 18.8986L14.3441 19.0531C14.2924 19.3546 14.1589 19.6361 13.9581 19.8669C13.7573 20.0977 13.4969 20.2689 13.2055 20.3618C12.914 20.4546 12.6026 20.4656 12.3053 20.3936C12.008 20.3215 11.7362 20.1691 11.5196 19.9531L8.5751 17.0011L5.5841 19.7596C5.46359 19.8813 5.30763 19.9616 5.1386 19.9891L5.0111 19.9981C4.90234 19.9981 4.79468 19.9764 4.69447 19.9341C4.59425 19.8919 4.50351 19.83 4.4276 19.7521L4.3511 19.6606C4.23926 19.5033 4.18692 19.3114 4.2034 19.1191C4.21989 18.9268 4.30412 18.7466 4.4411 18.6106L7.4306 15.8551L4.3901 12.8101L4.2866 12.6946C4.09324 12.4582 3.96838 12.1733 3.92557 11.8709C3.88276 11.5685 3.92365 11.2601 4.04379 10.9794C4.16393 10.6986 4.35873 10.4561 4.60701 10.2782C4.8553 10.1004 5.14758 9.99398 5.4521 9.97059L8.7881 9.73059L8.8706 9.70209L11.7776 6.80409L12.5126 5.14209L12.5816 5.00109C12.7828 4.63891 13.1116 4.36457 13.5039 4.23148C13.8962 4.09838 14.3241 4.11607 14.7041 4.28109ZM14.0186 5.73159L13.1396 7.73859L9.5171 11.2966L5.4581 11.5981L12.7361 18.8926L13.0631 14.8246L16.7261 11.1661L18.6191 10.3411L14.0186 5.73159Z"
  />
</svg>
