<svg xmlns="http://www.w3.org/2000/svg" viewBox="0 0 18 19" fill="currentColor">
  <path
    d="M10.2632 16.5674H7.73918C7.34167 16.5697 7.0042 16.2766 6.95088 15.8827L6.752 14.4941C6.51044 14.3787 6.27831 14.2445 6.05772 14.0928L4.71737 14.6267C4.34869 14.7595 3.93804 14.6066 3.74587 14.2651L2.4911 12.1076C2.29381 11.7652 2.37685 11.3299 2.68637 11.0842L3.80734 10.214C3.79528 10.0705 3.78926 9.94035 3.78926 9.8162C3.78926 9.69205 3.78926 9.56066 3.80734 9.41843L2.68878 8.54938C2.3772 8.30564 2.29287 7.86958 2.4911 7.52725L3.75189 5.35762C3.94674 5.01641 4.36232 4.86967 4.72822 5.01289L6.0541 5.54325C6.27466 5.39214 6.50635 5.25796 6.74718 5.14187L6.95088 3.74366C7.00705 3.35256 7.34408 3.06345 7.73918 3.06742H10.2632C10.6598 3.0663 10.9959 3.3591 11.0491 3.7521L11.2516 5.14066C11.4931 5.25609 11.7253 5.39029 11.9458 5.54204L13.285 5.00807C13.6537 4.87481 14.0647 5.02778 14.2565 5.36968L15.5088 7.52725C15.7061 7.86965 15.6231 8.30489 15.3136 8.55058L14.1926 9.42084C14.2034 9.54138 14.2107 9.67758 14.2107 9.81981C14.2107 9.96204 14.2034 10.0958 14.1926 10.2188L15.3112 11.0878C15.6189 11.3299 15.7048 11.7598 15.5137 12.1015L14.2505 14.2772C14.0556 14.6184 13.64 14.7651 13.2741 14.6219L11.9482 14.0916C11.7277 14.2427 11.496 14.3769 11.2552 14.4929L11.0491 15.8911C10.993 16.2813 10.6574 16.5701 10.2632 16.5674ZM8.99997 8.1058C8.05677 8.11445 7.29834 8.88453 7.30405 9.82775C7.30982 10.771 8.07758 11.5318 9.02081 11.5289C9.96405 11.5261 10.7272 10.7606 10.7272 9.8174C10.7219 8.8682 9.94918 8.10247 8.99997 8.1058Z"
  />
</svg>
