<svg xmlns="http://www.w3.org/2000/svg" viewBox="0 0 24 24" fill="currentColor">
  <path
    d="M13.6844 21H10.3191C9.78908 21.0031 9.33911 20.6123 9.26802 20.0871L9.00285 18.2357C8.68077 18.0817 8.37126 17.9028 8.07714 17.7005L6.29001 18.4125C5.79843 18.5894 5.25091 18.3857 4.99467 17.9303L3.32165 15.0536C3.05859 14.597 3.16932 14.0167 3.582 13.6891L5.07663 12.5288C5.06056 12.3375 5.05253 12.164 5.05253 11.9984C5.05253 11.8329 5.05253 11.6577 5.07663 11.4681L3.58522 10.3093C3.16978 9.98435 3.05734 9.40293 3.32165 8.94648L5.00271 6.05365C5.26251 5.5987 5.81661 5.40305 6.30448 5.59401L8.07232 6.30115C8.36639 6.09968 8.67531 5.92077 8.99642 5.76598L9.26802 3.90171C9.34291 3.38023 9.79229 2.99476 10.3191 3.00005H13.6844C14.2132 2.99855 14.6613 3.38895 14.7323 3.91296L15.0023 5.76437C15.3243 5.91827 15.6339 6.09721 15.928 6.29954L17.7135 5.58759C18.2051 5.4099 18.7531 5.61386 19.0088 6.06972L20.6786 8.94648C20.9417 9.40302 20.831 9.98334 20.4183 10.3109L18.9236 11.4713C18.9381 11.632 18.9478 11.8136 18.9478 12.0032C18.9478 12.1929 18.9381 12.3713 18.9236 12.5352L20.4151 13.6939C20.8254 14.0166 20.9399 14.5899 20.6851 15.0455L19.0008 17.9464C18.741 18.4014 18.1869 18.597 17.699 18.406L15.9312 17.6989C15.6371 17.9004 15.3282 18.0793 15.0071 18.2341L14.7323 20.0983C14.6575 20.6186 14.21 21.0037 13.6844 21ZM10.5152 19.7142H13.4899L13.8323 17.3357L14.173 17.1975C14.6315 17.0072 15.0636 16.7588 15.4587 16.4582L15.7464 16.2428L17.9963 17.138L19.4829 14.5827L17.5785 13.1041L17.6235 12.7409C17.6953 12.2507 17.6953 11.7526 17.6235 11.2624L17.5785 10.8991L19.4829 9.42059L17.9851 6.85722L15.7351 7.75399L15.4458 7.53221C15.056 7.2312 14.6273 6.98415 14.1714 6.79775L13.8323 6.66436L13.4899 4.28581H10.5152L10.1712 6.66436L9.83052 6.80257C9.37207 6.99294 8.93996 7.24139 8.54482 7.54185L8.26196 7.75721L6.01841 6.85722L4.53182 9.41255L6.43626 10.8911L6.39126 11.2543C6.35754 11.4994 6.33929 11.7463 6.33662 11.9936C6.33929 12.2409 6.35754 12.4878 6.39126 12.7329L6.43626 13.0961L4.53182 14.5746L6.01841 17.1428L8.26839 16.2461L8.55767 16.4678C8.94756 16.7688 9.37623 17.0159 9.83213 17.2023L10.1728 17.3405L10.5152 19.7142ZM17.8887 17.3035V17.3132V17.3035ZM6.12127 6.68365V6.69329V6.68365ZM12.0001 15.5679C10.0324 15.5563 8.44557 13.9539 8.45321 11.9862C8.46091 10.0185 10.0602 8.42845 12.028 8.43226C13.9957 8.43609 15.5889 10.0323 15.5889 12C15.5809 13.9753 13.9755 15.5714 12.0001 15.5679ZM12.0001 9.71789C10.7425 9.72942 9.7313 10.7562 9.73891 12.0138C9.74661 13.2715 10.7703 14.2858 12.0279 14.2821C13.2856 14.2782 14.3031 13.2577 14.3032 12C14.2961 10.7344 13.2658 9.71345 12.0001 9.71789Z"
  />
</svg>
