<svg xmlns="http://www.w3.org/2000/svg" viewBox="0 0 19 19" fill="currentColor">
  <path
    d="M6.73306 14.3154C6.19956 14.3154 5.76965 14.7453 5.76965 15.2788C5.76965 15.8123 6.19956 16.2422 6.73306 16.2422C7.26656 16.2422 7.69646 15.8123 7.69646 15.2788C7.69646 14.7453 7.26656 14.3154 6.73306 14.3154Z"
  />
  <path
    d="M13.4796 14.3154C12.9461 14.3154 12.5162 14.7453 12.5162 15.2788C12.5162 15.8123 12.9461 16.2422 13.4796 16.2422C14.0131 16.2422 14.443 15.8123 14.443 15.2788C14.443 14.7453 14.0105 14.3154 13.4796 14.3154Z"
  />
  <path
    d="M15.5307 4.6299C15.2847 4.3502 14.9454 4.19999 14.5777 4.19999H4.92547L4.8918 4.00317C4.80634 3.30133 4.18997 2.75488 3.48813 2.75488H2.87953C2.61278 2.75488 2.39783 2.96984 2.39783 3.23659C2.39783 3.50333 2.61278 3.71829 2.87953 3.71829H3.48554C3.69532 3.71829 3.91027 3.90993 3.93617 4.14302L4.40233 6.83123L5.22071 12.5832C5.30617 13.285 5.91477 13.834 6.61143 13.834H14.443C14.7097 13.834 14.9247 13.6191 14.9247 13.3523C14.9247 13.0856 14.7097 12.8706 14.443 12.8706H6.60884C6.40425 12.8706 6.20224 12.6816 6.17375 12.4563L6.09347 11.8943L13.736 11.4229C14.43 11.4229 15.0412 10.8739 15.1215 10.198L15.8855 5.85746C15.9399 5.39389 15.813 4.94585 15.5307 4.6299Z"
  />
</svg>
