<svg xmlns="http://www.w3.org/2000/svg" viewBox="0 0 25 24" fill="currentColor">
  <path
    fill-rule="evenodd"
    clip-rule="evenodd"
    d="M10.1069 5.26196C10.1069 4.84775 10.3074 4.51196 10.5547 4.51196H20.8285C21.0758 4.51196 21.2762 4.84775 21.2762 5.26196C21.2762 5.67618 21.0758 6.01196 20.8285 6.01196H10.5547C10.3074 6.01196 10.1069 5.67618 10.1069 5.26196ZM10.1069 11.4241C10.1069 11.0099 10.4427 10.6741 10.8569 10.6741H20.5917C21.0059 10.6741 21.3417 11.0099 21.3417 11.4241C21.3417 11.8383 21.0059 12.1741 20.5917 12.1741H10.8569C10.4427 12.1741 10.1069 11.8383 10.1069 11.4241ZM10.8569 16.8362C10.4427 16.8362 10.1069 17.172 10.1069 17.5862C10.1069 18.0004 10.4427 18.3362 10.8569 18.3362H20.5917C21.0059 18.3362 21.3417 18.0004 21.3417 17.5862C21.3417 17.172 21.0059 16.8362 20.5917 16.8362H10.8569Z"
    fill="currentColor"
  />
  <path
    fill-rule="evenodd"
    clip-rule="evenodd"
    d="M7.78967 16.2223C8.07369 15.953 8.07369 15.5163 7.78967 15.247L3.75848 11.4243L7.78967 7.60163C8.07369 7.3323 8.07369 6.89564 7.78967 6.62631C7.50565 6.35698 7.04517 6.35698 6.76115 6.62631L2.2157 10.9367C1.93168 11.206 1.93168 11.6426 2.2157 11.912L6.76115 16.2223C7.04517 16.4916 7.50565 16.4916 7.78967 16.2223Z"
    fill="currentColor"
  />
</svg>
