<svg xmlns="http://www.w3.org/2000/svg" viewBox="0 0 21 21" fill="currentColor">
  <g xmlns="http://www.w3.org/2000/svg">
    <path
      fill-rule="evenodd"
      clip-rule="evenodd"
      d="M14.9924 5.29029H16.053C16.3712 5.29029 16.5833 5.50019 16.5833 5.81501V16.3088C16.5833 16.6236 16.3712 16.8335 16.053 16.8335H5.44694C5.12875 16.8335 4.91663 16.6236 4.91663 16.3088V5.81499C4.91663 5.50018 5.12875 5.29029 5.44694 5.29029H6.50754C6.82571 5.29029 7.03784 5.50019 7.03784 5.81499C7.03784 6.12979 6.8257 6.33968 6.50754 6.33968H5.97723V15.7841H15.5227V6.33968H14.9924C14.6742 6.33968 14.4621 6.12981 14.4621 5.81499C14.4621 5.50018 14.6742 5.29029 14.9924 5.29029ZM13.4015 5.81499C13.4015 6.12979 13.1894 6.33968 12.8712 6.33968H8.62874C8.31055 6.33968 8.09845 6.12981 8.09845 5.81499C8.09845 5.50018 8.31056 5.29029 8.62874 5.29029H8.68177C8.68177 5.21159 8.66852 5.11977 8.65526 5.02795C8.642 4.93613 8.62874 4.84431 8.62874 4.76561C8.62874 3.61129 9.5833 2.66684 10.75 2.66684C11.9166 2.66684 12.8712 3.61129 12.8712 4.76561C12.8712 4.84431 12.8579 4.93613 12.8447 5.02795C12.8314 5.11977 12.8181 5.21159 12.8181 5.29029H12.8712C13.1894 5.29029 13.4015 5.50019 13.4015 5.81499ZM11.8106 4.76561C11.8106 4.18844 11.3333 3.71622 10.75 3.71622C10.1666 3.71622 9.68937 4.18844 9.68937 4.76561C9.68937 4.97548 9.74239 5.13289 9.84846 5.29029H11.6515C11.7575 5.13289 11.8106 4.97548 11.8106 4.76561ZM14.0692 9.27928C14.2694 9.05692 14.2513 8.71443 14.029 8.51431C13.8066 8.31418 13.4641 8.33221 13.264 8.55457L9.94093 12.2469L8.67293 10.6619C8.48605 10.4283 8.14518 10.3904 7.91158 10.5773C7.67798 10.7642 7.64011 11.105 7.82699 11.3386L9.18699 13.0386C9.55646 13.5005 10.252 13.5207 10.6476 13.0811L14.0692 9.27928Z"
    />
  </g>
</svg>
