<svg xmlns="http://www.w3.org/2000/svg" viewBox="0 0 24 24" fill="currentColor">
  <path
    fill-rule="evenodd"
    clip-rule="evenodd"
    d="M4.18348 12C4.18348 7.68305 7.68305 4.18348 12 4.18348C16.3169 4.18348 19.8165 7.68305 19.8165 12C19.8165 16.3169 16.3169 19.8165 12 19.8165C11.3025 19.8165 10.6272 19.7253 9.98498 19.5545C9.57518 19.4455 9.17861 19.304 8.79815 19.1329C8.67162 19.076 8.52912 19.0654 8.39556 19.1029C7.93521 19.2321 7.22592 19.4143 6.62649 19.5654C6.50584 19.5958 6.38994 19.6248 6.28181 19.6519V17.5575C6.28181 17.2306 6.01688 16.9657 5.69007 16.9657C5.36326 16.9657 5.09833 17.2306 5.09833 17.5575V20.4083C5.09833 20.59 5.18184 20.7616 5.32482 20.8738C5.4678 20.986 5.65479 21.0262 5.8313 20.9829L5.91622 20.962L6.14821 20.9047C6.34413 20.8562 6.61519 20.7887 6.91572 20.713C7.43441 20.5822 8.04656 20.4254 8.51138 20.2987C8.88874 20.4575 9.27923 20.5914 9.68076 20.6982C10.4213 20.8952 11.1989 21 12 21C16.9706 21 21 16.9706 21 12C21 7.02944 16.9706 3 12 3C7.02944 3 3 7.02944 3 12C3 13.3487 3.29705 14.6296 3.82986 15.7796C3.96725 16.0761 4.31901 16.2051 4.61554 16.0677C4.91206 15.9303 5.04107 15.5786 4.90368 15.282C4.44163 14.2848 4.18348 13.1734 4.18348 12ZM14.1322 12.8806C14.303 12.9415 15.221 13.3912 15.4053 13.4859C15.4354 13.5005 15.4638 13.514 15.4906 13.5267C15.6283 13.5919 15.7222 13.6363 15.7604 13.7057C15.806 13.7834 15.806 14.1571 15.6522 14.5933C15.4983 15.0312 14.7561 15.4268 14.396 15.4809C13.8042 15.5688 13.341 15.5249 12.1575 15.0143C10.4148 14.2602 9.23787 12.5782 9.00762 12.2491C8.99059 12.2248 8.97874 12.2079 8.97222 12.1993C8.96997 12.1962 8.96736 12.1926 8.96441 12.1886C8.8483 12.0302 8.2131 11.1639 8.2131 10.2702C8.2131 9.41459 8.63315 8.96432 8.82786 8.75561C8.84169 8.74078 8.85438 8.72718 8.86571 8.71473C9.03647 8.53044 9.23766 8.4831 9.36278 8.4831C9.48789 8.4831 9.61131 8.4831 9.71951 8.48987C9.7333 8.49069 9.74771 8.49066 9.76267 8.49063C9.87058 8.49042 10.0066 8.49015 10.1388 8.80941C10.1909 8.93447 10.2672 9.12032 10.3474 9.31581C10.507 9.70441 10.6821 10.1311 10.7136 10.1941C10.761 10.2888 10.7914 10.3953 10.7306 10.5204C10.572 10.8367 10.4085 11.0077 10.2925 11.1291C10.1474 11.2809 10.0766 11.355 10.1828 11.5382C10.9047 12.7775 11.6232 13.2069 12.7188 13.7547C12.9031 13.8477 13.013 13.8325 13.1212 13.7074C13.2328 13.5806 13.5878 13.163 13.7129 12.9753C13.8364 12.7859 13.9615 12.8164 14.1322 12.8806Z"
  />
</svg>
