<svg
  xmlns="http://www.w3.org/2000/svg"
  viewBox="0 0 65 14"
  fill="var(--business-icon-primary-color)"
>
  <rect width="65" height="14" rx="3" fill="var(--business-icon-primary-color)" />
  <path
    d="M7.6762 9.5961C7.10554 9.5961 6.6122 9.49477 6.1962 9.2921C5.78554 9.0841 5.4682 8.79877 5.2442 8.4361C5.0202 8.0681 4.9082 7.6441 4.9082 7.1641C4.9082 6.68944 4.99087 6.24677 5.1562 5.8361C5.32687 5.42543 5.5642 5.07077 5.8682 4.7721C6.17754 4.4681 6.54287 4.23077 6.9642 4.0601C7.39087 3.88944 7.86554 3.8041 8.3882 3.8041C8.88954 3.8041 9.3322 3.88944 9.7162 4.0601C10.1002 4.23077 10.3909 4.4761 10.5882 4.7961L9.6522 5.5641C9.5082 5.35077 9.3242 5.1881 9.1002 5.0761C8.8762 4.9641 8.60954 4.9081 8.3002 4.9081C7.98554 4.9081 7.7002 4.9641 7.4442 5.0761C7.1882 5.18277 6.96687 5.33744 6.7802 5.5401C6.59887 5.73744 6.4602 5.96944 6.3642 6.2361C6.2682 6.50277 6.2202 6.78544 6.2202 7.0841C6.2202 7.36677 6.28154 7.61477 6.4042 7.8281C6.52687 8.0361 6.70554 8.19877 6.9402 8.3161C7.17487 8.43344 7.45754 8.4921 7.7882 8.4921C8.0762 8.4921 8.34554 8.44144 8.5962 8.3401C8.84687 8.23344 9.07354 8.0681 9.2762 7.8441L10.0442 8.6281C9.75087 8.96944 9.40154 9.21744 8.9962 9.3721C8.5962 9.52144 8.1562 9.5961 7.6762 9.5961Z"
    fill="var(--business-icon-secondary-color)"
  />
  <path
    d="M12.339 9.5641C11.9016 9.5641 11.5203 9.4841 11.195 9.3241C10.8696 9.1641 10.6163 8.9401 10.435 8.6521C10.259 8.3641 10.171 8.02544 10.171 7.6361C10.171 7.1561 10.283 6.72944 10.507 6.3561C10.731 5.97744 11.0376 5.67877 11.427 5.4601C11.8216 5.24144 12.2696 5.1321 12.771 5.1321C13.2136 5.1321 13.595 5.2121 13.915 5.3721C14.2403 5.5321 14.491 5.7561 14.667 6.0441C14.8483 6.32677 14.939 6.66544 14.939 7.0601C14.939 7.53477 14.827 7.96144 14.603 8.3401C14.379 8.71877 14.0723 9.01744 13.683 9.2361C13.2936 9.45477 12.8456 9.5641 12.339 9.5641ZM12.419 8.5401C12.6643 8.5401 12.8803 8.48144 13.067 8.3641C13.259 8.24144 13.4083 8.07344 13.515 7.8601C13.6216 7.64677 13.675 7.39877 13.675 7.1161C13.675 6.8281 13.5896 6.5961 13.419 6.4201C13.2483 6.2441 13.0083 6.1561 12.699 6.1561C12.4536 6.1561 12.235 6.21744 12.043 6.3401C11.8563 6.45744 11.707 6.62277 11.595 6.8361C11.4883 7.04944 11.435 7.29744 11.435 7.5801C11.435 7.87344 11.5203 8.1081 11.691 8.2841C11.8616 8.45477 12.1043 8.5401 12.419 8.5401Z"
    fill="var(--business-icon-secondary-color)"
  />
  <path
    d="M21.3013 5.1321C21.664 5.1321 21.9707 5.20944 22.2213 5.3641C22.472 5.51344 22.6507 5.73477 22.7573 6.0281C22.864 6.32144 22.872 6.6841 22.7813 7.1161L22.3093 9.5001H21.0613L21.5173 7.2041C21.5867 6.8841 21.5653 6.63877 21.4533 6.4681C21.3413 6.29744 21.1467 6.2121 20.8693 6.2121C20.576 6.2121 20.3333 6.3001 20.1413 6.4761C19.9493 6.64677 19.816 6.91877 19.7413 7.2921L19.3013 9.5001H18.0533L18.5093 7.2041C18.5733 6.8841 18.5493 6.63877 18.4373 6.4681C18.3307 6.29744 18.1387 6.2121 17.8613 6.2121C17.568 6.2121 17.3253 6.3001 17.1333 6.4761C16.9413 6.64677 16.8053 6.9241 16.7253 7.3081L16.2933 9.5001H15.0453L15.9013 5.1961H17.0853L16.8613 6.2921L16.6693 6.0441C16.8667 5.73477 17.112 5.50544 17.4053 5.3561C17.6987 5.20677 18.0107 5.1321 18.3413 5.1321C18.608 5.1321 18.848 5.1801 19.0613 5.2761C19.2747 5.3721 19.448 5.5161 19.5813 5.7081C19.72 5.89477 19.8 6.12944 19.8213 6.4121L19.3413 6.2921C19.5547 5.91344 19.8267 5.62544 20.1573 5.4281C20.4933 5.23077 20.8747 5.1321 21.3013 5.1321Z"
    fill="var(--business-icon-secondary-color)"
  />
  <path
    d="M23.156 9.5001L24.012 5.1961H25.252L24.396 9.5001H23.156ZM24.844 4.5961C24.6253 4.5961 24.4493 4.53477 24.316 4.4121C24.1826 4.2841 24.116 4.12944 24.116 3.9481C24.116 3.73477 24.1906 3.55877 24.34 3.4201C24.4946 3.2761 24.6946 3.2041 24.94 3.2041C25.1586 3.2041 25.3346 3.26543 25.468 3.3881C25.6066 3.50543 25.676 3.6521 25.676 3.8281C25.676 4.05744 25.5986 4.2441 25.444 4.3881C25.2946 4.52677 25.0946 4.5961 24.844 4.5961Z"
    fill="var(--business-icon-secondary-color)"
  />
  <path
    d="M28.6344 5.1321C29.0024 5.1321 29.3144 5.20944 29.5704 5.3641C29.8264 5.51344 30.0077 5.73477 30.1144 6.0281C30.2211 6.32144 30.2317 6.6841 30.1464 7.1161L29.6664 9.5001H28.4184L28.8824 7.1961C28.9464 6.88144 28.9197 6.63877 28.8024 6.4681C28.6904 6.29744 28.4824 6.2121 28.1784 6.2121C27.8637 6.2121 27.5997 6.30277 27.3864 6.4841C27.1784 6.66544 27.0344 6.94277 26.9544 7.3161L26.5224 9.5001H25.2744L26.1304 5.1961H27.3144L27.0664 6.4121L26.8904 6.0441C27.0984 5.72943 27.3544 5.5001 27.6584 5.3561C27.9677 5.20677 28.2931 5.1321 28.6344 5.1321Z"
    fill="var(--business-icon-secondary-color)"
  />
  <path
    d="M32.3733 11.1161C31.9573 11.1161 31.5733 11.0681 31.2213 10.9721C30.8746 10.8761 30.5759 10.7348 30.3253 10.5481L30.9173 9.6441C31.0879 9.78277 31.3066 9.89477 31.5733 9.9801C31.8453 10.0654 32.1306 10.1081 32.4293 10.1081C32.8613 10.1081 33.1839 10.0148 33.3973 9.8281C33.6159 9.64144 33.7626 9.3641 33.8373 8.9961L33.9893 8.2201L34.2773 7.2121L34.4693 6.1241L34.6453 5.1961H35.8373L35.1253 8.7801C34.9599 9.60677 34.6453 10.2014 34.1813 10.5641C33.7226 10.9321 33.1199 11.1161 32.3733 11.1161ZM32.5573 9.2921C32.2053 9.2921 31.8853 9.2201 31.5973 9.0761C31.3093 8.9321 31.0799 8.72677 30.9093 8.4601C30.7386 8.1881 30.6533 7.86277 30.6533 7.4841C30.6533 7.15344 30.7119 6.84677 30.8293 6.5641C30.9519 6.28144 31.1199 6.03344 31.3333 5.8201C31.5519 5.60143 31.8053 5.43344 32.0933 5.3161C32.3866 5.19344 32.7066 5.1321 33.0533 5.1321C33.3679 5.1321 33.6533 5.19077 33.9093 5.3081C34.1653 5.42544 34.3626 5.61477 34.5013 5.8761C34.6453 6.13744 34.6986 6.48677 34.6613 6.9241C34.6293 7.39877 34.5253 7.81477 34.3493 8.1721C34.1733 8.5241 33.9333 8.79877 33.6293 8.9961C33.3306 9.19344 32.9733 9.2921 32.5573 9.2921ZM32.8933 8.2681C33.1386 8.2681 33.3546 8.21477 33.5413 8.1081C33.7279 8.00144 33.8746 7.85477 33.9813 7.6681C34.0879 7.4761 34.1413 7.25744 34.1413 7.0121C34.1413 6.75077 34.0559 6.54544 33.8853 6.3961C33.7146 6.24144 33.4773 6.1641 33.1733 6.1641C32.9279 6.1641 32.7093 6.21744 32.5173 6.3241C32.3306 6.43077 32.1813 6.5801 32.0693 6.7721C31.9626 6.95877 31.9093 7.17477 31.9093 7.4201C31.9093 7.68144 31.9973 7.88944 32.1733 8.0441C32.3493 8.19344 32.5893 8.2681 32.8933 8.2681Z"
    fill="var(--business-icon-secondary-color)"
  />
  <path
    d="M40.0265 9.5639C39.6479 9.5639 39.2905 9.52124 38.9545 9.4359C38.6239 9.35057 38.3679 9.2439 38.1865 9.1159L38.6665 8.2119C38.8532 8.33457 39.0799 8.43324 39.3465 8.5079C39.6185 8.58257 39.8905 8.6199 40.1625 8.6199C40.4559 8.6199 40.6692 8.58257 40.8025 8.5079C40.9359 8.43324 41.0025 8.3319 41.0025 8.2039C41.0025 8.10257 40.9465 8.0279 40.8345 7.9799C40.7225 7.92657 40.5812 7.8839 40.4105 7.8519C40.2399 7.8199 40.0559 7.78257 39.8585 7.7399C39.6665 7.69724 39.4825 7.63857 39.3065 7.5639C39.1359 7.4839 38.9945 7.3719 38.8825 7.2279C38.7759 7.07857 38.7225 6.8839 38.7225 6.6439C38.7225 6.31857 38.8132 6.0439 38.9945 5.8199C39.1812 5.5959 39.4372 5.42524 39.7625 5.3079C40.0932 5.19057 40.4665 5.1319 40.8825 5.1319C41.1812 5.1319 41.4719 5.1639 41.7545 5.2279C42.0372 5.2919 42.2772 5.3799 42.4745 5.4919L42.0265 6.4039C41.8239 6.2759 41.6105 6.19057 41.3865 6.1479C41.1679 6.0999 40.9572 6.0759 40.7545 6.0759C40.4612 6.0759 40.2479 6.11857 40.1145 6.2039C39.9865 6.2839 39.9225 6.38257 39.9225 6.4999C39.9225 6.60124 39.9759 6.68124 40.0825 6.7399C40.1945 6.79324 40.3359 6.83857 40.5065 6.8759C40.6772 6.9079 40.8612 6.94524 41.0585 6.9879C41.2559 7.02524 41.4399 7.0839 41.6105 7.1639C41.7812 7.23857 41.9199 7.3479 42.0265 7.4919C42.1385 7.63057 42.1945 7.8199 42.1945 8.0599C42.1945 8.38524 42.0985 8.66257 41.9065 8.8919C41.7199 9.1159 41.4639 9.2839 41.1385 9.3959C40.8132 9.5079 40.4425 9.5639 40.0265 9.5639Z"
    fill="var(--business-icon-secondary-color)"
  />
  <path
    d="M44.6765 9.5639C44.2392 9.5639 43.8579 9.4839 43.5325 9.3239C43.2072 9.1639 42.9539 8.9399 42.7725 8.6519C42.5965 8.3639 42.5085 8.02524 42.5085 7.6359C42.5085 7.1559 42.6205 6.72924 42.8445 6.3559C43.0685 5.97724 43.3752 5.67857 43.7645 5.4599C44.1592 5.24124 44.6072 5.1319 45.1085 5.1319C45.5512 5.1319 45.9325 5.2119 46.2525 5.3719C46.5779 5.5319 46.8285 5.7559 47.0045 6.0439C47.1859 6.32657 47.2765 6.66524 47.2765 7.0599C47.2765 7.53457 47.1645 7.96124 46.9405 8.3399C46.7165 8.71857 46.4099 9.01724 46.0205 9.2359C45.6312 9.45457 45.1832 9.5639 44.6765 9.5639ZM44.7565 8.5399C45.0019 8.5399 45.2179 8.48124 45.4045 8.3639C45.5965 8.24124 45.7459 8.07324 45.8525 7.8599C45.9592 7.64657 46.0125 7.39857 46.0125 7.1159C46.0125 6.8279 45.9272 6.5959 45.7565 6.4199C45.5859 6.2439 45.3459 6.1559 45.0365 6.1559C44.7912 6.1559 44.5725 6.21724 44.3805 6.3399C44.1939 6.45724 44.0445 6.62257 43.9325 6.8359C43.8259 7.04924 43.7725 7.29724 43.7725 7.5799C43.7725 7.87324 43.8579 8.1079 44.0285 8.2839C44.1992 8.45457 44.4419 8.5399 44.7565 8.5399Z"
    fill="var(--business-icon-secondary-color)"
  />
  <path
    d="M49.6309 9.5639C49.1936 9.5639 48.8122 9.4839 48.4869 9.3239C48.1616 9.1639 47.9082 8.9399 47.7269 8.6519C47.5509 8.3639 47.4629 8.02524 47.4629 7.6359C47.4629 7.1559 47.5749 6.72924 47.7989 6.3559C48.0229 5.97724 48.3296 5.67857 48.7189 5.4599C49.1136 5.24124 49.5616 5.1319 50.0629 5.1319C50.5056 5.1319 50.8869 5.2119 51.2069 5.3719C51.5322 5.5319 51.7829 5.7559 51.9589 6.0439C52.1402 6.32657 52.2309 6.66524 52.2309 7.0599C52.2309 7.53457 52.1189 7.96124 51.8949 8.3399C51.6709 8.71857 51.3642 9.01724 50.9749 9.2359C50.5856 9.45457 50.1376 9.5639 49.6309 9.5639ZM49.7109 8.5399C49.9562 8.5399 50.1722 8.48124 50.3589 8.3639C50.5509 8.24124 50.7002 8.07324 50.8069 7.8599C50.9136 7.64657 50.9669 7.39857 50.9669 7.1159C50.9669 6.8279 50.8816 6.5959 50.7109 6.4199C50.5402 6.2439 50.3002 6.1559 49.9909 6.1559C49.7456 6.1559 49.5269 6.21724 49.3349 6.3399C49.1482 6.45724 48.9989 6.62257 48.8869 6.8359C48.7802 7.04924 48.7269 7.29724 48.7269 7.5799C48.7269 7.87324 48.8122 8.1079 48.9829 8.2839C49.1536 8.45457 49.3962 8.5399 49.7109 8.5399Z"
    fill="var(--business-icon-secondary-color)"
  />
  <path
    d="M55.6973 5.1319C56.0653 5.1319 56.3773 5.20924 56.6333 5.3639C56.8893 5.51324 57.0706 5.73457 57.1773 6.0279C57.2839 6.32124 57.2946 6.6839 57.2093 7.1159L56.7293 9.4999H55.4813L55.9453 7.1959C56.0093 6.88124 55.9826 6.63857 55.8653 6.4679C55.7533 6.29724 55.5453 6.2119 55.2413 6.2119C54.9266 6.2119 54.6626 6.30257 54.4493 6.4839C54.2413 6.66524 54.0973 6.94257 54.0173 7.3159L53.5853 9.4999H52.3373L53.1933 5.1959H54.3773L54.1293 6.4119L53.9533 6.0439C54.1613 5.72924 54.4173 5.4999 54.7213 5.3559C55.0306 5.20657 55.3559 5.1319 55.6973 5.1319Z"
    fill="var(--business-icon-secondary-color)"
  />
  <path
    d="M58.0525 7.5559L58.5405 3.8999H60.0285L59.0445 7.5559H58.0525ZM58.2605 9.5639C58.0472 9.5639 57.8712 9.4999 57.7325 9.3719C57.5939 9.23857 57.5245 9.07857 57.5245 8.8919C57.5245 8.6679 57.6019 8.4839 57.7565 8.3399C57.9165 8.1959 58.1085 8.1239 58.3325 8.1239C58.5459 8.1239 58.7192 8.1879 58.8525 8.3159C58.9912 8.43857 59.0605 8.59324 59.0605 8.7799C59.0605 8.9239 59.0232 9.05724 58.9485 9.1799C58.8792 9.29724 58.7832 9.39057 58.6605 9.4599C58.5432 9.52924 58.4099 9.5639 58.2605 9.5639Z"
    fill="var(--business-icon-secondary-color)"
  />
</svg>
